<?xml version="1.0" encoding="UTF-8" standalone="no"?>
<!-- Created with Inkscape (http://www.inkscape.org/) -->

<svg
   xmlns:dc="http://purl.org/dc/elements/1.1/"
   xmlns:cc="http://creativecommons.org/ns#"
   xmlns:rdf="http://www.w3.org/1999/02/22-rdf-syntax-ns#"
   xmlns:svg="http://www.w3.org/2000/svg"
   xmlns="http://www.w3.org/2000/svg"
   xmlns:xlink="http://www.w3.org/1999/xlink"
   xmlns:sodipodi="http://sodipodi.sourceforge.net/DTD/sodipodi-0.dtd"
   xmlns:inkscape="http://www.inkscape.org/namespaces/inkscape"
   width="44.409897mm"
   height="44.409897mm"
   viewBox="0 0 44.409897 44.409897"
   version="1.1"
   id="svg3916"
   inkscape:version="0.92.4 (5da689c313, 2019-01-14)"
   sodipodi:docname="avatar5.svg">
  <defs
     id="defs3910">
    <clipPath
       clipPathUnits="userSpaceOnUse"
       id="clipPath3897">
      <circle
         style="opacity:0.5;vector-effect:none;fill:#4d4d4d;fill-opacity:1;fill-rule:evenodd;stroke:none;stroke-width:0.90107036;stroke-linecap:butt;stroke-linejoin:bevel;stroke-miterlimit:4;stroke-dasharray:none;stroke-dashoffset:0;stroke-opacity:1;paint-order:markers stroke fill"
         id="circle3899"
         cx="231.51881"
         cy="173.94919"
         r="22.204948" />
    </clipPath>
    <clipPath
       id="SVGID_18_">
      <use
         xlink:href="#SVGID_17_"
         overflow="visible"
         id="use159"
         style="overflow:visible"
         x="0"
         y="0"
         width="100%"
         height="100%" />
    </clipPath>
    <clipPath
       id="SVGID_16_">
      <use
         xlink:href="#SVGID_15_"
         overflow="visible"
         id="use145"
         style="overflow:visible"
         x="0"
         y="0"
         width="100%"
         height="100%" />
    </clipPath>
    <clipPath
       id="SVGID_14_">
      <use
         xlink:href="#SVGID_13_"
         overflow="visible"
         id="use127"
         style="overflow:visible"
         x="0"
         y="0"
         width="100%"
         height="100%" />
    </clipPath>
    <clipPath
       id="SVGID_12_">
      <use
         xlink:href="#SVGID_11_"
         overflow="visible"
         id="use113"
         style="overflow:visible"
         x="0"
         y="0"
         width="100%"
         height="100%" />
    </clipPath>
    <clipPath
       id="SVGID_8_">
      <use
         xlink:href="#SVGID_7_"
         overflow="visible"
         id="use81"
         style="overflow:visible"
         x="0"
         y="0"
         width="100%"
         height="100%" />
    </clipPath>
    <clipPath
       id="SVGID_10_">
      <use
         xlink:href="#SVGID_9_"
         overflow="visible"
         id="use87"
         style="overflow:visible"
         x="0"
         y="0"
         width="100%"
         height="100%" />
    </clipPath>
    <clipPath
       id="SVGID_6_">
      <use
         xlink:href="#SVGID_5_"
         overflow="visible"
         id="use65"
         style="overflow:visible"
         x="0"
         y="0"
         width="100%"
         height="100%" />
    </clipPath>
    <clipPath
       id="SVGID_4_">
      <use
         xlink:href="#SVGID_3_"
         overflow="visible"
         id="use41"
         style="overflow:visible"
         x="0"
         y="0"
         width="100%"
         height="100%" />
    </clipPath>
    <clipPath
       id="SVGID_2_">
      <use
         xlink:href="#SVGID_1_"
         overflow="visible"
         id="use27"
         style="overflow:visible"
         x="0"
         y="0"
         width="100%"
         height="100%" />
    </clipPath>
    <rect
       id="SVGID_1_"
       x="966.646"
       y="591.78998"
       width="4.6129999"
       height="3.1800001" />
    <rect
       id="SVGID_3_"
       x="936.18103"
       y="593.40002"
       width="4.507"
       height="1.38" />
    <rect
       id="SVGID_5_"
       x="939.19897"
       y="493.73999"
       width="27.424999"
       height="57.82" />
    <rect
       id="SVGID_7_"
       x="955.93402"
       y="527.09003"
       width="9.6120005"
       height="6.04" />
    <rect
       id="SVGID_9_"
       x="955.93402"
       y="527.09003"
       width="9.6120005"
       height="6.04" />
    <rect
       id="SVGID_11_"
       x="949.26898"
       y="515.28998"
       width="0.93199998"
       height="2.25" />
    <rect
       id="SVGID_13_"
       x="969.08002"
       y="515.28998"
       width="0.93199998"
       height="2.25" />
    <rect
       id="SVGID_15_"
       x="941.59802"
       y="510.79001"
       width="16.566"
       height="16.559999" />
    <rect
       id="SVGID_17_"
       x="964.06403"
       y="510.79001"
       width="16.566"
       height="16.559999" />
    <clipPath
       id="SVGID_18_-8">
      <use
         xlink:href="#SVGID_17_-1"
         overflow="visible"
         id="use175"
         style="overflow:visible"
         x="0"
         y="0"
         width="100%"
         height="100%" />
    </clipPath>
    <clipPath
       id="SVGID_16_-1">
      <use
         xlink:href="#SVGID_15_-5"
         overflow="visible"
         id="use161"
         style="overflow:visible"
         x="0"
         y="0"
         width="100%"
         height="100%" />
    </clipPath>
    <clipPath
       id="SVGID_14_-1">
      <use
         xlink:href="#SVGID_13_-6"
         overflow="visible"
         id="use147"
         style="overflow:visible"
         x="0"
         y="0"
         width="100%"
         height="100%" />
    </clipPath>
    <clipPath
       id="SVGID_12_-4">
      <use
         xlink:href="#SVGID_11_-3"
         overflow="visible"
         id="use131"
         style="overflow:visible"
         x="0"
         y="0"
         width="100%"
         height="100%" />
    </clipPath>
    <clipPath
       id="SVGID_10_-2">
      <use
         xlink:href="#SVGID_9_-9"
         overflow="visible"
         id="use117"
         style="overflow:visible"
         x="0"
         y="0"
         width="100%"
         height="100%" />
    </clipPath>
    <clipPath
       id="SVGID_6_-1">
      <use
         xlink:href="#SVGID_5_-4"
         overflow="visible"
         id="use79"
         style="overflow:visible"
         x="0"
         y="0"
         width="100%"
         height="100%" />
    </clipPath>
    <clipPath
       id="SVGID_8_-5">
      <use
         xlink:href="#SVGID_7_-5"
         overflow="visible"
         id="use85"
         style="overflow:visible"
         x="0"
         y="0"
         width="100%"
         height="100%" />
    </clipPath>
    <clipPath
       id="SVGID_4_-3">
      <use
         xlink:href="#SVGID_3_-4"
         overflow="visible"
         id="use43"
         style="overflow:visible"
         x="0"
         y="0"
         width="100%"
         height="100%" />
    </clipPath>
    <clipPath
       id="SVGID_2_-9">
      <use
         xlink:href="#SVGID_1_-1"
         overflow="visible"
         id="use29"
         style="overflow:visible"
         x="0"
         y="0"
         width="100%"
         height="100%" />
    </clipPath>
    <rect
       id="SVGID_1_-1"
       x="963.83398"
       y="599.78998"
       width="4.6110001"
       height="3.1800001" />
    <rect
       id="SVGID_3_-4"
       x="933.36798"
       y="601.40002"
       width="4.506"
       height="1.38" />
    <rect
       id="SVGID_5_-4"
       x="953.12"
       y="535.09003"
       width="9.6120005"
       height="6.04" />
    <rect
       id="SVGID_7_-5"
       x="953.12"
       y="535.09003"
       width="9.6120005"
       height="6.04" />
    <rect
       id="SVGID_9_-9"
       x="946.45599"
       y="523.28998"
       width="0.93099999"
       height="2.25" />
    <rect
       id="SVGID_11_-3"
       x="966.26801"
       y="523.28998"
       width="0.93099999"
       height="2.25" />
    <rect
       id="SVGID_13_-6"
       x="936.242"
       y="521.14001"
       width="19.148001"
       height="10.74" />
    <rect
       id="SVGID_15_-5"
       x="960.91803"
       y="521.14001"
       width="18.105"
       height="10.74" />
    <rect
       id="SVGID_17_-1"
       x="935.51001"
       y="492.51999"
       width="3.1470001"
       height="9.7299995" />
    <clipPath
       id="SVGID_18_-5">
      <use
         xlink:href="#SVGID_17_-3"
         overflow="visible"
         id="use151"
         style="overflow:visible"
         x="0"
         y="0"
         width="100%"
         height="100%" />
    </clipPath>
    <clipPath
       id="SVGID_16_-3">
      <use
         xlink:href="#SVGID_15_-9"
         overflow="visible"
         id="use135"
         style="overflow:visible"
         x="0"
         y="0"
         width="100%"
         height="100%" />
    </clipPath>
    <clipPath
       id="SVGID_14_-3">
      <use
         xlink:href="#SVGID_13_-9"
         overflow="visible"
         id="use121"
         style="overflow:visible"
         x="0"
         y="0"
         width="100%"
         height="100%" />
    </clipPath>
    <clipPath
       id="SVGID_12_-0">
      <use
         xlink:href="#SVGID_11_-2"
         overflow="visible"
         id="use105"
         style="overflow:visible"
         x="0"
         y="0"
         width="100%"
         height="100%" />
    </clipPath>
    <clipPath
       id="SVGID_8_-8">
      <use
         xlink:href="#SVGID_7_-52"
         overflow="visible"
         id="use75"
         style="overflow:visible"
         x="0"
         y="0"
         width="100%"
         height="100%" />
    </clipPath>
    <clipPath
       id="SVGID_10_-3">
      <use
         xlink:href="#SVGID_9_-1"
         overflow="visible"
         id="use81-7"
         style="overflow:visible"
         x="0"
         y="0"
         width="100%"
         height="100%" />
    </clipPath>
    <clipPath
       id="SVGID_6_-2">
      <use
         xlink:href="#SVGID_5_-42"
         overflow="visible"
         id="use63"
         style="overflow:visible"
         x="0"
         y="0"
         width="100%"
         height="100%" />
    </clipPath>
    <clipPath
       id="SVGID_4_-5">
      <use
         xlink:href="#SVGID_3_-8"
         overflow="visible"
         id="use41-3"
         style="overflow:visible"
         x="0"
         y="0"
         width="100%"
         height="100%" />
    </clipPath>
    <clipPath
       id="SVGID_2_-95">
      <use
         xlink:href="#SVGID_1_-8"
         overflow="visible"
         id="use27-8"
         style="overflow:visible"
         x="0"
         y="0"
         width="100%"
         height="100%" />
    </clipPath>
    <rect
       id="SVGID_1_-8"
       x="951.16498"
       y="549.12097"
       width="4.612"
       height="3.184" />
    <rect
       id="SVGID_3_-8"
       x="920.69897"
       y="550.737"
       width="4.507"
       height="1.375" />
    <rect
       id="SVGID_5_-42"
       x="923.71802"
       y="450.427"
       width="27.424"
       height="58.463001" />
    <rect
       id="SVGID_7_-52"
       x="940.45203"
       y="484.42599"
       width="9.6120005"
       height="6.0370002" />
    <rect
       id="SVGID_9_-1"
       x="940.45203"
       y="484.42599"
       width="9.6120005"
       height="6.0370002" />
    <path
       id="SVGID_11_-2"
       d="m 934.081,493.437 c 0,0 2.077,4.481 4.332,6.045 1.367,0.948 2.283,1.584 7.596,0.838 5.5,-0.773 11.725,-4.049 11.725,-4.049 l 0.957,0.468 -1.28,-2.321 0.311,1.189 c 0,0 -2.929,-0.055 -6.063,-0.193 -3.074,-0.137 -18.178,-2.842 -18.178,-2.842 z"
       inkscape:connector-curvature="0" />
    <rect
       id="SVGID_13_-9"
       x="933.78699"
       y="472.621"
       width="0.93199998"
       height="2.2490001" />
    <rect
       id="SVGID_15_-9"
       x="953.59802"
       y="472.621"
       width="0.93199998"
       height="2.2490001" />
    <rect
       id="SVGID_17_-3"
       x="938.81"
       y="433.53"
       width="13.245"
       height="6.0799999" />
    <clipPath
       clipPathUnits="userSpaceOnUse"
       id="clipPath2127">
      <circle
         style="opacity:1;vector-effect:none;fill:#ff0000;fill-opacity:0.42523367;fill-rule:evenodd;stroke:none;stroke-width:0.47218823;stroke-linecap:butt;stroke-linejoin:bevel;stroke-miterlimit:4;stroke-dasharray:none;stroke-dashoffset:0;stroke-opacity:1;paint-order:markers stroke fill"
         id="circle2129"
         cx="110.3532"
         cy="152.86903"
         r="11.636067" />
    </clipPath>
  </defs>
  <sodipodi:namedview
     id="base"
     pagecolor="#ffffff"
     bordercolor="#666666"
     borderopacity="1.0"
     inkscape:pageopacity="0.0"
     inkscape:pageshadow="2"
     inkscape:zoom="1.979899"
     inkscape:cx="161.04307"
     inkscape:cy="99.537766"
     inkscape:document-units="mm"
     inkscape:current-layer="layer1"
     showgrid="false"
     fit-margin-top="0"
     fit-margin-left="0"
     fit-margin-right="0"
     fit-margin-bottom="0"
     inkscape:window-width="1920"
     inkscape:window-height="1017"
     inkscape:window-x="-8"
     inkscape:window-y="-8"
     inkscape:window-maximized="1" />
  <metadata
     id="metadata3913">
    <rdf:RDF>
      <cc:Work
         rdf:about="">
        <dc:format>image/svg+xml</dc:format>
        <dc:type
           rdf:resource="http://purl.org/dc/dcmitype/StillImage" />
        <dc:title></dc:title>
      </cc:Work>
    </rdf:RDF>
  </metadata>
  <g
     inkscape:label="Layer 1"
     inkscape:groupmode="layer"
     id="layer1"
     transform="translate(-51.122444,-137.96767)">
    <circle
       style="opacity:1;vector-effect:none;fill:#393939;fill-opacity:1;fill-rule:evenodd;stroke:none;stroke-width:0.90107036;stroke-linecap:butt;stroke-linejoin:bevel;stroke-miterlimit:4;stroke-dasharray:none;stroke-dashoffset:0;stroke-opacity:1;paint-order:markers stroke fill"
       id="path4672"
       cx="73.327393"
       cy="160.17262"
       r="22.204948" />
    <g
       id="g1945"
       transform="matrix(1.9082864,0,0,1.9082864,-137.25813,-131.54528)"
       clip-path="url(#clipPath2127)">
      <path
         id="path2"
         d="m 105.13516,154.20521 c 0,0 -0.86228,-3.95684 -1.04114,-6.11637 -0.14499,-1.74863 1.99575,-3.64834 4.75403,-3.88409 4.77944,-0.40851 7.23212,1.74731 7.23212,3.34487 -0.12673,2.95433 -0.64955,7.26307 -0.64955,7.26307 0,0 -6.61749,-2.17064 -10.29546,-0.60748"
         style="fill:#e6b48c;stroke-width:0.26458332"
         inkscape:connector-curvature="0" />
      <path
         id="path4"
         d="m 113.90212,160.22289 c -0.003,-0.0212 -0.79322,1.93199 -0.23151,2.42121 0.88556,0.77046 1.13665,4.43547 1.12713,4.69688 -0.0167,0.43947 0.68659,-0.0368 0.68659,0.14869 0,-0.25294 0.56489,-5.95577 -1.58221,-7.26678"
         style="fill:#fbc59a;stroke-width:0.26458332"
         inkscape:connector-curvature="0" />
      <path
         id="path6"
         d="m 113.81561,169.02188 c 0.002,5.3e-4 -0.0606,-0.0103 0.0698,-0.29792 0.13335,-0.28602 0.23468,-0.53737 0.33602,-0.87657 0.10477,-0.33787 0.14684,-0.42704 0.36062,-0.54187 0.32729,-0.17462 0.95383,-0.16298 1.14195,-0.0339 0.18097,0.13441 0.48709,0.7911 0.61515,1.09326 0.1016,0.31512 0.31935,1.08426 0.26353,1.18612 -0.0688,0.10557 -0.31644,0.0577 -0.31644,0.0572 -0.005,10e-4 -0.11272,-0.47095 -0.16193,-0.63711 -0.0209,0.004 0.1524,1.0115 0.15425,1.25783 -0.013,0.13732 -0.31168,0.17065 -0.33893,0.0757 -0.0579,-0.1696 -0.13467,-0.83714 -0.16695,-1.04802 -0.0418,-0.21061 -0.0392,-0.21113 -0.0399,-0.21087 -0.0325,0.002 0.0693,1.26709 -0.006,1.51183 -2.6e-4,-0.002 -0.26141,0.19526 -0.4027,-0.0109 -0.005,-7.9e-4 -0.0492,-0.65061 -0.0849,-1.11548 -0.0389,-0.46673 -0.005,-0.51779 -0.0296,-0.46726 -0.0296,0.054 0.0238,0.85672 -0.0958,1.44145 -2.6e-4,0 -0.028,0.13653 -0.19208,0.1442 -0.16404,0.007 -0.18892,-0.10821 -0.20664,-0.24553 -0.0209,-0.1606 0.0389,-0.5678 0.0116,-1.10464 -0.0262,-0.53763 -0.10266,-0.89402 -0.10478,-0.89455 -0.007,-0.003 -0.26299,0.63129 -0.41936,0.76993 -0.2122,0.17357 -0.38709,-0.0513 -0.38656,-0.0529"
         style="fill:#fbc59a;stroke-width:0.26458332"
         inkscape:connector-curvature="0" />
      <path
         id="path8"
         d="m 105.94161,160.22289 c 0.003,-0.0212 0.79322,1.93199 0.23124,2.42121 -0.88503,0.77046 -1.13612,4.43547 -1.12659,4.69688 0.0161,0.43947 -0.6866,-0.0368 -0.6866,0.14869 0,-0.98848 -0.56515,-5.9555 1.58195,-7.26678"
         style="fill:#fbc59a;stroke-width:0.26458332"
         inkscape:connector-curvature="0" />
      <path
         id="path10"
         d="m 106.02786,169.02188 c -0.001,5.3e-4 0.0606,-0.0103 -0.0696,-0.29792 -0.13335,-0.28602 -0.23442,-0.53737 -0.33576,-0.87657 -0.10504,-0.33787 -0.14657,-0.42704 -0.36062,-0.54187 -0.32756,-0.17462 -0.95383,-0.16298 -1.14221,-0.0339 -0.18097,0.13441 -0.48683,0.7911 -0.61542,1.09326 -0.10107,0.31512 -0.31935,1.08426 -0.26352,1.18612 0.0688,0.10557 0.3167,0.0577 0.31697,0.0572 0.004,10e-4 0.11218,-0.47095 0.16166,-0.63711 0.0209,0.004 -0.1524,1.0115 -0.15399,1.25783 0.013,0.13732 0.31141,0.17065 0.33867,0.0757 0.0582,-0.1696 0.13493,-0.83714 0.16695,-1.04802 0.0418,-0.21061 0.0392,-0.21113 0.04,-0.21087 0.0325,0.002 -0.0688,1.26709 0.007,1.51183 2.6e-4,-0.002 0.26141,0.19526 0.40269,-0.0109 0.005,-7.9e-4 0.0492,-0.65061 0.0849,-1.11548 0.0394,-0.46673 0.005,-0.51779 0.0302,-0.46726 0.0294,0.054 -0.0238,0.85672 0.0955,1.44145 2.7e-4,0 0.0286,0.13653 0.19236,0.1442 0.16404,0.007 0.18864,-0.10821 0.20664,-0.24553 0.0206,-0.1606 -0.0392,-0.5678 -0.0119,-1.10464 0.0262,-0.53763 0.10265,-0.89402 0.10503,-0.89455 0.007,-0.003 0.263,0.63129 0.41937,0.76993 0.21114,0.17357 0.38603,-0.0513 0.3855,-0.0529"
         style="fill:#fbc59a;stroke-width:0.26458332"
         inkscape:connector-curvature="0" />
      <path
         id="path12"
         d="m 113.81243,166.24587 -0.35824,1.9939 c -0.0222,0.12568 -0.12462,0.21193 -0.24686,0.24447 -0.86148,0.2286 -2.61303,0.41434 -4.38124,0.5469 -1.42319,0.10662 -2.61778,0.0532 -3.15806,-0.0206 -0.16828,-0.023 -0.27332,-0.23151 -0.23098,-0.40084 l 0.36671,-1.8288 z"
         style="fill:#333333;stroke-width:0.26458332"
         inkscape:connector-curvature="0" />
      <path
         id="path14"
         d="m 112.34346,170.81813 c -0.15927,0.99007 -0.44423,1.92643 -0.42994,1.98835 0.0198,0.0844 0.42598,0.16086 0.42598,0.16086 0,0 0.14499,-0.64505 0.41592,-1.49913 0.0511,-0.16192 0.11007,-0.38708 0.17092,-0.64478 -0.20108,0.0474 -0.39767,0.0418 -0.58288,-0.005"
         style="fill:#fbc59a;stroke-width:0.26458332"
         inkscape:connector-curvature="0" />
      <path
         id="path16"
         d="m 112.32283,170.94196 c 0.19473,-0.005 0.38946,-0.0148 0.58287,-0.0315 0.26538,-1.09484 0.59135,-2.88872 0.59135,-2.88872 0,0 0.0111,-0.57309 -0.40508,-0.53763 -0.41645,0.0352 -1.08056,0.67363 -1.08056,0.67363 0,0 0.43948,0.55351 0.43577,1.56051 -0.002,0.38312 -0.0534,0.81121 -0.12435,1.2237"
         style="fill:#333333;stroke-width:0.26458332"
         inkscape:connector-curvature="0" />
      <path
         id="path18"
         d="m 105.11214,170.61335 c -0.0812,-0.0341 -0.16219,-0.0685 -0.24342,-0.10266 l -0.67336,2.24684 0.28072,-0.13123 0.15531,0.18097 c 0,0 0.50033,-1.26418 0.95091,-2.16244 -0.15663,0.0209 -0.31379,0.0106 -0.47016,-0.0315"
         style="fill:#fbc59a;stroke-width:0.26458332"
         inkscape:connector-curvature="0" />
      <path
         id="path20"
         d="m 105.53335,170.74246 c 0.0413,-0.0836 0.0823,-0.16536 0.12224,-0.24262 0.46805,-0.90011 1.07421,-1.46791 1.07421,-1.46791 0,0 0.15505,-0.45402 -0.50165,-0.72813 -0.65643,-0.27385 -0.7829,0.28284 -0.7829,0.28284 l -0.60616,2.02168 c 0.20452,0.0945 0.4527,0.12144 0.69426,0.13414"
         style="fill:#333333;stroke-width:0.26458332"
         inkscape:connector-curvature="0" />
      <path
         id="path22"
         d="m 112.93137,173.37983 c 0,0 -0.24474,-0.36857 -0.4408,-0.59902 -0.17727,-0.20822 -0.4101,-0.14631 -0.4101,-0.14631 l -0.26591,0.19632 c 0,0 -0.22913,0.58711 -0.0712,0.66807 0.15743,0.0812 0.4789,0.18151 0.6985,0.15029 0.22014,-0.0312 0.48948,-0.26935 0.48948,-0.26935"
         style="fill:#db4343;stroke-width:0.26458332"
         inkscape:connector-curvature="0" />
      <g
         style="opacity:0.2"
         id="g34"
         transform="matrix(0.26458333,0,0,0.26458333,-139.95103,27.534885)">
        <g
           id="g32">
          <defs
             id="defs25">
            <rect
               height="3.184"
               width="4.612"
               y="549.12097"
               x="951.16498"
               id="rect1771" />
          </defs>
          <clipPath
             id="clipPath1015">
            <use
               height="100%"
               width="100%"
               y="0"
               x="0"
               style="overflow:visible"
               id="use1013"
               overflow="visible"
               xlink:href="#SVGID_1_-8" />
          </clipPath>
          <path
             style="fill:#010101"
             inkscape:connector-curvature="0"
             id="path30"
             d="m 954.136,549.121 c 0.081,0.097 1.313,1.981 1.313,1.981 0,0 -0.65,0.576 -1.727,0.681 -1.076,0.105 -2.558,-0.205 -2.558,-0.205 0,0 1.953,0.836 2.667,0.713 0.714,-0.123 1.945,-1.066 1.945,-1.066 z"
             clip-path="url(#SVGID_2_-95)" />
        </g>
      </g>
      <path
         id="path36"
         d="m 103.55877,173.27426 c 0,0 0.30983,-0.34131 0.54583,-0.55007 0.21379,-0.18865 0.43313,-0.10424 0.43313,-0.10424 l 0.2278,0.22119 c 0,0 0.12012,0.60404 -0.0511,0.6686 -0.17118,0.0651 -0.50773,0.13229 -0.71993,0.0796 -0.21219,-0.0521 -0.43577,-0.31512 -0.43577,-0.31512"
         style="fill:#db4343;stroke-width:0.26458332"
         inkscape:connector-curvature="0" />
      <g
         style="opacity:0.2"
         id="g48"
         transform="matrix(0.26458333,0,0,0.26458333,-139.95103,27.534885)">
        <g
           id="g46">
          <defs
             id="defs39">
            <rect
               height="1.375"
               width="4.507"
               y="550.737"
               x="920.69897"
               id="rect1780" />
          </defs>
          <clipPath
             id="clipPath1025">
            <use
               height="100%"
               width="100%"
               y="0"
               x="0"
               style="overflow:visible"
               id="use1023"
               overflow="visible"
               xlink:href="#SVGID_3_-8" />
          </clipPath>
          <path
             style="fill:#010101"
             inkscape:connector-curvature="0"
             id="path44"
             d="m 921.045,550.737 c 0,0 0.541,0.635 1.588,0.847 1.048,0.211 2.572,0.049 2.572,0.049 0,0 -2.088,0.636 -2.773,0.442 -0.685,-0.192 -1.733,-1.249 -1.733,-1.249 z"
             clip-path="url(#SVGID_4_-5)" />
        </g>
      </g>
      <path
         id="path50"
         d="m 114.07701,160.15754 c 0,0 0.0609,2.66753 -0.0405,4.39817 -0.0775,1.31366 -0.2241,1.7309 -0.2241,1.7309 l -8.04307,0.48869 c 0,0 0.0992,-0.84323 0.12595,-1.6891 0.0574,-1.79282 -0.28893,-4.27699 -0.28893,-4.27699 l 0.73184,-2.09365 z"
         style="fill:#676767;stroke-width:0.26458332"
         inkscape:connector-curvature="0" />
      <path
         id="path52"
         d="m 114.14819,154.03059 c 0,0 0.36327,-0.86916 0.83502,-0.9234 0.56065,-0.0643 1.17713,0.0878 1.21285,0.20981 0.0357,0.12171 0.22014,1.46024 -0.3802,2.07169 -0.16352,0.16669 -0.79772,0.55563 -0.89271,0.78237 -0.0955,0.22702 -0.32861,0.449 -0.70326,0.41858 -0.41222,-0.0336 -0.41328,-0.41408 -0.41328,-0.41408 z"
         style="fill:#d78263;stroke-width:0.26458332"
         inkscape:connector-curvature="0" />
      <path
         id="path54"
         d="m 106.806,156.51317 c 0,0 -0.19235,0.21934 -0.55854,0.30559 -0.36671,0.086 -1.71608,-0.94138 -1.79678,-1.22555 -0.081,-0.28416 -0.37862,-1.9804 -0.12197,-2.16296 0.25691,-0.1823 1.72931,-0.11378 2.09708,0.1307 0.36725,0.24474 0.39132,2.8067 0.39132,2.8067 z"
         style="fill:#d78263;stroke-width:0.26458332"
         inkscape:connector-curvature="0" />
      <path
         id="path56"
         d="m 104.44989,148.05894 c 0.005,0.0741 1.30095,11.85889 1.30095,11.85889 0,0 1.62296,2.22514 4.3389,2.26033 2.43364,0.0315 4.10872,-2.02565 4.10872,-2.02565 0,0 1.13506,-6.93869 1.18613,-7.72768 0.0513,-0.78899 0.35057,-3.48827 0.22992,-4.6445 -0.22357,-2.14524 -3.26231,-3.62717 -6.30344,-3.42132 -4.15792,0.28125 -4.90008,3.14748 -4.86118,3.69993"
         style="fill:#fbc59a;stroke-width:0.26458332"
         inkscape:connector-curvature="0" />
      <path
         id="path58"
         d="m 104.72426,146.64686 c 0,0 6.46694,1.80843 10.45924,-0.2757 0,0 -0.89694,-1.59411 -3.48694,-1.96188 -2.59027,-0.36804 -5.5073,0.0209 -6.9723,2.23758"
         style="fill:#e6b48c;stroke-width:0.26458332"
         inkscape:connector-curvature="0" />
      <g
         style="opacity:0.4"
         id="g70"
         transform="matrix(0.26458333,0,0,0.26458333,-139.95103,27.534885)">
        <g
           id="g68">
          <defs
             id="defs61">
            <rect
               height="58.463001"
               width="27.424"
               y="450.427"
               x="923.71802"
               id="rect1793" />
          </defs>
          <clipPath
             id="clipPath1039">
            <use
               height="100%"
               width="100%"
               y="0"
               x="0"
               style="overflow:visible"
               id="use1037"
               overflow="visible"
               xlink:href="#SVGID_5_-42" />
          </clipPath>
          <path
             style="fill:#f79361"
             inkscape:connector-curvature="0"
             id="path66"
             d="m 931.309,498.601 c -1.311,-2.143 -1.587,-40.021 -1.64,-45.032 -1.996,-0.87 -3.239,-1.887 -4.199,-3.142 -1.46,2.435 -1.75,5.097 -1.75,5.097 -0.14,0.244 4.917,44.821 4.917,44.821 0,0 6.134,8.41 16.4,8.544 2.218,0.028 4.268,-0.405 6.104,-1.075 -1.326,-0.002 -13.091,1.813 -19.832,-9.213"
             clip-path="url(#SVGID_6_-2)" />
        </g>
      </g>
      <g
         style="opacity:0.5"
         id="g92"
         transform="matrix(0.26458333,0,0,0.26458333,-139.95103,27.534885)">
        <g
           id="g90">
          <defs
             id="defs73">
            <rect
               height="6.0370002"
               width="9.6120005"
               y="484.42599"
               x="940.45203"
               id="rect1801" />
          </defs>
          <clipPath
             id="clipPath1048">
            <use
               height="100%"
               width="100%"
               y="0"
               x="0"
               style="overflow:visible"
               id="use1046"
               overflow="visible"
               xlink:href="#SVGID_7_-52" />
          </clipPath>
          <g
             style="opacity:0.7"
             id="g88"
             clip-path="url(#SVGID_8_-8)">
            <g
               id="g86">
              <defs
                 id="defs79">
                <rect
                   height="6.0370002"
                   width="9.6120005"
                   y="484.42599"
                   x="940.45203"
                   id="rect1806" />
              </defs>
              <clipPath
                 id="clipPath1054">
                <use
                   height="100%"
                   width="100%"
                   y="0"
                   x="0"
                   style="overflow:visible"
                   id="use1052"
                   overflow="visible"
                   xlink:href="#SVGID_9_-1" />
              </clipPath>
              <polygon
                 style="fill:#f79361"
                 id="polygon84"
                 points="941.374,486.859 942.764,484.426 940.873,486.511 940.451,488.679 942.293,489.873 945.827,490.463 950.063,486.859 "
                 clip-path="url(#SVGID_10_-3)" />
            </g>
          </g>
        </g>
      </g>
      <path
         id="path94"
         d="m 105.49869,151.48159 0.10742,-0.46276 c 0,0 0.53208,-0.21881 1.58142,-0.34025 1.0496,-0.12118 1.92987,0.0852 1.92987,0.0852 l -0.22913,1.39515 c 0,0 -1.02923,-0.38126 -1.51236,-0.49212 -0.42201,-0.0971 -1.87722,-0.18521 -1.87722,-0.18521"
         style="fill:#c38454;stroke-width:0.26458332"
         inkscape:connector-curvature="0" />
      <path
         id="path96"
         d="m 111.18671,150.93179 0.30506,-1.20465 c 1.14194,0.17542 2.09815,0.81888 3.23506,1.28905 l -0.13573,0.47545 z"
         style="fill:#c38454;stroke-width:0.26458332"
         inkscape:connector-curvature="0" />
      <path
         id="path98"
         d="m 107.03222,157.86149 c 0,0 3.99627,0.7157 4.80986,0.75168 0.82894,0.0365 1.6039,0.0513 1.6039,0.0513 l -0.082,-0.31459 0.33841,0.6141 -0.25295,-0.12383 c 0,0 -1.64756,0.86678 -3.10276,1.07103 -1.40547,0.19738 -1.64783,0.0294 -2.00952,-0.22172 -0.59663,-0.4138 -1.14617,-1.59914 -1.14617,-1.59914 z"
         style="fill:#572215;stroke-width:0.26458332"
         inkscape:connector-curvature="0" />
      <path
         id="path100"
         d="m 107.03222,157.86149 c 0,0 3.99627,0.7157 4.80986,0.75168 0.82894,0.0365 1.6039,0.0513 1.6039,0.0513 l -0.082,-0.31459 0.33841,0.6141 -0.25295,-0.12383 c 0,0 -1.64756,0.86678 -3.10276,1.07103 -1.40547,0.19738 -1.64783,0.0294 -2.00952,-0.22172 -0.59663,-0.4138 -1.14617,-1.59914 -1.14617,-1.59914 z"
         style="fill:#b8694f;stroke-width:0.26458332"
         inkscape:connector-curvature="0" />
      <g
         id="g110"
         transform="matrix(0.26458333,0,0,0.26458333,-139.95103,27.534885)">
        <defs
           id="defs103">
          <path
             inkscape:connector-curvature="0"
             d="m 934.081,493.437 c 0,0 2.077,4.481 4.332,6.045 1.367,0.948 2.283,1.584 7.596,0.838 5.5,-0.773 11.725,-4.049 11.725,-4.049 l 0.957,0.468 -1.28,-2.321 0.311,1.189 c 0,0 -2.929,-0.055 -6.063,-0.193 -3.074,-0.137 -18.178,-2.842 -18.178,-2.842 z"
             id="path1820" />
        </defs>
        <clipPath
           id="clipPath1069">
          <use
             height="100%"
             width="100%"
             y="0"
             x="0"
             style="overflow:visible"
             id="use1067"
             overflow="visible"
             xlink:href="#SVGID_11_-2" />
        </clipPath>
        <path
           style="fill:#f15e62"
           inkscape:connector-curvature="0"
           id="path108"
           d="m 945.748,499.978 c 1.015,-0.134 2.323,-0.249 3.433,-0.634 -0.058,-0.365 -1.382,-1.303 -2.925,-1.403 -1.559,-0.1 -2.222,0.709 -2.222,0.709 0,0 -0.539,-0.642 -1.989,-0.536 -1.776,0.13 -2.457,1.078 -2.698,1.588 1.817,0.875 4.748,0.493 6.401,0.276"
           clip-path="url(#SVGID_12_-0)" />
      </g>
      <polygon
         id="polygon112"
         points="932.901,493.361 934.187,491.35 932.736,492.037 "
         style="fill:#b8694f"
         transform="matrix(0.26458333,0,0,0.26458333,-139.95103,27.534885)" />
      <path
         id="path114"
         d="m 107.34469,158.06998 0.4826,0.81333 c 0,0 1.02341,0.16378 2.02195,0.18177 0.99113,0.0177 2.42834,-0.3011 2.42834,-0.3011 0,0 -0.53578,-0.006 -1.03161,-0.0804 -0.17647,-0.0259 -3.90128,-0.61357 -3.90128,-0.61357"
         style="fill:#fff9f5;stroke-width:0.26458332"
         inkscape:connector-curvature="0" />
      <path
         id="path116"
         d="m 106.99835,153.15429 c 0,-0.4699 0.18336,-0.85064 0.40984,-0.85064 0.22648,0 0.41037,0.381 0.41037,0.8509 0,0.4699 -0.18362,0.85064 -0.40984,0.85064 -0.22675,-2.7e-4 -0.41037,-0.38127 -0.41037,-0.8509"
         style="fill:#224352;stroke-width:0.26458332"
         inkscape:connector-curvature="0" />
      <g
         style="opacity:0.5"
         id="g128"
         transform="matrix(0.26458333,0,0,0.26458333,-139.95103,27.534885)">
        <g
           id="g126">
          <defs
             id="defs119">
            <rect
               height="2.2490001"
               width="0.93199998"
               y="472.621"
               x="933.78699"
               id="rect1830" />
          </defs>
          <clipPath
             id="clipPath1080">
            <use
               height="100%"
               width="100%"
               y="0"
               x="0"
               style="overflow:visible"
               id="use1078"
               overflow="visible"
               xlink:href="#SVGID_13_-9" />
          </clipPath>
          <path
             style="fill:#ffffff"
             inkscape:connector-curvature="0"
             id="path124"
             d="m 933.787,473.746 c 0,-0.621 0.208,-1.124 0.466,-1.124 0.257,0 0.466,0.503 0.466,1.124 0,0.621 -0.208,1.125 -0.466,1.125 -0.257,0 -0.466,-0.504 -0.466,-1.125"
             clip-path="url(#SVGID_14_-3)" />
        </g>
      </g>
      <path
         id="path130"
         d="m 112.24001,153.15429 c -2.6e-4,-0.4699 0.18309,-0.85064 0.41011,-0.85064 0.22595,0 0.4101,0.381 0.4101,0.8509 2.7e-4,0.4699 -0.18362,0.85064 -0.40984,0.85064 -0.22675,-2.7e-4 -0.41037,-0.38127 -0.41037,-0.8509"
         style="fill:#224352;stroke-width:0.26458332"
         inkscape:connector-curvature="0" />
      <g
         style="opacity:0.5"
         id="g142"
         transform="matrix(0.26458333,0,0,0.26458333,-139.95103,27.534885)">
        <g
           id="g140">
          <defs
             id="defs133">
            <rect
               height="2.2490001"
               width="0.93199998"
               y="472.621"
               x="953.59802"
               id="rect1839" />
          </defs>
          <clipPath
             id="clipPath1090">
            <use
               height="100%"
               width="100%"
               y="0"
               x="0"
               style="overflow:visible"
               id="use1088"
               overflow="visible"
               xlink:href="#SVGID_15_-9" />
          </clipPath>
          <path
             style="fill:#ffffff"
             inkscape:connector-curvature="0"
             id="path138"
             d="m 953.598,473.746 c -10e-4,-0.621 0.208,-1.124 0.466,-1.124 0.258,0 0.466,0.503 0.466,1.124 10e-4,0.621 -0.208,1.125 -0.466,1.125 -0.258,0 -0.466,-0.504 -0.466,-1.125"
             clip-path="url(#SVGID_16_-3)" />
        </g>
      </g>
      <polygon
         id="polygon144"
         points="945.926,488.597 941.375,486.859 942.764,484.426 943.889,476.085 945.619,472.957 947.47,476.085 948.673,484.426 950.063,486.859 "
         style="fill:#fdcea9"
         transform="matrix(0.26458333,0,0,0.26458333,-139.95103,27.534885)" />
      <path
         id="path146"
         d="m 109.02982,147.06358 c 0,0 -0.42518,-3.0652 -0.68977,-4.38335 0,0 0.10293,-0.0609 0.28364,-0.13997 0.0907,0.0796 0.20214,0.28522 0.20214,0.28522 0,0 0.0871,-0.24209 0.28839,-0.46593 0.72205,-0.21828 1.84759,-0.35904 2.93476,0.32068 l -0.68924,4.38335 c -2.6e-4,0 -1.36445,0.55747 -2.32992,0"
         style="fill:#d55a83;stroke-width:0.26458332"
         inkscape:connector-curvature="0" />
      <g
         style="opacity:0.5"
         id="g158"
         transform="matrix(0.26458333,0,0,0.26458333,-139.95103,27.534885)">
        <g
           id="g156">
          <defs
             id="defs149">
            <rect
               height="6.0799999"
               width="13.245"
               y="433.53"
               x="938.81"
               id="rect1849" />
          </defs>
          <clipPath
             id="clipPath1101">
            <use
               height="100%"
               width="100%"
               y="0"
               x="0"
               style="overflow:visible"
               id="use1099"
               overflow="visible"
               xlink:href="#SVGID_17_-3" />
          </clipPath>
          <path
             style="fill:#f16998"
             inkscape:connector-curvature="0"
             id="path154"
             d="m 941.285,434.264 c -0.284,0.435 -0.689,0.963 -1.016,2.274 -0.188,-0.876 -0.704,-1.509 -0.78,-1.568 -0.436,0.205 -0.68,0.348 -0.68,0.348 0.225,1.119 0.425,2.052 1.07,3.066 2.563,1.694 8.558,1.634 11.458,-0.192 l 0.718,-2.874 c -4.033,-2.52 -8.21,-1.881 -10.77,-1.054"
             clip-path="url(#SVGID_18_-5)" />
        </g>
      </g>
    </g>
  </g>
</svg>
