<?xml version="1.0" encoding="UTF-8" standalone="no"?>
<!-- Created with Inkscape (http://www.inkscape.org/) -->

<svg
   xmlns:dc="http://purl.org/dc/elements/1.1/"
   xmlns:cc="http://creativecommons.org/ns#"
   xmlns:rdf="http://www.w3.org/1999/02/22-rdf-syntax-ns#"
   xmlns:svg="http://www.w3.org/2000/svg"
   xmlns="http://www.w3.org/2000/svg"
   xmlns:xlink="http://www.w3.org/1999/xlink"
   xmlns:sodipodi="http://sodipodi.sourceforge.net/DTD/sodipodi-0.dtd"
   xmlns:inkscape="http://www.inkscape.org/namespaces/inkscape"
   width="44.409897mm"
   height="44.409897mm"
   viewBox="0 0 44.409897 44.409897"
   version="1.1"
   id="svg3916"
   inkscape:version="0.92.4 (5da689c313, 2019-01-14)"
   sodipodi:docname="avatar7.svg">
  <defs
     id="defs3910">
    <clipPath
       clipPathUnits="userSpaceOnUse"
       id="clipPath3897">
      <circle
         style="opacity:0.5;vector-effect:none;fill:#4d4d4d;fill-opacity:1;fill-rule:evenodd;stroke:none;stroke-width:0.90107036;stroke-linecap:butt;stroke-linejoin:bevel;stroke-miterlimit:4;stroke-dasharray:none;stroke-dashoffset:0;stroke-opacity:1;paint-order:markers stroke fill"
         id="circle3899"
         cx="231.51881"
         cy="173.94919"
         r="22.204948" />
    </clipPath>
    <clipPath
       id="SVGID_18_">
      <use
         xlink:href="#SVGID_17_"
         overflow="visible"
         id="use159"
         style="overflow:visible"
         x="0"
         y="0"
         width="100%"
         height="100%" />
    </clipPath>
    <clipPath
       id="SVGID_16_">
      <use
         xlink:href="#SVGID_15_"
         overflow="visible"
         id="use145"
         style="overflow:visible"
         x="0"
         y="0"
         width="100%"
         height="100%" />
    </clipPath>
    <clipPath
       id="SVGID_14_">
      <use
         xlink:href="#SVGID_13_"
         overflow="visible"
         id="use127"
         style="overflow:visible"
         x="0"
         y="0"
         width="100%"
         height="100%" />
    </clipPath>
    <clipPath
       id="SVGID_12_">
      <use
         xlink:href="#SVGID_11_"
         overflow="visible"
         id="use113"
         style="overflow:visible"
         x="0"
         y="0"
         width="100%"
         height="100%" />
    </clipPath>
    <clipPath
       id="SVGID_8_">
      <use
         xlink:href="#SVGID_7_"
         overflow="visible"
         id="use81"
         style="overflow:visible"
         x="0"
         y="0"
         width="100%"
         height="100%" />
    </clipPath>
    <clipPath
       id="SVGID_10_">
      <use
         xlink:href="#SVGID_9_"
         overflow="visible"
         id="use87"
         style="overflow:visible"
         x="0"
         y="0"
         width="100%"
         height="100%" />
    </clipPath>
    <clipPath
       id="SVGID_6_">
      <use
         xlink:href="#SVGID_5_"
         overflow="visible"
         id="use65"
         style="overflow:visible"
         x="0"
         y="0"
         width="100%"
         height="100%" />
    </clipPath>
    <clipPath
       id="SVGID_4_">
      <use
         xlink:href="#SVGID_3_"
         overflow="visible"
         id="use41"
         style="overflow:visible"
         x="0"
         y="0"
         width="100%"
         height="100%" />
    </clipPath>
    <clipPath
       id="SVGID_2_">
      <use
         xlink:href="#SVGID_1_"
         overflow="visible"
         id="use27"
         style="overflow:visible"
         x="0"
         y="0"
         width="100%"
         height="100%" />
    </clipPath>
    <rect
       id="SVGID_1_"
       x="966.646"
       y="591.78998"
       width="4.6129999"
       height="3.1800001" />
    <rect
       id="SVGID_3_"
       x="936.18103"
       y="593.40002"
       width="4.507"
       height="1.38" />
    <rect
       id="SVGID_5_"
       x="939.19897"
       y="493.73999"
       width="27.424999"
       height="57.82" />
    <rect
       id="SVGID_7_"
       x="955.93402"
       y="527.09003"
       width="9.6120005"
       height="6.04" />
    <rect
       id="SVGID_9_"
       x="955.93402"
       y="527.09003"
       width="9.6120005"
       height="6.04" />
    <rect
       id="SVGID_11_"
       x="949.26898"
       y="515.28998"
       width="0.93199998"
       height="2.25" />
    <rect
       id="SVGID_13_"
       x="969.08002"
       y="515.28998"
       width="0.93199998"
       height="2.25" />
    <rect
       id="SVGID_15_"
       x="941.59802"
       y="510.79001"
       width="16.566"
       height="16.559999" />
    <rect
       id="SVGID_17_"
       x="964.06403"
       y="510.79001"
       width="16.566"
       height="16.559999" />
    <clipPath
       id="SVGID_18_-8">
      <use
         xlink:href="#SVGID_17_-1"
         overflow="visible"
         id="use175"
         style="overflow:visible"
         x="0"
         y="0"
         width="100%"
         height="100%" />
    </clipPath>
    <clipPath
       id="SVGID_16_-1">
      <use
         xlink:href="#SVGID_15_-5"
         overflow="visible"
         id="use161"
         style="overflow:visible"
         x="0"
         y="0"
         width="100%"
         height="100%" />
    </clipPath>
    <clipPath
       id="SVGID_14_-1">
      <use
         xlink:href="#SVGID_13_-6"
         overflow="visible"
         id="use147"
         style="overflow:visible"
         x="0"
         y="0"
         width="100%"
         height="100%" />
    </clipPath>
    <clipPath
       id="SVGID_12_-4">
      <use
         xlink:href="#SVGID_11_-3"
         overflow="visible"
         id="use131"
         style="overflow:visible"
         x="0"
         y="0"
         width="100%"
         height="100%" />
    </clipPath>
    <clipPath
       id="SVGID_10_-2">
      <use
         xlink:href="#SVGID_9_-9"
         overflow="visible"
         id="use117"
         style="overflow:visible"
         x="0"
         y="0"
         width="100%"
         height="100%" />
    </clipPath>
    <clipPath
       id="SVGID_6_-1">
      <use
         xlink:href="#SVGID_5_-4"
         overflow="visible"
         id="use79"
         style="overflow:visible"
         x="0"
         y="0"
         width="100%"
         height="100%" />
    </clipPath>
    <clipPath
       id="SVGID_8_-5">
      <use
         xlink:href="#SVGID_7_-5"
         overflow="visible"
         id="use85"
         style="overflow:visible"
         x="0"
         y="0"
         width="100%"
         height="100%" />
    </clipPath>
    <clipPath
       id="SVGID_4_-3">
      <use
         xlink:href="#SVGID_3_-4"
         overflow="visible"
         id="use43"
         style="overflow:visible"
         x="0"
         y="0"
         width="100%"
         height="100%" />
    </clipPath>
    <clipPath
       id="SVGID_2_-9">
      <use
         xlink:href="#SVGID_1_-1"
         overflow="visible"
         id="use29"
         style="overflow:visible"
         x="0"
         y="0"
         width="100%"
         height="100%" />
    </clipPath>
    <rect
       id="SVGID_1_-1"
       x="963.83398"
       y="599.78998"
       width="4.6110001"
       height="3.1800001" />
    <rect
       id="SVGID_3_-4"
       x="933.36798"
       y="601.40002"
       width="4.506"
       height="1.38" />
    <rect
       id="SVGID_5_-4"
       x="953.12"
       y="535.09003"
       width="9.6120005"
       height="6.04" />
    <rect
       id="SVGID_7_-5"
       x="953.12"
       y="535.09003"
       width="9.6120005"
       height="6.04" />
    <rect
       id="SVGID_9_-9"
       x="946.45599"
       y="523.28998"
       width="0.93099999"
       height="2.25" />
    <rect
       id="SVGID_11_-3"
       x="966.26801"
       y="523.28998"
       width="0.93099999"
       height="2.25" />
    <rect
       id="SVGID_13_-6"
       x="936.242"
       y="521.14001"
       width="19.148001"
       height="10.74" />
    <rect
       id="SVGID_15_-5"
       x="960.91803"
       y="521.14001"
       width="18.105"
       height="10.74" />
    <rect
       id="SVGID_17_-1"
       x="935.51001"
       y="492.51999"
       width="3.1470001"
       height="9.7299995" />
    <clipPath
       id="SVGID_18_-5">
      <use
         xlink:href="#SVGID_17_-3"
         overflow="visible"
         id="use151"
         style="overflow:visible"
         x="0"
         y="0"
         width="100%"
         height="100%" />
    </clipPath>
    <clipPath
       id="SVGID_16_-3">
      <use
         xlink:href="#SVGID_15_-9"
         overflow="visible"
         id="use135"
         style="overflow:visible"
         x="0"
         y="0"
         width="100%"
         height="100%" />
    </clipPath>
    <clipPath
       id="SVGID_14_-3">
      <use
         xlink:href="#SVGID_13_-9"
         overflow="visible"
         id="use121"
         style="overflow:visible"
         x="0"
         y="0"
         width="100%"
         height="100%" />
    </clipPath>
    <clipPath
       id="SVGID_12_-0">
      <use
         xlink:href="#SVGID_11_-2"
         overflow="visible"
         id="use105"
         style="overflow:visible"
         x="0"
         y="0"
         width="100%"
         height="100%" />
    </clipPath>
    <clipPath
       id="SVGID_8_-8">
      <use
         xlink:href="#SVGID_7_-52"
         overflow="visible"
         id="use75"
         style="overflow:visible"
         x="0"
         y="0"
         width="100%"
         height="100%" />
    </clipPath>
    <clipPath
       id="SVGID_10_-3">
      <use
         xlink:href="#SVGID_9_-1"
         overflow="visible"
         id="use81-7"
         style="overflow:visible"
         x="0"
         y="0"
         width="100%"
         height="100%" />
    </clipPath>
    <clipPath
       id="SVGID_6_-2">
      <use
         xlink:href="#SVGID_5_-42"
         overflow="visible"
         id="use63"
         style="overflow:visible"
         x="0"
         y="0"
         width="100%"
         height="100%" />
    </clipPath>
    <clipPath
       id="SVGID_4_-5">
      <use
         xlink:href="#SVGID_3_-8"
         overflow="visible"
         id="use41-3"
         style="overflow:visible"
         x="0"
         y="0"
         width="100%"
         height="100%" />
    </clipPath>
    <clipPath
       id="SVGID_2_-95">
      <use
         xlink:href="#SVGID_1_-8"
         overflow="visible"
         id="use27-8"
         style="overflow:visible"
         x="0"
         y="0"
         width="100%"
         height="100%" />
    </clipPath>
    <rect
       id="SVGID_1_-8"
       x="951.16498"
       y="549.12097"
       width="4.612"
       height="3.184" />
    <rect
       id="SVGID_3_-8"
       x="920.69897"
       y="550.737"
       width="4.507"
       height="1.375" />
    <rect
       id="SVGID_5_-42"
       x="923.71802"
       y="450.427"
       width="27.424"
       height="58.463001" />
    <rect
       id="SVGID_7_-52"
       x="940.45203"
       y="484.42599"
       width="9.6120005"
       height="6.0370002" />
    <rect
       id="SVGID_9_-1"
       x="940.45203"
       y="484.42599"
       width="9.6120005"
       height="6.0370002" />
    <path
       id="SVGID_11_-2"
       d="m 934.081,493.437 c 0,0 2.077,4.481 4.332,6.045 1.367,0.948 2.283,1.584 7.596,0.838 5.5,-0.773 11.725,-4.049 11.725,-4.049 l 0.957,0.468 -1.28,-2.321 0.311,1.189 c 0,0 -2.929,-0.055 -6.063,-0.193 -3.074,-0.137 -18.178,-2.842 -18.178,-2.842 z"
       inkscape:connector-curvature="0" />
    <rect
       id="SVGID_13_-9"
       x="933.78699"
       y="472.621"
       width="0.93199998"
       height="2.2490001" />
    <rect
       id="SVGID_15_-9"
       x="953.59802"
       y="472.621"
       width="0.93199998"
       height="2.2490001" />
    <rect
       id="SVGID_17_-3"
       x="938.81"
       y="433.53"
       width="13.245"
       height="6.0799999" />
    <clipPath
       id="SVGID_24_">
      <use
         xlink:href="#SVGID_23_"
         overflow="visible"
         id="use185"
         style="overflow:visible"
         x="0"
         y="0"
         width="100%"
         height="100%" />
    </clipPath>
    <clipPath
       id="SVGID_26_">
      <use
         xlink:href="#SVGID_25_"
         overflow="visible"
         id="use191"
         style="overflow:visible"
         x="0"
         y="0"
         width="100%"
         height="100%" />
    </clipPath>
    <clipPath
       id="SVGID_22_">
      <use
         xlink:href="#SVGID_21_"
         overflow="visible"
         id="use169"
         style="overflow:visible"
         x="0"
         y="0"
         width="100%"
         height="100%" />
    </clipPath>
    <clipPath
       id="SVGID_20_">
      <use
         xlink:href="#SVGID_19_"
         overflow="visible"
         id="use147-7"
         style="overflow:visible"
         x="0"
         y="0"
         width="100%"
         height="100%" />
    </clipPath>
    <clipPath
       id="SVGID_16_-36">
      <use
         xlink:href="#SVGID_15_-99"
         overflow="visible"
         id="use121-0"
         style="overflow:visible"
         x="0"
         y="0"
         width="100%"
         height="100%" />
    </clipPath>
    <clipPath
       id="SVGID_18_-6">
      <use
         xlink:href="#SVGID_17_-4"
         overflow="visible"
         id="use127-5"
         style="overflow:visible"
         x="0"
         y="0"
         width="100%"
         height="100%" />
    </clipPath>
    <clipPath
       id="SVGID_12_-6">
      <use
         xlink:href="#SVGID_11_-4"
         overflow="visible"
         id="use99"
         style="overflow:visible"
         x="0"
         y="0"
         width="100%"
         height="100%" />
    </clipPath>
    <clipPath
       id="SVGID_14_-0">
      <use
         xlink:href="#SVGID_13_-0"
         overflow="visible"
         id="use105-1"
         style="overflow:visible"
         x="0"
         y="0"
         width="100%"
         height="100%" />
    </clipPath>
    <clipPath
       id="SVGID_8_-3">
      <use
         xlink:href="#SVGID_7_-4"
         overflow="visible"
         id="use71"
         style="overflow:visible"
         x="0"
         y="0"
         width="100%"
         height="100%" />
    </clipPath>
    <clipPath
       id="SVGID_10_-24">
      <use
         xlink:href="#SVGID_9_-11"
         overflow="visible"
         id="use77"
         style="overflow:visible"
         x="0"
         y="0"
         width="100%"
         height="100%" />
    </clipPath>
    <clipPath
       id="SVGID_6_-5">
      <use
         xlink:href="#SVGID_5_-1"
         overflow="visible"
         id="use59"
         style="overflow:visible"
         x="0"
         y="0"
         width="100%"
         height="100%" />
    </clipPath>
    <clipPath
       id="SVGID_4_-1">
      <use
         xlink:href="#SVGID_3_-9"
         overflow="visible"
         id="use43-9"
         style="overflow:visible"
         x="0"
         y="0"
         width="100%"
         height="100%" />
    </clipPath>
    <clipPath
       id="SVGID_2_-7">
      <use
         xlink:href="#SVGID_1_-14"
         overflow="visible"
         id="use31"
         style="overflow:visible"
         x="0"
         y="0"
         width="100%"
         height="100%" />
    </clipPath>
    <rect
       id="SVGID_1_-14"
       x="961.55298"
       y="559.86499"
       width="10.498"
       height="7.4260001" />
    <rect
       id="SVGID_3_-9"
       x="949.33002"
       y="559.211"
       width="10.487"
       height="7.9099998" />
    <rect
       id="SVGID_5_-1"
       x="938.85797"
       y="499.87601"
       width="34.414001"
       height="65.761002" />
    <rect
       id="SVGID_7_-4"
       x="958.81"
       y="535.85797"
       width="3.559"
       height="2.0940001" />
    <rect
       id="SVGID_9_-11"
       x="958.81"
       y="535.85797"
       width="3.559"
       height="2.0940001" />
    <rect
       id="SVGID_11_-4"
       x="950.71899"
       y="539.41602"
       width="0.91500002"
       height="2.411" />
    <rect
       id="SVGID_13_-0"
       x="950.71899"
       y="539.41602"
       width="0.91500002"
       height="2.411" />
    <rect
       id="SVGID_15_-99"
       x="968.01703"
       y="541.44202"
       width="0.82099998"
       height="1.7410001" />
    <rect
       id="SVGID_17_-4"
       x="968.01703"
       y="541.44202"
       width="0.82099998"
       height="1.7410001" />
    <rect
       id="SVGID_19_"
       x="968.737"
       y="523.46399"
       width="0.93300003"
       height="2.2490001" />
    <rect
       id="SVGID_21_"
       x="950.31702"
       y="523.46399"
       width="0.93099999"
       height="2.2490001" />
    <rect
       id="SVGID_23_"
       x="958.94"
       y="559.396"
       width="3.0409999"
       height="6.2410002" />
    <rect
       id="SVGID_25_"
       x="958.94"
       y="559.396"
       width="3.0409999"
       height="6.2410002" />
    <clipPath
       id="SVGID_2_-0">
      <use
         height="100%"
         width="100%"
         y="0"
         x="0"
         style="overflow:visible"
         id="use27-3"
         overflow="visible"
         xlink:href="#SVGID_1_-9" />
    </clipPath>
    <clipPath
       id="SVGID_4_-51">
      <use
         height="100%"
         width="100%"
         y="0"
         x="0"
         style="overflow:visible"
         id="use41-35"
         overflow="visible"
         xlink:href="#SVGID_3_-2" />
    </clipPath>
    <clipPath
       id="SVGID_6_-3">
      <use
         height="100%"
         width="100%"
         y="0"
         x="0"
         style="overflow:visible"
         id="use65-0"
         overflow="visible"
         xlink:href="#SVGID_5_-3" />
    </clipPath>
    <clipPath
       id="SVGID_8_-89">
      <use
         height="100%"
         width="100%"
         y="0"
         x="0"
         style="overflow:visible"
         id="use77-2"
         overflow="visible"
         xlink:href="#SVGID_7_-6" />
    </clipPath>
    <clipPath
       id="SVGID_10_-9">
      <use
         height="100%"
         width="100%"
         y="0"
         x="0"
         style="overflow:visible"
         id="use91"
         overflow="visible"
         xlink:href="#SVGID_9_-2" />
    </clipPath>
    <clipPath
       id="SVGID_12_-49">
      <use
         height="100%"
         width="100%"
         y="0"
         x="0"
         style="overflow:visible"
         id="use97"
         overflow="visible"
         xlink:href="#SVGID_11_-1" />
    </clipPath>
    <clipPath
       id="SVGID_14_-6">
      <use
         height="100%"
         width="100%"
         y="0"
         x="0"
         style="overflow:visible"
         id="use123"
         overflow="visible"
         xlink:href="#SVGID_13_-3" />
    </clipPath>
    <clipPath
       id="SVGID_16_-8">
      <use
         height="100%"
         width="100%"
         y="0"
         x="0"
         style="overflow:visible"
         id="use137"
         overflow="visible"
         xlink:href="#SVGID_15_-0" />
    </clipPath>
    <rect
       height="3.184"
       width="4.612"
       y="598.18402"
       x="966.96899"
       id="SVGID_1_-9" />
    <rect
       height="1.374"
       width="4.506"
       y="599.80103"
       x="936.50299"
       id="SVGID_3_-2" />
    <rect
       height="11.623"
       width="34.061001"
       y="492.20901"
       x="944.789"
       id="SVGID_5_-3" />
    <rect
       height="57.259998"
       width="35.272999"
       y="500.69299"
       x="939.63702"
       id="SVGID_7_-6" />
    <rect
       height="6.0370002"
       width="9.6110001"
       y="533.48901"
       x="956.25598"
       id="SVGID_9_-2" />
    <rect
       height="6.0370002"
       width="9.6110001"
       y="533.48901"
       x="956.25598"
       id="SVGID_11_-1" />
    <rect
       height="2.2479999"
       width="0.93099999"
       y="521.685"
       x="949.591"
       id="SVGID_13_-3" />
    <rect
       height="2.2479999"
       width="0.93099999"
       y="521.685"
       x="969.40198"
       id="SVGID_15_-0" />
    <clipPath
       clipPathUnits="userSpaceOnUse"
       id="clipPath2789">
      <circle
         style="opacity:1;vector-effect:none;fill:#ff0000;fill-opacity:0.42523367;fill-rule:evenodd;stroke:none;stroke-width:1.97800863;stroke-linecap:butt;stroke-linejoin:bevel;stroke-miterlimit:4;stroke-dasharray:none;stroke-dashoffset:0;stroke-opacity:1;paint-order:markers stroke fill"
         id="circle2791"
         cx="959.96332"
         cy="523.89642"
         r="48.743786" />
    </clipPath>
  </defs>
  <sodipodi:namedview
     id="base"
     pagecolor="#ffffff"
     bordercolor="#666666"
     borderopacity="1.0"
     inkscape:pageopacity="0.0"
     inkscape:pageshadow="2"
     inkscape:zoom="1.979899"
     inkscape:cx="161.04307"
     inkscape:cy="99.537766"
     inkscape:document-units="mm"
     inkscape:current-layer="layer1"
     showgrid="false"
     fit-margin-top="0"
     fit-margin-left="0"
     fit-margin-right="0"
     fit-margin-bottom="0"
     inkscape:window-width="1920"
     inkscape:window-height="1017"
     inkscape:window-x="-8"
     inkscape:window-y="-8"
     inkscape:window-maximized="1" />
  <metadata
     id="metadata3913">
    <rdf:RDF>
      <cc:Work
         rdf:about="">
        <dc:format>image/svg+xml</dc:format>
        <dc:type
           rdf:resource="http://purl.org/dc/dcmitype/StillImage" />
        <dc:title></dc:title>
      </cc:Work>
    </rdf:RDF>
  </metadata>
  <g
     inkscape:label="Layer 1"
     inkscape:groupmode="layer"
     id="layer1"
     transform="translate(-51.122444,-137.96767)">
    <circle
       style="opacity:1;vector-effect:none;fill:#393939;fill-opacity:1;fill-rule:evenodd;stroke:none;stroke-width:0.90107036;stroke-linecap:butt;stroke-linejoin:bevel;stroke-miterlimit:4;stroke-dasharray:none;stroke-dashoffset:0;stroke-opacity:1;paint-order:markers stroke fill"
       id="path4672"
       cx="73.327393"
       cy="160.17262"
       r="22.204948" />
    <g
       transform="matrix(0.45554421,0,0,0.45554421,-363.97835,-78.48536)"
       id="g1061"
       clip-path="url(#clipPath2789)">
      <path
         id="path4"
         d="m 975.25,550.561 c -0.013,-0.08 -2.998,7.302 -0.875,9.15 3.346,2.912 4.295,16.765 4.258,17.752 -0.061,1.662 2.596,-0.137 2.596,0.562 0,-0.956 2.135,-22.509 -5.979,-27.464"
         inkscape:connector-curvature="0"
         style="fill:#ffd447" />
      <path
         id="path6"
         d="m 974.922,583.817 c 0.006,0.002 -0.229,-0.038 0.264,-1.126 0.504,-1.081 0.887,-2.031 1.27,-3.313 0.396,-1.278 0.555,-1.614 1.363,-2.047 1.236,-0.66 3.605,-0.617 4.316,-0.13 0.684,0.509 1.84,2.99 2.326,4.132 0.383,1.191 1.207,4.098 0.995,4.483 -0.259,0.399 -1.196,0.218 -1.196,0.216 -0.017,0.004 -0.424,-1.779 -0.611,-2.408 -0.08,0.017 0.576,3.823 0.582,4.754 -0.049,0.52 -1.178,0.646 -1.28,0.287 -0.22,-0.642 -0.51,-3.164 -0.632,-3.961 -0.157,-0.796 -0.146,-0.799 -0.15,-0.798 -0.123,0.009 0.26,4.789 -0.025,5.714 -0.002,-0.007 -0.988,0.738 -1.522,-0.041 -0.018,-0.003 -0.187,-2.457 -0.319,-4.216 -0.149,-1.764 -0.021,-1.957 -0.114,-1.766 -0.112,0.202 0.09,3.237 -0.361,5.448 -0.002,0 -0.108,0.516 -0.728,0.543 -0.619,0.029 -0.713,-0.407 -0.78,-0.926 -0.078,-0.607 0.147,-2.146 0.044,-4.176 -0.098,-2.031 -0.389,-3.379 -0.396,-3.381 -0.028,-0.012 -0.994,2.387 -1.584,2.91 -0.802,0.659 -1.462,-0.192 -1.462,-0.198"
         inkscape:connector-curvature="0"
         style="fill:#fbc59a" />
      <path
         id="path8"
         d="m 945.162,550.561 c 0.012,-0.08 2.998,7.302 0.875,9.15 -3.346,2.912 -4.295,16.765 -4.259,17.752 0.061,1.662 -2.595,-0.137 -2.595,0.562 0,-0.956 -2.137,-22.509 5.979,-27.464"
         inkscape:connector-curvature="0"
         style="fill:#ffd447" />
      <path
         id="path10"
         d="m 945.489,583.817 c -0.005,0.002 0.229,-0.038 -0.263,-1.126 -0.504,-1.081 -0.887,-2.031 -1.27,-3.313 -0.396,-1.278 -0.554,-1.614 -1.363,-2.047 -1.237,-0.66 -3.605,-0.617 -4.316,-0.13 -0.684,0.509 -1.841,2.99 -2.326,4.132 -0.383,1.191 -1.208,4.098 -0.996,4.483 0.259,0.399 1.196,0.218 1.197,0.216 0.016,0.004 0.424,-1.779 0.612,-2.408 0.079,0.017 -0.577,3.823 -0.583,4.754 0.049,0.52 1.178,0.646 1.28,0.287 0.22,-0.642 0.51,-3.164 0.632,-3.961 0.157,-0.796 0.147,-0.799 0.15,-0.798 0.124,0.009 -0.26,4.789 0.026,5.714 10e-4,-0.007 0.988,0.738 1.522,-0.041 0.018,-0.003 0.186,-2.457 0.32,-4.216 0.149,-1.764 0.02,-1.957 0.114,-1.766 0.112,0.202 -0.09,3.237 0.361,5.448 0.002,0 0.108,0.516 0.727,0.543 0.62,0.029 0.714,-0.407 0.781,-0.926 0.078,-0.607 -0.148,-2.146 -0.044,-4.176 0.098,-2.031 0.388,-3.379 0.397,-3.381 0.028,-0.012 0.994,2.387 1.584,2.91 0.799,0.659 1.459,-0.192 1.458,-0.198"
         inkscape:connector-curvature="0"
         style="fill:#fbc59a" />
      <path
         id="path12"
         d="m 974.91,573.325 -1.354,7.536 c -0.084,0.475 -0.473,0.802 -0.934,0.925 -3.254,0.863 -9.877,1.565 -16.558,2.065 -5.379,0.404 -9.895,0.201 -11.937,-0.078 -0.636,-0.086 -1.033,-0.874 -0.872,-1.514 l 1.385,-6.914 z"
         inkscape:connector-curvature="0"
         style="fill:#2d72a4" />
      <path
         id="path14"
         d="m 973.719,580.037 c 0,0 -1.781,9.799 -2.805,13.025 -1.023,3.229 -1.223,4.276 -1.223,4.276 0,0 -1.535,-0.288 -1.609,-0.61 -0.075,-0.319 1.648,-5.521 1.668,-10.279 0.015,-3.807 -1.647,-5.898 -1.647,-5.898 0,0 2.511,-2.412 4.084,-2.546 1.574,-0.134 1.532,2.032 1.532,2.032"
         inkscape:connector-curvature="0"
         style="fill:#2d72a4" />
      <path
         id="path16"
         d="m 948.142,583.854 c 0,0 -2.291,2.146 -4.059,5.548 -1.769,3.402 -3.178,7.68 -3.178,7.68 l -1.282,0.358 -0.366,-0.547 4.03,-14.722 c 0,0 0.478,-2.104 2.959,-1.068 2.482,1.036 1.896,2.751 1.896,2.751"
         inkscape:connector-curvature="0"
         style="fill:#2d72a4" />
      <polygon
         id="polygon18"
         points="968.165,594.963 967.672,597.793 969.787,598.137 969.939,598.184 970.973,595.42 "
         style="fill:#b9d7e6" />
      <polygon
         id="polygon20"
         points="941.951,595.445 941.188,598.226 939.096,597.781 938.477,597.886 939.172,594.857 "
         style="fill:#b9d7e6" />
      <path
         id="path22"
         d="m 971.582,600.288 c 0,0 -0.927,-1.394 -1.668,-2.265 -0.668,-0.786 -1.55,-0.553 -1.55,-0.553 l -1.004,0.743 c 0,0 -0.866,2.218 -0.271,2.524 0.597,0.308 1.812,0.686 2.642,0.568 0.83,-0.118 1.851,-1.017 1.851,-1.017"
         inkscape:connector-curvature="0"
         style="fill:#ad5b27" />
      <g
         style="opacity:0.2"
         id="g34">
        <g
           id="g32">
          <defs
             id="defs25">
            <rect
               height="3.184"
               width="4.612"
               y="598.18402"
               x="966.96899"
               id="rect2703" />
          </defs>
          <clipPath
             id="clipPath1101">
            <use
               height="100%"
               width="100%"
               y="0"
               x="0"
               style="overflow:visible"
               id="use1099"
               overflow="visible"
               xlink:href="#SVGID_1_-9" />
          </clipPath>
          <path
             style="fill:#010101"
             inkscape:connector-curvature="0"
             id="path30"
             d="m 969.939,598.184 c 0.082,0.098 1.314,1.982 1.314,1.982 0,0 -0.65,0.576 -1.729,0.681 -1.076,0.106 -2.557,-0.206 -2.557,-0.206 0,0 1.953,0.837 2.667,0.714 0.714,-0.123 1.946,-1.067 1.946,-1.067 z"
             clip-path="url(#SVGID_2_-0)" />
        </g>
      </g>
      <path
         id="path36"
         d="m 936.503,599.889 c 0,0 1.171,-1.289 2.064,-2.078 0.807,-0.713 1.636,-0.395 1.636,-0.395 l 0.861,0.836 c 0,0 0.455,2.283 -0.192,2.529 -0.647,0.246 -1.92,0.5 -2.722,0.299 -0.801,-0.197 -1.647,-1.191 -1.647,-1.191"
         inkscape:connector-curvature="0"
         style="fill:#ad5b27" />
      <g
         style="opacity:0.2"
         id="g48">
        <g
           id="g46">
          <defs
             id="defs39">
            <rect
               height="1.374"
               width="4.506"
               y="599.80103"
               x="936.50299"
               id="rect2712" />
          </defs>
          <clipPath
             id="clipPath1111">
            <use
               height="100%"
               width="100%"
               y="0"
               x="0"
               style="overflow:visible"
               id="use1109"
               overflow="visible"
               xlink:href="#SVGID_3_-2" />
          </clipPath>
          <path
             style="fill:#010101"
             inkscape:connector-curvature="0"
             id="path44"
             d="m 936.85,599.801 c 0,0 0.541,0.635 1.588,0.846 1.048,0.211 2.572,0.049 2.572,0.049 0,0 -2.088,0.636 -2.773,0.443 -0.685,-0.191 -1.734,-1.25 -1.734,-1.25 z"
             clip-path="url(#SVGID_4_-51)" />
        </g>
      </g>
      <path
         id="path50"
         d="m 975.91,550.314 c 0,0 0.23,10.082 -0.154,16.623 -0.292,4.966 -0.846,6.542 -0.846,6.542 l -30.399,1.847 c 0,0 0.374,-3.187 0.476,-6.383 0.216,-6.777 -1.092,-16.166 -1.092,-16.166 l 2.024,-3.699 z"
         inkscape:connector-curvature="0"
         style="fill:#ffd447" />
      <polygon
         id="polygon52"
         points="951.693,552.565 951.856,578.73 950.06,578.363 949.307,550.213 "
         style="fill:#2d72a4" />
      <polygon
         id="polygon54"
         points="971.602,552.908 968.838,579.036 970.641,578.705 974.033,550.602 "
         style="fill:#2d72a4" />
      <path
         id="path56"
         d="m 976.18,527.157 c 0,0 1.373,-3.285 3.155,-3.49 2.12,-0.243 4.45,0.332 4.585,0.792 0.135,0.46 0.832,5.52 -1.438,7.831 -0.618,0.629 -3.014,2.099 -3.375,2.957 -0.359,0.857 -1.241,1.697 -2.656,1.581 -1.559,-0.127 -1.563,-1.564 -1.563,-1.564 z"
         inkscape:connector-curvature="0"
         style="fill:#d78263" />
      <path
         id="path58"
         d="m 948.429,536.54 c 0,0 -0.727,0.829 -2.112,1.154 -1.385,0.326 -6.486,-3.557 -6.791,-4.632 -0.305,-1.074 -1.43,-7.485 -0.46,-8.174 0.971,-0.689 6.536,-0.43 7.925,0.494 1.389,0.925 1.48,10.608 1.48,10.608 z"
         inkscape:connector-curvature="0"
         style="fill:#d78263" />
      <path
         id="path60"
         d="m 939.524,504.587 c -0.141,0.243 4.569,44.474 4.569,44.474 0,0 6.481,8.758 16.747,8.891 9.199,0.119 15.529,-7.655 15.529,-7.655 0,0 4.29,-26.226 4.484,-29.208 0.193,-2.982 0.869,-17.554 0.869,-17.554 0,0 0.213,-12.584 -20.348,-12.584 -20.886,-0.001 -21.85,13.636 -21.85,13.636"
         inkscape:connector-curvature="0"
         style="fill:#fbc59a" />
      <g
         style="opacity:0.5"
         id="g72">
        <g
           id="g70">
          <defs
             id="defs63">
            <rect
               height="11.623"
               width="34.061001"
               y="492.20901"
               x="944.789"
               id="rect2726" />
          </defs>
          <clipPath
             id="clipPath1126">
            <use
               height="100%"
               width="100%"
               y="0"
               x="0"
               style="overflow:visible"
               id="use1124"
               overflow="visible"
               xlink:href="#SVGID_5_-3" />
          </clipPath>
          <path
             style="fill:#fdcea9"
             inkscape:connector-curvature="0"
             id="path68"
             d="m 944.79,497.673 c 0,-3.401 8.009,-5.464 17.03,-5.464 9.022,0 17.031,4.843 17.031,8.244 0,3.402 -8.009,3.379 -17.031,3.379 -9.022,0 -17.03,-2.758 -17.03,-6.159"
             clip-path="url(#SVGID_6_-3)" />
        </g>
      </g>
      <g
         style="opacity:0.4"
         id="g84">
        <g
           id="g82">
          <defs
             id="defs75">
            <rect
               height="57.259998"
               width="35.272999"
               y="500.69299"
               x="939.63702"
               id="rect2734" />
          </defs>
          <clipPath
             id="clipPath1135">
            <use
               height="100%"
               width="100%"
               y="0"
               x="0"
               style="overflow:visible"
               id="use1133"
               overflow="visible"
               xlink:href="#SVGID_7_-6" />
          </clipPath>
          <path
             style="fill:#f79361"
             inkscape:connector-curvature="0"
             id="path80"
             d="m 947.229,547.664 c -1.311,-2.145 -3.327,-38.186 -3.379,-43.196 -2.174,-1.543 -2.651,-2.918 -2.874,-3.775 -1.074,0.987 -1.335,3.894 -1.335,3.894 -0.141,0.244 4.569,44.474 4.569,44.474 0,0 6.481,8.758 16.747,8.891 2.219,0.029 7.112,-0.264 13.954,-5.693 -9.362,3.032 -20.94,6.43 -27.682,-4.595"
             clip-path="url(#SVGID_8_-89)" />
        </g>
      </g>
      <path
         id="path86"
         d="m 972.765,543.461 -5.035,-3.51 -6.679,0.589 -6.755,-1.465 -7.126,3.263 c 0,0 -3.502,-5.882 -4.556,-7.311 0.821,7.8 1.485,14.036 1.485,14.036 0,0 6.481,8.756 16.747,8.89 9.197,0.118 15.527,-7.656 15.527,-7.656 0,0 1.564,-9.562 2.848,-17.794 -0.735,1.565 -6.456,10.958 -6.456,10.958"
         inkscape:connector-curvature="0"
         style="fill:#e3ad81" />
      <g
         style="opacity:0.5"
         id="g108">
        <g
           id="g106">
          <defs
             id="defs89">
            <rect
               height="6.0370002"
               width="9.6110001"
               y="533.48901"
               x="956.25598"
               id="rect2743" />
          </defs>
          <clipPath
             id="clipPath1145">
            <use
               height="100%"
               width="100%"
               y="0"
               x="0"
               style="overflow:visible"
               id="use1143"
               overflow="visible"
               xlink:href="#SVGID_9_-2" />
          </clipPath>
          <g
             style="opacity:0.7"
             id="g104"
             clip-path="url(#SVGID_10_-9)">
            <g
               id="g102">
              <defs
                 id="defs95">
                <rect
                   height="6.0370002"
                   width="9.6110001"
                   y="533.48901"
                   x="956.25598"
                   id="rect2748" />
              </defs>
              <clipPath
                 id="clipPath1151">
                <use
                   height="100%"
                   width="100%"
                   y="0"
                   x="0"
                   style="overflow:visible"
                   id="use1149"
                   overflow="visible"
                   xlink:href="#SVGID_11_-1" />
              </clipPath>
              <polygon
                 style="fill:#f79361"
                 id="polygon100"
                 points="965.867,535.922 957.178,535.922 958.568,533.489 956.678,535.575 956.255,537.743 958.097,538.936 961.631,539.526 "
                 clip-path="url(#SVGID_12_-49)" />
            </g>
          </g>
        </g>
      </g>
      <path
         id="path110"
         d="m 942.793,518.913 0.405,-1.749 c 0,0 2.012,-0.827 5.978,-1.285 3.967,-0.459 7.294,0.321 7.294,0.321 l -0.866,5.273 c 0,0 -3.89,-1.441 -5.716,-1.86 -1.595,-0.367 -7.095,-0.7 -7.095,-0.7"
         inkscape:connector-curvature="0"
         style="fill:#c7762e" />
      <path
         id="path112"
         d="m 964.291,516.488 1.152,-4.553 c 4.315,0.663 7.931,3.095 12.227,4.872 l -0.512,1.796 z"
         inkscape:connector-curvature="0"
         style="fill:#c7762e" />
      <path
         id="path114"
         d="m 949.896,541.725 c 0,0 1.654,2.35 3.963,2.885 3.735,0.866 9.519,0.473 11.163,0.344 2.346,-0.186 4.584,-0.69 4.584,-0.69 l -0.371,-1.407 1.178,2.378 -0.93,-0.612 -1.89,0.394 c 0,0 -1.54,0.392 -4.954,0.747 -3.362,0.352 -6.889,-0.202 -8.226,-0.402 -2.064,-0.309 -3.493,-1.457 -3.493,-1.457 z"
         inkscape:connector-curvature="0"
         style="fill:#d78263" />
      <polygon
         id="polygon116"
         points="951.528,541.588 949.852,541.801 949.556,543.1 "
         style="fill:#d78263" />
      <path
         id="path118"
         d="m 949.156,523.845 c 0,-1.775 0.693,-3.215 1.549,-3.215 0.856,10e-4 1.55,1.441 1.55,3.217 10e-4,1.775 -0.693,3.215 -1.549,3.215 -0.856,-10e-4 -1.55,-1.441 -1.55,-3.217"
         inkscape:connector-curvature="0"
         style="fill:#224352" />
      <g
         style="opacity:0.5"
         id="g130">
        <g
           id="g128">
          <defs
             id="defs121">
            <rect
               height="2.2479999"
               width="0.93099999"
               y="521.685"
               x="949.591"
               id="rect2763" />
          </defs>
          <clipPath
             id="clipPath1167">
            <use
               height="100%"
               width="100%"
               y="0"
               x="0"
               style="overflow:visible"
               id="use1165"
               overflow="visible"
               xlink:href="#SVGID_13_-3" />
          </clipPath>
          <path
             style="fill:#ffffff"
             inkscape:connector-curvature="0"
             id="path126"
             d="m 949.591,522.809 c 0,-0.621 0.208,-1.124 0.466,-1.124 0.257,0 0.466,0.504 0.466,1.124 0,0.621 -0.209,1.125 -0.466,1.125 -0.257,-10e-4 -0.466,-0.504 -0.466,-1.125"
             clip-path="url(#SVGID_14_-6)" />
        </g>
      </g>
      <path
         id="path132"
         d="m 968.967,523.845 c 0,-1.775 0.693,-3.215 1.549,-3.215 0.856,10e-4 1.551,1.441 1.551,3.217 10e-4,1.775 -0.693,3.215 -1.549,3.215 -0.857,-10e-4 -1.551,-1.441 -1.551,-3.217"
         inkscape:connector-curvature="0"
         style="fill:#224352" />
      <g
         style="opacity:0.5"
         id="g144">
        <g
           id="g142">
          <defs
             id="defs135">
            <rect
               height="2.2479999"
               width="0.93099999"
               y="521.685"
               x="969.40198"
               id="rect2772" />
          </defs>
          <clipPath
             id="clipPath1177">
            <use
               height="100%"
               width="100%"
               y="0"
               x="0"
               style="overflow:visible"
               id="use1175"
               overflow="visible"
               xlink:href="#SVGID_15_-0" />
          </clipPath>
          <path
             style="fill:#ffffff"
             inkscape:connector-curvature="0"
             id="path140"
             d="m 969.402,522.809 c 0,-0.621 0.207,-1.124 0.465,-1.124 0.258,0 0.466,0.504 0.467,1.124 0,0.621 -0.209,1.125 -0.467,1.125 -0.256,-10e-4 -0.465,-0.504 -0.465,-1.125"
             clip-path="url(#SVGID_16_-8)" />
        </g>
      </g>
      <polygon
         id="polygon146"
         points="963.273,525.148 964.477,533.489 965.867,535.922 961.73,537.66 957.178,535.922 958.568,533.489 959.693,525.148 961.423,522.02 "
         style="fill:#fdcea9" />
      <rect
         id="rect148"
         height="12.598"
         width="5.6570001"
         transform="matrix(-0.9982,0.0596,-0.0596,-0.9982,1905.5638,947.5979)"
         y="495.897"
         x="935.83197"
         style="fill:#f5874c" />
      <rect
         id="rect150"
         height="12.599"
         width="5.6570001"
         transform="matrix(-0.9982,0.0596,-0.0596,-0.9982,1989.9943,940.0233)"
         y="493.37"
         x="978.159"
         style="fill:#f5874c" />
      <path
         id="path152"
         d="m 936.212,502.826 c -0.764,-12.794 9.22,-23.799 22.298,-24.58 13.08,-0.78 24.301,8.958 25.064,21.752 0.381,6.355 -11.488,4.006 -23.249,4.75 -11.915,0.754 -23.728,4.516 -24.113,-1.922"
         inkscape:connector-curvature="0"
         style="fill:#f99f4b" />
      <polygon
         id="polygon154"
         points="985.7,507.323 934.893,509.925 933.385,502.701 986.447,499.317 "
         style="fill:#fcb149" />
      <rect
         id="rect156"
         height="12.643"
         width="1.9119999"
         transform="matrix(0.9982,-0.0598,0.0598,0.9982,-27.5241,57.9487)"
         y="482.741"
         x="953.94202"
         style="fill:#f5874c" />
      <rect
         id="rect158"
         height="12.643"
         width="1.9119999"
         transform="matrix(0.9982,-0.0598,0.0598,0.9982,-27.5037,58.1765)"
         y="482.51401"
         x="957.75897"
         style="fill:#f5874c" />
      <rect
         id="rect160"
         height="12.642"
         width="1.9119999"
         transform="matrix(0.9982,-0.0593,0.0593,0.9982,-27.2637,57.8993)"
         y="482.28699"
         x="961.57397"
         style="fill:#f5874c" />
    </g>
  </g>
</svg>
