<svg width="800px" height="800px" fill="#000000" version="1.1" viewBox="0 0 512 512" xml:space="preserve" xmlns="http://www.w3.org/2000/svg"><g fill="#22b879">

	
		<path d="m453.86 236.29c-4.681-8.91-12.446-15.207-21.866-17.731-8.43-2.258-17.382-1.121-25.162 2.924-4.712-7.389-11.898-12.853-20.329-15.113-19.171-5.132-39.241 7.277-44.711 27.685-3.14 11.713 5.432 31.865 13.177 46.711 6.181 11.85 17.876 32.087 26.745 34.464 0.797 0.214 1.685 0.313 2.651 0.313 9.783-1e-3 27.477-10.26 37.742-16.788 14.129-8.983 31.63-22.151 34.767-33.863 2.616-9.762 1.545-19.919-3.014-28.602zm-13.503 24.175c-0.777 2.896-8.133 11.261-25.221 22.437-13.555 8.865-24.354 13.81-28.836 15.213-3.182-3.456-10.06-13.138-17.367-27.593-9.211-18.222-11.398-29.144-10.624-32.041 2.589-9.658 10.755-16.171 19.369-16.171 1.461 0 2.937 0.188 4.399 0.579 6.351 1.701 11.183 6.878 12.931 13.846 0.756 3.011 3.081 5.377 6.081 6.18 2.99 0.804 6.194-0.08 8.355-2.311 5-5.162 11.778-7.229 18.125-5.526 4.756 1.274 8.716 4.529 11.152 9.165 2.553 4.864 3.135 10.625 1.636 16.222z"/>
	


	
		<path d="m166.14 271.36c-3.138-11.714-20.638-24.881-34.767-33.864-11.282-7.172-31.521-18.837-40.393-16.473-8.866 2.376-20.563 22.612-26.745 34.464-7.745 14.844-16.317 34.998-13.177 46.71 4.632 17.29 19.738 28.845 35.913 28.845 2.916 0 5.868-0.376 8.797-1.161 8.432-2.26 15.618-7.724 20.329-15.113 7.778 4.045 16.736 5.181 25.162 2.924 9.419-2.524 17.185-8.821 21.866-17.731 4.56-8.683 5.631-18.84 3.015-28.601zm-18.154 20.646c-2.436 4.636-6.396 7.89-11.152 9.165-6.351 1.7-13.125-0.365-18.125-5.526-2.161-2.233-5.365-3.115-8.355-2.311-3 0.804-5.326 3.169-6.081 6.181-1.747 6.968-6.58 12.145-12.931 13.846-10.089 2.696-20.738-4.296-23.768-15.59-0.774-2.896 1.413-13.82 10.624-32.042 7.305-14.455 14.183-24.136 17.365-27.592 4.484 1.403 15.283 6.348 28.838 15.213 17.087 11.175 24.444 19.541 25.221 22.437 1.499 5.596 0.917 11.356-1.636 16.219z"/>
	


	
		<path d="m480.44 149.29-84.874-22.82v-4.453c0-23.579-19.753-42.762-43.322-42.762h-103.12c-20.648 0-37.919 14.715-41.884 34.204h-86.38c-23.567 0-43.811 19.167-43.811 42.727v14.943l-45.61 12.364c-22.766 6.1-36.057 29.578-29.96 52.335l44.41 165.24c5.111 19.066 22.488 31.669 41.356 31.669 3.651 0 7.399-0.472 11.089-1.461l99.628-26.69c22.766-6.1 36.333-29.577 30.235-52.335l-7.275-27.164c7.53 6.633 17.379 10.692 28.177 10.692h33.93c2.582 16.145 14.334 30.104 31.124 34.603l99.611 26.691c3.672 0.984 7.399 1.471 11.106 1.471 7.396 0 14.707-1.942 21.298-5.739 9.908-5.709 16.989-14.921 19.941-25.942l44.42-165.24c6.098-22.757-7.317-46.233-30.084-52.334zm-386.29 6.896c0-14.13 12.572-25.626 26.709-25.626h84.453v140.24l-21.918-83.794c-2.95-11.009-9.751-20.218-19.638-25.928-9.895-5.715-21.82-7.234-32.84-4.281l-36.765 9.744v-10.36zm99.402 231.88-99.611 26.69c-13.665 3.657-27.744-4.47-31.402-18.115l-44.276-165.24c-3.656-13.649 4.48-27.73 18.135-31.389l99.611-26.69c6.609-1.768 13.522-0.859 19.461 2.57 5.931 3.427 10.173 8.947 11.941 15.545l44.276 165.24c3.656 13.648-4.48 27.729-18.135 31.389zm90.373-70.018c-0.056 0.21-0.081 0.419-0.136 0.628h-34.692c-14.125 0-26.684-11.495-26.684-25.626v-171.07c0-14.13 12.572-25.626 26.709-25.626h103.12c14.139 0 26.22 11.511 26.22 25.66v7e-3c-10.689-2.058-20.935-0.401-30.037 4.843-9.908 5.709-17.133 14.921-20.085 25.941l-1.541 5.481-19.653-24.52c-1.622-2.028-4.096-3.209-6.693-3.209s-5.065 1.18-6.687 3.209l-51.31 64.132c-2.499 3.123-2.501 7.561-2e-3 10.684l51.305 64.132c0.539 0.675 1.18 1.208 1.858 1.673l-11.696 43.662zm37.315-139.26-20.252 75.576-40.903-51.129 40.356-50.443 20.799 25.996zm172.63 18.403-44.276 165.24c-1.77 6.602-6.016 12.125-11.962 15.55-5.939 3.423-12.843 4.338-19.44 2.567l-99.611-26.691c-10.872-2.913-18.221-12.436-18.931-23.084 0.499-1.084 0.793-2.28 0.793-3.551 0-0.922-0.184-1.793-0.453-2.625 0.127-0.71 0.265-1.42 0.455-2.128l38.028-141.92c0.42-0.915 0.689-1.883 0.77-2.877l5.478-20.446c1.77-6.601 6.019-12.124 11.962-15.549 5.939-3.422 12.843-4.337 19.44-2.567l99.609 26.69c13.658 3.659 21.794 17.74 18.138 31.389z"/>
	


	
		<path d="m137.54 350.18-8.551-25.653c-1.493-4.48-6.344-6.897-10.816-5.408-3.585 1.195-5.85 4.531-5.85 8.112 0 0.896 0.142 1.807 0.441 2.704l8.551 25.653c1.194 3.582 4.53 5.849 8.11 5.849 0.898 0 1.81-0.142 2.706-0.441 3.585-1.195 5.85-4.531 5.85-8.112 0-0.895-0.142-1.807-0.441-2.704z"/>
	

</g></svg>
