<?xml version="1.0" encoding="UTF-8" standalone="no"?>
<!-- Created with Inkscape (http://www.inkscape.org/) -->

<svg
   xmlns:dc="http://purl.org/dc/elements/1.1/"
   xmlns:cc="http://creativecommons.org/ns#"
   xmlns:rdf="http://www.w3.org/1999/02/22-rdf-syntax-ns#"
   xmlns:svg="http://www.w3.org/2000/svg"
   xmlns="http://www.w3.org/2000/svg"
   xmlns:xlink="http://www.w3.org/1999/xlink"
   xmlns:sodipodi="http://sodipodi.sourceforge.net/DTD/sodipodi-0.dtd"
   xmlns:inkscape="http://www.inkscape.org/namespaces/inkscape"
   width="44.409897mm"
   height="44.409897mm"
   viewBox="0 0 44.409897 44.409897"
   version="1.1"
   id="svg3916"
   inkscape:version="0.92.4 (5da689c313, 2019-01-14)"
   sodipodi:docname="avatar4.svg">
  <defs
     id="defs3910">
    <clipPath
       clipPathUnits="userSpaceOnUse"
       id="clipPath3897">
      <circle
         style="opacity:0.5;vector-effect:none;fill:#4d4d4d;fill-opacity:1;fill-rule:evenodd;stroke:none;stroke-width:0.90107036;stroke-linecap:butt;stroke-linejoin:bevel;stroke-miterlimit:4;stroke-dasharray:none;stroke-dashoffset:0;stroke-opacity:1;paint-order:markers stroke fill"
         id="circle3899"
         cx="231.51881"
         cy="173.94919"
         r="22.204948" />
    </clipPath>
    <clipPath
       id="SVGID_18_">
      <use
         xlink:href="#SVGID_17_"
         overflow="visible"
         id="use159"
         style="overflow:visible"
         x="0"
         y="0"
         width="100%"
         height="100%" />
    </clipPath>
    <clipPath
       id="SVGID_16_">
      <use
         xlink:href="#SVGID_15_"
         overflow="visible"
         id="use145"
         style="overflow:visible"
         x="0"
         y="0"
         width="100%"
         height="100%" />
    </clipPath>
    <clipPath
       id="SVGID_14_">
      <use
         xlink:href="#SVGID_13_"
         overflow="visible"
         id="use127"
         style="overflow:visible"
         x="0"
         y="0"
         width="100%"
         height="100%" />
    </clipPath>
    <clipPath
       id="SVGID_12_">
      <use
         xlink:href="#SVGID_11_"
         overflow="visible"
         id="use113"
         style="overflow:visible"
         x="0"
         y="0"
         width="100%"
         height="100%" />
    </clipPath>
    <clipPath
       id="SVGID_8_">
      <use
         xlink:href="#SVGID_7_"
         overflow="visible"
         id="use81"
         style="overflow:visible"
         x="0"
         y="0"
         width="100%"
         height="100%" />
    </clipPath>
    <clipPath
       id="SVGID_10_">
      <use
         xlink:href="#SVGID_9_"
         overflow="visible"
         id="use87"
         style="overflow:visible"
         x="0"
         y="0"
         width="100%"
         height="100%" />
    </clipPath>
    <clipPath
       id="SVGID_6_">
      <use
         xlink:href="#SVGID_5_"
         overflow="visible"
         id="use65"
         style="overflow:visible"
         x="0"
         y="0"
         width="100%"
         height="100%" />
    </clipPath>
    <clipPath
       id="SVGID_4_">
      <use
         xlink:href="#SVGID_3_"
         overflow="visible"
         id="use41"
         style="overflow:visible"
         x="0"
         y="0"
         width="100%"
         height="100%" />
    </clipPath>
    <clipPath
       id="SVGID_2_">
      <use
         xlink:href="#SVGID_1_"
         overflow="visible"
         id="use27"
         style="overflow:visible"
         x="0"
         y="0"
         width="100%"
         height="100%" />
    </clipPath>
    <rect
       id="SVGID_1_"
       x="966.646"
       y="591.78998"
       width="4.6129999"
       height="3.1800001" />
    <rect
       id="SVGID_3_"
       x="936.18103"
       y="593.40002"
       width="4.507"
       height="1.38" />
    <rect
       id="SVGID_5_"
       x="939.19897"
       y="493.73999"
       width="27.424999"
       height="57.82" />
    <rect
       id="SVGID_7_"
       x="955.93402"
       y="527.09003"
       width="9.6120005"
       height="6.04" />
    <rect
       id="SVGID_9_"
       x="955.93402"
       y="527.09003"
       width="9.6120005"
       height="6.04" />
    <rect
       id="SVGID_11_"
       x="949.26898"
       y="515.28998"
       width="0.93199998"
       height="2.25" />
    <rect
       id="SVGID_13_"
       x="969.08002"
       y="515.28998"
       width="0.93199998"
       height="2.25" />
    <rect
       id="SVGID_15_"
       x="941.59802"
       y="510.79001"
       width="16.566"
       height="16.559999" />
    <rect
       id="SVGID_17_"
       x="964.06403"
       y="510.79001"
       width="16.566"
       height="16.559999" />
    <clipPath
       id="SVGID_18_-8">
      <use
         xlink:href="#SVGID_17_-1"
         overflow="visible"
         id="use175"
         style="overflow:visible"
         x="0"
         y="0"
         width="100%"
         height="100%" />
    </clipPath>
    <clipPath
       id="SVGID_16_-1">
      <use
         xlink:href="#SVGID_15_-5"
         overflow="visible"
         id="use161"
         style="overflow:visible"
         x="0"
         y="0"
         width="100%"
         height="100%" />
    </clipPath>
    <clipPath
       id="SVGID_14_-1">
      <use
         xlink:href="#SVGID_13_-6"
         overflow="visible"
         id="use147"
         style="overflow:visible"
         x="0"
         y="0"
         width="100%"
         height="100%" />
    </clipPath>
    <clipPath
       id="SVGID_12_-4">
      <use
         xlink:href="#SVGID_11_-3"
         overflow="visible"
         id="use131"
         style="overflow:visible"
         x="0"
         y="0"
         width="100%"
         height="100%" />
    </clipPath>
    <clipPath
       id="SVGID_10_-2">
      <use
         xlink:href="#SVGID_9_-9"
         overflow="visible"
         id="use117"
         style="overflow:visible"
         x="0"
         y="0"
         width="100%"
         height="100%" />
    </clipPath>
    <clipPath
       id="SVGID_6_-1">
      <use
         xlink:href="#SVGID_5_-4"
         overflow="visible"
         id="use79"
         style="overflow:visible"
         x="0"
         y="0"
         width="100%"
         height="100%" />
    </clipPath>
    <clipPath
       id="SVGID_8_-5">
      <use
         xlink:href="#SVGID_7_-5"
         overflow="visible"
         id="use85"
         style="overflow:visible"
         x="0"
         y="0"
         width="100%"
         height="100%" />
    </clipPath>
    <clipPath
       id="SVGID_4_-3">
      <use
         xlink:href="#SVGID_3_-4"
         overflow="visible"
         id="use43"
         style="overflow:visible"
         x="0"
         y="0"
         width="100%"
         height="100%" />
    </clipPath>
    <clipPath
       id="SVGID_2_-9">
      <use
         xlink:href="#SVGID_1_-1"
         overflow="visible"
         id="use29"
         style="overflow:visible"
         x="0"
         y="0"
         width="100%"
         height="100%" />
    </clipPath>
    <rect
       id="SVGID_1_-1"
       x="963.83398"
       y="599.78998"
       width="4.6110001"
       height="3.1800001" />
    <rect
       id="SVGID_3_-4"
       x="933.36798"
       y="601.40002"
       width="4.506"
       height="1.38" />
    <rect
       id="SVGID_5_-4"
       x="953.12"
       y="535.09003"
       width="9.6120005"
       height="6.04" />
    <rect
       id="SVGID_7_-5"
       x="953.12"
       y="535.09003"
       width="9.6120005"
       height="6.04" />
    <rect
       id="SVGID_9_-9"
       x="946.45599"
       y="523.28998"
       width="0.93099999"
       height="2.25" />
    <rect
       id="SVGID_11_-3"
       x="966.26801"
       y="523.28998"
       width="0.93099999"
       height="2.25" />
    <rect
       id="SVGID_13_-6"
       x="936.242"
       y="521.14001"
       width="19.148001"
       height="10.74" />
    <rect
       id="SVGID_15_-5"
       x="960.91803"
       y="521.14001"
       width="18.105"
       height="10.74" />
    <rect
       id="SVGID_17_-1"
       x="935.51001"
       y="492.51999"
       width="3.1470001"
       height="9.7299995" />
    <clipPath
       clipPathUnits="userSpaceOnUse"
       id="clipPath1619">
      <circle
         style="opacity:1;vector-effect:none;fill:#ff0000;fill-opacity:0.42523367;fill-rule:evenodd;stroke:none;stroke-width:0.90107036;stroke-linecap:butt;stroke-linejoin:bevel;stroke-miterlimit:4;stroke-dasharray:none;stroke-dashoffset:0;stroke-opacity:1;paint-order:markers stroke fill"
         id="circle1621"
         cx="73.327393"
         cy="160.17262"
         r="22.204948" />
    </clipPath>
  </defs>
  <sodipodi:namedview
     id="base"
     pagecolor="#ffffff"
     bordercolor="#666666"
     borderopacity="1.0"
     inkscape:pageopacity="0.0"
     inkscape:pageshadow="2"
     inkscape:zoom="1.979899"
     inkscape:cx="161.04307"
     inkscape:cy="99.537766"
     inkscape:document-units="mm"
     inkscape:current-layer="layer1"
     showgrid="false"
     fit-margin-top="0"
     fit-margin-left="0"
     fit-margin-right="0"
     fit-margin-bottom="0"
     inkscape:window-width="1920"
     inkscape:window-height="1017"
     inkscape:window-x="-8"
     inkscape:window-y="-8"
     inkscape:window-maximized="1" />
  <metadata
     id="metadata3913">
    <rdf:RDF>
      <cc:Work
         rdf:about="">
        <dc:format>image/svg+xml</dc:format>
        <dc:type
           rdf:resource="http://purl.org/dc/dcmitype/StillImage" />
        <dc:title></dc:title>
      </cc:Work>
    </rdf:RDF>
  </metadata>
  <g
     inkscape:label="Layer 1"
     inkscape:groupmode="layer"
     id="layer1"
     transform="translate(-51.122444,-137.96767)">
    <circle
       style="opacity:1;vector-effect:none;fill:#393939;fill-opacity:1;fill-rule:evenodd;stroke:none;stroke-width:0.90107036;stroke-linecap:butt;stroke-linejoin:bevel;stroke-miterlimit:4;stroke-dasharray:none;stroke-dashoffset:0;stroke-opacity:1;paint-order:markers stroke fill"
       id="path4672"
       cx="73.327393"
       cy="160.17262"
       r="22.204948" />
    <g
       id="g1611"
       clip-path="url(#clipPath1619)">
      <path
         id="path2"
         d="m 64.171997,161.31337 c 0,0 -3.508948,-7.81983 -3.103538,-16.34067 0.68536,-0.0269 2.277536,0.56417 2.277536,0.56417 0,0 1.128274,-1.86476 1.660042,-2.14174 8.318961,-4.32489 15.70253,-3.93806 19.339627,-0.68799 3.258909,2.9126 -2.799939,19.67454 -2.799939,19.67454 0,0 -11.166207,-3.8189 -17.373728,-1.06831"
         style="fill:#553423;stroke-width:0.45589152"
         inkscape:connector-curvature="0" />
      <path
         id="path4"
         d="m 79.689241,171.36291 c -0.0051,-0.0373 -1.338569,3.39903 -0.390676,4.25926 1.493939,1.35644 1.917656,7.804 1.901591,8.26437 -0.02717,0.77272 1.159086,-0.0648 1.159086,0.26068 0,-0.44455 0.953242,-10.47734 -2.670001,-12.78431"
         style="fill:#646462;stroke-width:0.45589152"
         inkscape:connector-curvature="0" />
      <path
         id="path6"
         d="m 79.543238,186.84382 c 0.0017,9.3e-4 -0.102264,-0.0181 0.117451,-0.52369 0.225468,-0.50366 0.396481,-0.94587 0.567476,-1.54217 0.176818,-0.59445 0.247356,-0.75131 0.608568,-0.95288 0.551851,-0.30721 1.609145,-0.28719 1.9266,-0.0605 0.305845,0.23693 0.821971,1.39182 1.03853,1.92342 0.170996,0.55441 0.539346,1.90805 0.444255,2.0868 -0.115258,0.18573 -0.533558,0.10151 -0.533997,0.10046 -0.0084,0.002 -0.189322,-0.82811 -0.273259,-1.1209 -0.03476,0.007 0.257633,1.77958 0.260299,2.21387 -0.02194,0.24114 -0.525964,0.29979 -0.571493,0.13266 -0.09821,-0.29885 -0.227713,-1.47282 -0.281748,-1.84382 -0.07054,-0.37101 -0.06564,-0.37194 -0.06699,-0.37146 -0.05535,0.004 0.116101,2.22924 -0.01181,2.65983 -4.38e-4,-0.004 -0.440677,0.34353 -0.679544,-0.0192 -0.0084,-0.001 -0.08303,-1.14371 -0.142426,-1.96251 -0.06649,-0.82114 -0.01013,-0.91097 -0.05096,-0.8216 -0.04961,0.0945 0.04016,1.50633 -0.161158,2.53553 -8.94e-4,0 -0.04776,0.24021 -0.324593,0.2537 -0.276836,0.0123 -0.318805,-0.18992 -0.348708,-0.43197 -0.03476,-0.28255 0.06615,-0.99896 0.02008,-1.9439 -0.04421,-0.94542 -0.173696,-1.57291 -0.177257,-1.57384 -0.01181,-0.005 -0.443816,1.11113 -0.707236,1.35459 -0.357635,0.30583 -0.652764,-0.0899 -0.652326,-0.0925"
         style="fill:#bf753d;stroke-width:0.45589152"
         inkscape:connector-curvature="0" />
      <path
         id="path8"
         d="m 66.25531,171.36291 c 0.0054,-0.0373 1.338571,3.39903 0.390676,4.25926 -1.493949,1.35644 -1.917665,7.804 -1.901591,8.26437 0.02724,0.77272 -1.158637,-0.0648 -1.158637,0.26068 0,-0.44455 -0.953698,-10.47734 2.669552,-12.78431"
         style="fill:#646462;stroke-width:0.45589152"
         inkscape:connector-curvature="0" />
      <path
         id="path10"
         d="m 66.401757,186.84382 c -0.0022,9.3e-4 0.102246,-0.0181 -0.117417,-0.52369 -0.22503,-0.50366 -0.396036,-0.94587 -0.56704,-1.54217 -0.176809,-0.59445 -0.247354,-0.75131 -0.608563,-0.95288 -0.552306,-0.30721 -1.609589,-0.28719 -1.927042,-0.0605 -0.305398,0.23693 -0.821984,1.39182 -1.038977,1.92342 -0.170558,0.55441 -0.53891,1.90805 -0.444256,2.0868 0.115645,0.18573 0.534,0.10151 0.534447,0.10046 0.0071,0.002 0.18931,-0.82811 0.272804,-1.1209 0.03572,0.007 -0.257177,1.77958 -0.259856,2.21387 0.02187,0.24114 0.525963,0.29979 0.571504,0.13266 0.09823,-0.29885 0.22771,-1.47282 0.282181,-1.84382 0.0701,-0.37101 0.06563,-0.37194 0.06698,-0.37146 0.05537,0.004 -0.116084,2.22924 0.01164,2.65983 4.45e-4,-0.004 0.441129,0.34353 0.679553,-0.0192 0.0081,-0.001 0.08304,-1.14371 0.142882,-1.96251 0.06652,-0.82114 0.0089,-0.91097 0.05089,-0.8216 0.05,0.0945 -0.04018,1.50633 0.161175,2.53553 8.92e-4,0 0.04823,0.24021 0.324596,0.2537 0.276823,0.0123 0.318346,-0.18992 0.348708,-0.43197 0.03483,-0.28255 -0.06608,-0.99896 -0.01964,-1.9439 0.04376,-0.94542 0.173237,-1.57291 0.177257,-1.57384 0.01249,-0.005 0.443809,1.11113 0.707236,1.35459 0.355851,0.30583 0.650979,-0.0899 0.650979,-0.0925"
         style="fill:#bf753d;stroke-width:0.45589152"
         inkscape:connector-curvature="0" />
      <path
         id="path12"
         d="m 79.537433,181.96032 -0.604096,3.5075 c -0.03746,0.22157 -0.211193,0.37286 -0.417474,0.43011 -1.452865,0.40266 -4.409506,0.72896 -7.392496,0.96171 -2.401659,0.1876 -4.417998,0.0936 -5.329726,-0.0362 -0.283966,-0.0405 -0.461222,-0.40637 -0.389338,-0.70474 l 0.618386,-3.21796 z"
         style="fill:#505050;stroke-width:0.45589152"
         inkscape:connector-curvature="0" />
      <path
         id="path14"
         d="m 79.357054,182.98813 0.179923,-1.02781 -13.513841,0.94077 -0.152247,0.79086 c 4.572482,-0.24903 9.052984,-0.56091 13.486165,-0.70382"
         style="fill:#3e3e3e;stroke-width:0.45589152"
         inkscape:connector-curvature="0" />
      <path
         id="path16"
         d="m 79.006102,185.08425 c 0,0 -0.79519,4.56136 -1.252388,6.06398 -0.456759,1.50215 -0.546957,1.98952 -0.546957,1.98952 0,0 -0.684455,-0.13406 -0.717952,-0.28302 -0.03341,-0.14937 0.736262,-2.57092 0.74475,-4.78574 0.0067,-1.77213 -0.735368,-2.74547 -0.735368,-2.74547 0,0 1.121572,-1.12278 1.82346,-1.18562 0.702765,-0.0619 0.684455,0.94635 0.684455,0.94635"
         style="fill:#505050;stroke-width:0.45589152"
         inkscape:connector-curvature="0" />
      <path
         id="path18"
         d="m 67.585843,186.86104 c 0,0 -1.022903,0.99894 -1.812295,2.58255 -0.789835,1.58362 -1.418937,3.57498 -1.418937,3.57498 l -0.572398,0.16661 -0.163418,-0.25463 1.799346,-6.85252 c 0,0 0.213422,-0.97987 1.321158,-0.49761 1.108183,0.48178 0.846541,1.28057 0.846541,1.28057"
         style="fill:#505050;stroke-width:0.45589152"
         inkscape:connector-curvature="0" />
      <polygon
         id="polygon20"
         points="967.838,597.022 965.029,596.566 964.537,599.396 966.651,599.74 966.804,599.787 "
         style="fill:#8c8c8c"
         transform="matrix(0.44648787,0,0,0.46549326,-354.34789,-85.665724)" />
      <polygon
         id="polygon22"
         points="936.037,596.461 938.815,597.049 938.053,599.829 935.96,599.385 935.341,599.489 "
         style="fill:#8c8c8c"
         transform="matrix(0.44648787,0,0,0.46549326,-354.34789,-85.665724)" />
      <path
         id="path24"
         d="m 78.051071,194.51096 c 0,0 -0.413002,-0.6489 -0.743856,-1.05389 -0.299145,-0.36634 -0.692049,-0.25788 -0.692049,-0.25788 l -0.448727,0.34587 c 0,0 -0.386204,1.03245 -0.120488,1.17536 0.266121,0.14286 0.808606,0.31887 1.179622,0.26394 0.371034,-0.054 0.825565,-0.4734 0.825565,-0.4734"
         style="fill:#414141;stroke-width:0.45589152"
         inkscape:connector-curvature="0" />
      <g
         style="opacity:0.2"
         id="g36"
         transform="matrix(0.44648787,0,0,0.46549326,-354.34789,-85.665724)">
        <g
           id="g34">
          <defs
             id="defs27">
            <rect
               height="3.1800001"
               width="4.6110001"
               y="599.78998"
               x="963.83398"
               id="rect1399" />
          </defs>
          <clipPath
             id="clipPath1044">
            <use
               height="100%"
               width="100%"
               y="0"
               x="0"
               style="overflow:visible"
               id="use1042"
               overflow="visible"
               xlink:href="#SVGID_1_-1" />
          </clipPath>
          <path
             style="fill:#010101"
             inkscape:connector-curvature="0"
             id="path32"
             d="m 966.804,599.787 c 0.083,0.097 1.315,1.982 1.315,1.982 0,0 -0.651,0.576 -1.729,0.682 -1.076,0.104 -2.557,-0.207 -2.557,-0.207 0,0 1.953,0.836 2.666,0.713 0.715,-0.122 1.945,-1.065 1.945,-1.065 z"
             clip-path="url(#SVGID_2_-9)" />
        </g>
      </g>
      <path
         id="path38"
         d="m 62.389617,194.32476 c 0,0 0.522837,-0.60002 0.921551,-0.9673 0.360316,-0.3319 0.730455,-0.18387 0.730455,-0.18387 l 0.384426,0.38915 c 0,0 0.203151,1.06273 -0.08573,1.17723 -0.288877,0.11401 -0.857257,0.23229 -1.21534,0.13969 -0.358084,-0.0922 -0.735366,-0.55486 -0.735366,-0.55486"
         style="fill:#414141;stroke-width:0.45589152"
         inkscape:connector-curvature="0" />
      <g
         style="opacity:0.2"
         id="g50"
         transform="matrix(0.44648787,0,0,0.46549326,-354.34789,-85.665724)">
        <g
           id="g48">
          <defs
             id="defs41">
            <rect
               height="1.38"
               width="4.506"
               y="601.40002"
               x="933.36798"
               id="rect1408" />
          </defs>
          <clipPath
             id="clipPath1054">
            <use
               height="100%"
               width="100%"
               y="0"
               x="0"
               style="overflow:visible"
               id="use1052"
               overflow="visible"
               xlink:href="#SVGID_3_-4" />
          </clipPath>
          <path
             style="fill:#010101"
             inkscape:connector-curvature="0"
             id="path46"
             d="m 933.714,601.404 c 0,0 0.541,0.635 1.588,0.846 1.048,0.211 2.572,0.049 2.572,0.049 0,0 -2.088,0.637 -2.773,0.443 -0.685,-0.193 -1.734,-1.25 -1.734,-1.25 z"
             clip-path="url(#SVGID_4_-3)" />
        </g>
      </g>
      <path
         id="path52"
         d="m 79.98437,171.24839 c 0,0 0.10277,4.69311 -0.06885,7.7379 -0.130782,2.31118 -0.377733,3.04572 -0.377733,3.04572 l -13.572785,0.8593 c 0,0 0.166979,-1.48306 0.212527,-2.97125 0.09644,-3.15417 -0.487565,-7.52516 -0.487565,-7.52516 z"
         style="fill:#dbdcd9;stroke-width:0.45589152"
         inkscape:connector-curvature="0" />
      <path
         id="path54"
         d="m 74.027769,180.78682 c 0.462109,-0.0885 0.92334,-0.18107 1.38501,-0.27279 -0.02413,-0.28301 -0.04641,-0.53903 -0.06834,-0.74526 -0.162002,-1.56405 -0.72153,-3.92316 -0.72153,-3.92316 l -2.165017,0.0535 c 0,0 -0.223245,2.09566 -0.790285,3.65412 -0.154492,0.42546 -0.380855,0.97102 -0.628209,1.53893 1.001026,0.0334 2.006071,-0.11647 2.988342,-0.30537"
         style="fill:#c23331;stroke-width:0.45589152"
         inkscape:connector-curvature="0" />
      <path
         id="path56"
         d="m 75.593596,175.14784 c 0,0.86999 -0.976901,1.57616 -2.182425,1.57616 -1.20507,0 -2.181987,-0.70617 -2.181987,-1.57616 0,-0.87095 0.976917,-1.57664 2.181987,-1.57664 1.205524,0 2.182425,0.70569 2.182425,1.57664"
         style="fill:#c23331;stroke-width:0.45589152"
         inkscape:connector-curvature="0" />
      <path
         id="path58"
         d="m 65.758815,171.74043 c 0,0 0.393803,2.15848 0.941642,3.47863 0.534893,1.28754 1.639951,3.09971 2.784746,3.94598 0,0 1.388577,-2.39915 2.319951,-3.32129 0.534893,-0.52974 1.564494,-1.03666 1.564494,-1.03666 0,0 1.664959,0.19736 3.26025,1.47004 1.71183,1.36574 1.964991,2.40565 1.964991,2.40565 0,0 1.258649,-3.34317 1.357773,-4.90443 0.09821,-1.55335 0.03257,-2.96147 0.03257,-2.96147 0,0 0.486679,-3.38041 -7.513496,-3.33199 -6.630345,0.0387 -6.712946,4.25554 -6.712946,4.25554"
         style="fill:#f5f6f6;stroke-width:0.45589152"
         inkscape:connector-curvature="0" />
      <path
         id="path60"
         d="m 65.758815,170.47009 -0.370138,1.68741 c 0,0 1.160422,5.53192 0.575969,10.73381 l 6.796884,0.33097 0.440684,-0.55627 0.118767,-3.05271 -4.557301,-6.21619 z"
         style="fill:#646462;stroke-width:0.45589152"
         inkscape:connector-curvature="0" />
      <path
         id="path62"
         d="m 79.537433,182.03154 c 0,0 0.831353,-3.61781 0.379066,-10.87205 l -2.508809,1.87407 -4.190295,6.56531 -0.01519,3.00803 0.450952,0.5516 z"
         style="fill:#646462;stroke-width:0.45589152"
         inkscape:connector-curvature="0" />
      <polygon
         id="polygon64"
         points="943.195,560.721 939.459,553.03 941.327,550.032 946.955,555.463 957.638,569.609 945.335,560.851 946.266,558.157 "
         style="fill:#7b7b7a"
         transform="matrix(0.44648787,0,0,0.46549326,-354.34789,-85.665724)" />
      <polygon
         id="polygon66"
         points="971.402,560.146 974.011,553.294 971.216,550.064 967.345,555.117 957.503,569.859 969.275,560.4 968.189,557.766 "
         style="fill:#7b7b7a"
         transform="matrix(0.44648787,0,0,0.46549326,-354.34789,-85.665724)" />
      <path
         id="path68"
         d="m 80.104471,160.46897 c 0,0 0.613478,-1.52915 1.408668,-1.62457 0.946999,-0.11366 1.987317,0.15447 2.047595,0.36867 0.05974,0.21413 0.371472,2.56952 -0.642048,3.64527 -0.275925,0.29279 -1.345269,0.97754 -1.50646,1.37646 -0.160314,0.39893 -0.554534,0.78994 -1.185866,0.73595 -0.696066,-0.0591 -0.697854,-0.72803 -0.697854,-0.72803 z"
         style="fill:#904020;stroke-width:0.45589152"
         inkscape:connector-curvature="0" />
      <path
         id="path70"
         d="m 67.713986,164.83623 c 0,0 -0.324597,0.38635 -0.942982,0.53764 -0.618386,0.15165 -2.895922,-1.65623 -3.032101,-2.15617 -0.136182,-0.49993 -0.638477,-3.48422 -0.205383,-3.80493 0.433539,-0.32073 2.918245,-0.20064 3.538416,0.22949 0.620171,0.43056 0.660802,4.93795 0.660802,4.93795 z"
         style="fill:#904020;stroke-width:0.45589152"
         inkscape:connector-curvature="0" />
      <path
         id="path72"
         d="m 63.738458,149.96231 c -0.06251,0.11365 2.040448,20.70235 2.040448,20.70235 0,0 2.893689,4.07679 7.476887,4.13917 4.106789,0.0549 6.933509,-3.56381 6.933509,-3.56381 0,0 1.915429,-12.20803 2.002504,-13.59613 0.08623,-1.38811 0.387994,-8.17128 0.387994,-8.17128 0,0 -4.322903,-5.10041 -10.637129,-4.4017 -6.929491,0.76714 -8.204213,4.8914 -8.204213,4.8914"
         style="fill:#bf753d;stroke-width:0.45589152"
         inkscape:connector-curvature="0" />
      <path
         id="path74"
         d="m 67.126854,170.01484 c -0.585346,-0.99802 -0.728668,-20.77356 -0.751886,-23.10663 -2.124836,1.40626 -2.63651,3.05457 -2.63651,3.05457 -0.06251,0.11366 2.040448,20.70235 2.040448,20.70235 0,0 2.893689,4.07679 7.477334,4.1387 0.990315,0.0141 1.906061,-0.1876 2.725805,-0.49993 -0.592942,-0.001 -5.844971,0.84346 -8.855191,-4.28906"
         style="fill:#b3692f;stroke-width:0.45589152"
         inkscape:connector-curvature="0" />
      <g
         style="opacity:0.5"
         id="g96"
         transform="matrix(0.44648787,0,0,0.46549326,-354.34789,-85.665724)">
        <g
           id="g94">
          <defs
             id="defs77">
            <rect
               height="6.04"
               width="9.6120005"
               y="535.09003"
               x="953.12"
               id="rect1428" />
          </defs>
          <clipPath
             id="clipPath1075">
            <use
               height="100%"
               width="100%"
               y="0"
               x="0"
               style="overflow:visible"
               id="use1073"
               overflow="visible"
               xlink:href="#SVGID_5_-4" />
          </clipPath>
          <g
             style="opacity:0.7"
             id="g92"
             clip-path="url(#SVGID_6_-1)">
            <g
               id="g90">
              <defs
                 id="defs83">
                <rect
                   height="6.04"
                   width="9.6120005"
                   y="535.09003"
                   x="953.12"
                   id="rect1433" />
              </defs>
              <clipPath
                 id="clipPath1081">
                <use
                   height="100%"
                   width="100%"
                   y="0"
                   x="0"
                   style="overflow:visible"
                   id="use1079"
                   overflow="visible"
                   xlink:href="#SVGID_7_-5" />
              </clipPath>
              <polygon
                 style="fill:#b3692f"
                 id="polygon88"
                 points="953.543,537.179 953.12,539.347 954.962,540.54 958.496,541.13 962.732,537.526 954.043,537.526 955.433,535.093 "
                 clip-path="url(#SVGID_8_-5)" />
            </g>
          </g>
        </g>
      </g>
      <path
         id="path98"
         d="m 65.909727,156.36518 -0.18038,-0.81415 c 0,0 0.644281,-0.75735 2.144927,-1.76049 1.501092,-1.0036 2.98879,-1.35785 2.98879,-1.35785 l 0.687591,2.38099 c 0,0 -1.843102,0.19411 -2.657496,0.39195 -0.712147,0.17312 -2.983432,1.15955 -2.983432,1.15955"
         style="fill:#553423;stroke-width:0.45589152"
         inkscape:connector-curvature="0" />
      <path
         id="path100"
         d="m 74.900214,155.71581 0.175012,-2.17524 c 1.956064,-0.026 3.732644,0.81181 5.762385,1.29826 l -0.09467,0.86209 z"
         style="fill:#553423;stroke-width:0.45589152"
         inkscape:connector-curvature="0" />
      <path
         id="path102"
         d="m 69.24276,168.42192 c 0,0 3.139703,-0.43664 5.062723,-0.67637 1.458231,-0.182 3.55851,-0.68567 3.55851,-0.68567 l -0.656341,0.30025 c 0,0 -0.14732,0.71081 -0.503183,1.87919 -0.318349,1.04643 -0.697415,1.38625 -0.697415,1.38625 0,0 -0.668391,0.37424 -2.085547,0.41242 -1.689064,0.0466 -2.744562,-1.03293 -2.744562,-1.03293 l -1.336338,-1.46724 z"
         style="fill:#904020;stroke-width:0.45589152"
         inkscape:connector-curvature="0" />
      <polygon
         id="polygon104"
         points="964.694,547.218 953.098,547.494 952.203,546.168 965.693,544.328 "
         style="fill:#f6e7de"
         transform="matrix(0.44648787,0,0,0.46549326,-354.34789,-85.665724)" />
      <path
         id="path106"
         d="m 76.29415,169.52467 -0.404969,0.79553 c 0,0 -0.433539,0.22298 -1.733262,0.25742 -1.401086,0.0373 -2.025723,-0.23554 -2.535164,-0.57768 l -0.04734,-0.48271 z"
         style="fill:#f6e7de;stroke-width:0.45589152"
         inkscape:connector-curvature="0" />
      <path
         id="path108"
         d="m 63.396001,149.98792 c 0,0 10.087054,-3.55917 18.001054,0.48551 0.582209,-0.12157 1.472963,-1.1926 1.577437,-1.48307 1.87481,-5.18838 -4.244315,-8.121 -13.06066,-6.28276 -7.914444,1.65018 -6.517831,7.28032 -6.517831,7.28032"
         style="fill:#553423;stroke-width:0.45589152"
         inkscape:connector-curvature="0" />
      <path
         id="path110"
         d="m 65.035059,145.34322 0.219225,-1.33084 c 0,0 12.086867,-7.56379 19.341858,0 0,0 0.542923,3.23565 -0.194233,6.67378 0,0 -0.126395,-4.20667 -1.032725,-5.25821 -0.906819,-1.05202 -3.467873,-2.42709 -6.725448,-2.2246 0,0 4.719383,1.52264 5.992764,4.72848 0,0 -4.596584,-4.36493 -17.601441,-2.58861"
         style="fill:#643d29;stroke-width:0.45589152"
         inkscape:connector-curvature="0" />
      <path
         id="path112"
         d="m 68.039028,158.92726 c 0,-0.82672 0.309417,-1.49657 0.69161,-1.49657 0.382193,4.6e-4 0.692056,0.67077 0.692056,1.49703 4.47e-4,0.82671 -0.309415,1.49657 -0.69161,1.49657 -0.382193,0 -0.692056,-0.67031 -0.692056,-1.49703"
         style="fill:#224352;stroke-width:0.45589152"
         inkscape:connector-curvature="0" />
      <g
         style="opacity:0.5"
         id="g124"
         transform="matrix(0.44648787,0,0,0.46549326,-354.34789,-85.665724)">
        <g
           id="g122">
          <defs
             id="defs115">
            <rect
               height="2.25"
               width="0.93099999"
               y="523.28998"
               x="946.45599"
               id="rect1451" />
          </defs>
          <clipPath
             id="clipPath1100">
            <use
               height="100%"
               width="100%"
               y="0"
               x="0"
               style="overflow:visible"
               id="use1098"
               overflow="visible"
               xlink:href="#SVGID_9_-9" />
          </clipPath>
          <path
             style="fill:#ffffff"
             inkscape:connector-curvature="0"
             id="path120"
             d="m 946.456,524.413 c 0,-0.621 0.208,-1.125 0.465,-1.125 0.258,10e-4 0.467,0.504 0.467,1.125 0,0.621 -0.209,1.124 -0.466,1.124 -0.257,0 -0.466,-0.503 -0.466,-1.124"
             clip-path="url(#SVGID_10_-2)" />
        </g>
      </g>
      <path
         id="path126"
         d="m 76.884392,158.92726 c 0,-0.82672 0.309422,-1.49657 0.69161,-1.49657 0.381749,4.6e-4 0.692505,0.67077 0.692505,1.49703 0,0.82671 -0.309406,1.49657 -0.692049,1.49657 -0.382644,0 -0.692066,-0.67031 -0.692066,-1.49703"
         style="fill:#224352;stroke-width:0.45589152"
         inkscape:connector-curvature="0" />
      <g
         style="opacity:0.5"
         id="g138"
         transform="matrix(0.44648787,0,0,0.46549326,-354.34789,-85.665724)">
        <g
           id="g136">
          <defs
             id="defs129">
            <rect
               height="2.25"
               width="0.93099999"
               y="523.28998"
               x="966.26801"
               id="rect1460" />
          </defs>
          <clipPath
             id="clipPath1110">
            <use
               height="100%"
               width="100%"
               y="0"
               x="0"
               style="overflow:visible"
               id="use1108"
               overflow="visible"
               xlink:href="#SVGID_11_-3" />
          </clipPath>
          <path
             style="fill:#ffffff"
             inkscape:connector-curvature="0"
             id="path134"
             d="m 966.267,524.413 c 0,-0.621 0.208,-1.125 0.465,-1.125 0.258,10e-4 0.466,0.504 0.467,1.125 0,0.621 -0.209,1.124 -0.466,1.124 -0.257,0 -0.466,-0.503 -0.466,-1.124"
             clip-path="url(#SVGID_12_-4)" />
        </g>
      </g>
      <polygon
         id="polygon140"
         points="954.043,537.526 955.433,535.093 956.558,526.752 958.288,523.624 960.139,526.752 961.342,535.093 962.732,537.526 958.595,539.264 "
         style="fill:#cc7e43"
         transform="matrix(0.44648787,0,0,0.46549326,-354.34789,-85.665724)" />
      <line
         id="line142"
         y2="158.14571"
         x2="72.137787"
         y1="158.12753"
         x1="74.814949"
         stroke-miterlimit="10"
         style="fill:none;stroke:#272626;stroke-width:1.10918427;stroke-miterlimit:10" />
      <g
         style="opacity:0.5"
         id="g154"
         transform="matrix(0.44648787,0,0,0.46549326,-354.34789,-85.665724)">
        <g
           id="g152">
          <defs
             id="defs145">
            <rect
               height="10.74"
               width="19.148001"
               y="521.14001"
               x="936.242"
               id="rect1470" />
          </defs>
          <clipPath
             id="clipPath1121">
            <use
               height="100%"
               width="100%"
               y="0"
               x="0"
               style="overflow:visible"
               id="use1119"
               overflow="visible"
               xlink:href="#SVGID_13_-6" />
          </clipPath>
          <polygon
             style="fill:#3ba0d9"
             id="polygon150"
             points="938.328,531.878 936.242,522.634 955.39,521.141 954,531.878 "
             clip-path="url(#SVGID_14_-1)" />
        </g>
      </g>
      <polygon
         id="polygon156"
         points="936.242,522.634 955.39,521.141 954,531.878 938.328,531.878 "
         stroke-miterlimit="10"
         style="fill:none;stroke:#272626;stroke-width:1.73800004;stroke-miterlimit:10"
         transform="matrix(0.44648787,0,0,0.46549326,-354.34789,-85.665724)" />
      <g
         style="opacity:0.5"
         id="g168"
         transform="matrix(0.44648787,0,0,0.46549326,-354.34789,-85.665724)">
        <g
           id="g166">
          <defs
             id="defs159">
            <rect
               height="10.74"
               width="18.105"
               y="521.14001"
               x="960.91803"
               id="rect1479" />
          </defs>
          <clipPath
             id="clipPath1131">
            <use
               height="100%"
               width="100%"
               y="0"
               x="0"
               style="overflow:visible"
               id="use1129"
               overflow="visible"
               xlink:href="#SVGID_15_-5" />
          </clipPath>
          <polygon
             style="fill:#3ba0d9"
             id="polygon164"
             points="962.309,531.878 960.918,521.141 979.023,522.184 977.286,531.878 "
             clip-path="url(#SVGID_16_-1)" />
        </g>
      </g>
      <polygon
         id="polygon170"
         points="960.918,521.141 979.023,522.184 977.286,531.878 962.309,531.878 "
         stroke-miterlimit="10"
         style="fill:none;stroke:#272626;stroke-width:1.73800004;stroke-miterlimit:10"
         transform="matrix(0.44648787,0,0,0.46549326,-354.34789,-85.665724)" />
      <g
         style="opacity:0.1"
         id="g182"
         transform="matrix(0.44648787,0,0,0.46549326,-354.34789,-85.665724)">
        <g
           id="g180">
          <defs
             id="defs173">
            <rect
               height="9.7299995"
               width="3.1470001"
               y="492.51999"
               x="935.51001"
               id="rect1488" />
          </defs>
          <clipPath
             id="clipPath1141">
            <use
               height="100%"
               width="100%"
               y="0"
               x="0"
               style="overflow:visible"
               id="use1139"
               overflow="visible"
               xlink:href="#SVGID_17_-1" />
          </clipPath>
          <path
             style="fill:#010101"
             inkscape:connector-curvature="0"
             id="path178"
             d="m 935.51,496.683 0.459,5.565 c 0,0 0.826,-4.605 2.688,-9.732 0,0 -1.949,2.086 -3.147,4.167"
             clip-path="url(#SVGID_18_-8)" />
        </g>
      </g>
      <polygon
         id="polygon184"
         points="955.785,541.453 951.786,543.412 948.191,541.975 951.71,544.646 956.064,543.907 957.912,543.894 959.159,542.526 958.253,541.818 "
         style="fill:#553423"
         transform="matrix(0.44648787,0,0,0.46549326,-354.34789,-85.665724)" />
      <polygon
         id="polygon186"
         points="960.453,540.746 964.93,541.729 968.057,539.194 965.637,542.682 961.581,543.045 959.605,543.632 958.131,542.811 958.79,541.645 "
         style="fill:#553423"
         transform="matrix(0.44648787,0,0,0.46549326,-354.34789,-85.665724)" />
      <polygon
         id="polygon188"
         points="961.932,553.765 961.297,552.158 959.401,552.592 957.438,552.33 956.87,553.851 959.658,555.285 "
         style="fill:#553423"
         transform="matrix(0.44648787,0,0,0.46549326,-354.34789,-85.665724)" />
    </g>
  </g>
</svg>
