<?xml version="1.0" encoding="UTF-8" standalone="no"?>
<!-- Created with Inkscape (http://www.inkscape.org/) -->

<svg
   xmlns:dc="http://purl.org/dc/elements/1.1/"
   xmlns:cc="http://creativecommons.org/ns#"
   xmlns:rdf="http://www.w3.org/1999/02/22-rdf-syntax-ns#"
   xmlns:svg="http://www.w3.org/2000/svg"
   xmlns="http://www.w3.org/2000/svg"
   xmlns:sodipodi="http://sodipodi.sourceforge.net/DTD/sodipodi-0.dtd"
   xmlns:inkscape="http://www.inkscape.org/namespaces/inkscape"
   width="44.409897mm"
   height="44.409897mm"
   viewBox="0 0 44.409897 44.409897"
   version="1.1"
   id="svg3916"
   inkscape:version="0.92.4 (5da689c313, 2019-01-14)"
   sodipodi:docname="avatar1.svg">
  <defs
     id="defs3910">
    <clipPath
       clipPathUnits="userSpaceOnUse"
       id="clipPath3897">
      <circle
         style="opacity:0.5;vector-effect:none;fill:#4d4d4d;fill-opacity:1;fill-rule:evenodd;stroke:none;stroke-width:0.90107036;stroke-linecap:butt;stroke-linejoin:bevel;stroke-miterlimit:4;stroke-dasharray:none;stroke-dashoffset:0;stroke-opacity:1;paint-order:markers stroke fill"
         id="circle3899"
         cx="231.51881"
         cy="173.94919"
         r="22.204948" />
    </clipPath>
  </defs>
  <sodipodi:namedview
     id="base"
     pagecolor="#ffffff"
     bordercolor="#666666"
     borderopacity="1.0"
     inkscape:pageopacity="0.0"
     inkscape:pageshadow="2"
     inkscape:zoom="3.959798"
     inkscape:cx="23.07874"
     inkscape:cy="61.514735"
     inkscape:document-units="mm"
     inkscape:current-layer="layer1"
     showgrid="false"
     fit-margin-top="0"
     fit-margin-left="0"
     fit-margin-right="0"
     fit-margin-bottom="0"
     inkscape:window-width="3840"
     inkscape:window-height="2035"
     inkscape:window-x="3827"
     inkscape:window-y="809"
     inkscape:window-maximized="1" />
  <metadata
     id="metadata3913">
    <rdf:RDF>
      <cc:Work
         rdf:about="">
        <dc:format>image/svg+xml</dc:format>
        <dc:type
           rdf:resource="http://purl.org/dc/dcmitype/StillImage" />
        <dc:title></dc:title>
      </cc:Work>
    </rdf:RDF>
  </metadata>
  <g
     inkscape:label="Layer 1"
     inkscape:groupmode="layer"
     id="layer1"
     transform="translate(-51.122444,-137.96767)">
    <circle
       style="opacity:1;vector-effect:none;fill:#393939;fill-opacity:1;fill-rule:evenodd;stroke:none;stroke-width:0.90107036;stroke-linecap:butt;stroke-linejoin:bevel;stroke-miterlimit:4;stroke-dasharray:none;stroke-dashoffset:0;stroke-opacity:1;paint-order:markers stroke fill"
       id="path4672"
       cx="73.327393"
       cy="160.17262"
       r="22.204948" />
    <g
       id="g3887"
       transform="translate(-158.18619,-13.788338)"
       clip-path="url(#clipPath3897)">
      <path
         id="path2289"
         d="m 220.44561,177.76461 c 0,0 -4.04095,-8.63666 -3.57363,-18.04758 0.78917,-0.0297 2.62251,0.6231 2.62251,0.6231 0,0 1.29866,-2.05955 1.91148,-2.36544 9.57954,-4.77667 18.08047,-4.34943 22.26898,-0.75987 3.75203,3.21683 -3.22402,21.72967 -3.22402,21.72967 0,0 -12.85807,-4.21729 -20.00532,-1.17988"
         inkscape:connector-curvature="0"
         style="fill:#b46929;stroke-width:0.51411688" />
      <path
         id="path2291"
         d="m 238.31323,188.86438 c -0.006,-0.0412 -1.54132,3.75407 -0.44985,4.70468 1.72024,1.49762 2.20814,8.61865 2.18911,9.12712 -0.0313,0.85395 1.33463,-0.0715 1.33463,0.2879 0,-0.49097 1.09765,-11.57174 -3.07389,-14.1197"
         inkscape:connector-curvature="0"
         style="fill:#dbdcd9;stroke-width:0.51411688" />
      <path
         id="path2293"
         d="m 238.14511,205.96235 c 0.002,0.001 -0.11775,-0.02 0.13524,-0.57837 0.25911,-0.55627 0.45603,-1.0447 0.65345,-1.70378 0.20358,-0.65652 0.28482,-0.82979 0.70022,-1.05239 0.63597,-0.33933 1.85288,-0.31722 2.21893,-0.0663 0.35166,0.26118 0.94599,1.53723 1.19583,2.12434 0.19692,0.61231 0.62056,2.10686 0.51207,2.30479 -0.13368,0.20564 -0.6154,0.11212 -0.6154,0.11115 -0.01,0.002 -0.21851,-0.91513 -0.31413,-1.238 -0.0412,0.008 0.29563,1.96548 0.29922,2.44464 -0.0253,0.2663 -0.60563,0.33108 -0.65858,0.14709 -0.1125,-0.33006 -0.26117,-1.62666 -0.3244,-2.03693 -0.0812,-0.40924 -0.0756,-0.41027 -0.0766,-0.40975 -0.0637,0.004 0.13369,2.46211 -0.0136,2.93767 -5.1e-4,-0.004 -0.50795,0.37941 -0.78199,-0.0212 -0.01,-0.002 -0.0956,-1.26371 -0.16497,-2.16753 -0.0766,-0.9069 -0.0117,-1.00613 -0.0587,-0.90742 -0.0571,0.10435 0.0472,1.66418 -0.1846,2.8004 -0.001,0 -0.056,0.26528 -0.37479,0.2802 -0.31822,0.0136 -0.36657,-0.20976 -0.40152,-0.47711 -0.0391,-0.31205 0.0765,-1.10331 0.0231,-2.14643 -0.0509,-1.04468 -0.19946,-1.73721 -0.20358,-1.73824 -0.0136,-0.006 -0.51104,1.2272 -0.81436,1.49609 -0.41233,0.33729 -0.75217,-0.0997 -0.75114,-0.10279"
         inkscape:connector-curvature="0"
         style="fill:#fbc59a;stroke-width:0.51411688" />
      <path
         id="path2295"
         d="m 222.84448,188.86438 c 0.006,-0.0412 1.54132,3.75407 0.44985,4.70468 -1.72024,1.49762 -2.20814,8.61865 -2.19014,9.12712 0.0319,0.85395 -1.33362,-0.0715 -1.33362,0.2879 5.2e-4,-0.49097 -1.09816,-11.57174 3.07391,-14.1197"
         inkscape:connector-curvature="0"
         style="fill:#dbdcd9;stroke-width:0.51411688" />
      <path
         id="path2297"
         d="m 223.01208,205.96235 c -0.002,0.001 0.11775,-0.02 -0.13524,-0.57837 -0.25912,-0.55627 -0.45602,-1.0447 -0.65344,-1.70378 -0.2036,-0.65652 -0.28431,-0.82979 -0.70024,-1.05239 -0.63596,-0.33933 -1.85286,-0.31722 -2.2184,-0.0663 -0.35217,0.26118 -0.94702,1.53723 -1.19583,2.12434 -0.19692,0.61231 -0.62056,2.10686 -0.51207,2.30479 0.1331,0.20564 0.6154,0.11212 0.6154,0.11115 0.008,0.002 0.21798,-0.91513 0.31413,-1.238 0.0406,0.008 -0.29613,1.96548 -0.29973,2.44464 0.0253,0.2663 0.60614,0.33108 0.65806,0.14709 0.11309,-0.33006 0.2622,-1.62666 0.32493,-2.03693 0.0806,-0.40924 0.0756,-0.41027 0.0765,-0.40975 0.0643,0.004 -0.13368,2.46211 0.0136,2.93767 5e-4,-0.004 0.50795,0.37941 0.78247,-0.0212 0.01,-0.002 0.0956,-1.26371 0.16458,-2.16753 0.0762,-0.9069 0.01,-1.00613 0.0587,-0.90742 0.0571,0.10435 -0.0468,1.66418 0.18498,2.8004 0.001,0 0.056,0.26528 0.37378,0.2802 0.31925,0.0136 0.36758,-0.20976 0.40152,-0.47711 0.04,-0.31205 -0.0762,-1.10331 -0.0225,-2.14643 0.0509,-1.04468 0.19949,-1.73721 0.20411,-1.73824 0.0136,-0.006 0.51102,1.2272 0.81436,1.49609 0.41231,0.33729 0.75164,-0.0997 0.75061,-0.10279"
         inkscape:connector-curvature="0"
         style="fill:#fbc59a;stroke-width:0.51411688" />
      <path
         id="path2299"
         d="m 238.13842,200.56825 -0.6961,3.87439 c -0.0431,0.24419 -0.24318,0.4118 -0.48018,0.47503 -1.67295,0.4442 -5.07794,0.80512 -8.51275,1.06217 -2.76545,0.2072 -5.08668,0.10337 -6.13703,-0.04 -0.32646,-0.0447 -0.53107,-0.44932 -0.4483,-0.77837 l 0.71256,-3.55408 z"
         inkscape:connector-curvature="0"
         style="fill:#5494b3;stroke-width:0.51411688" />
      <path
         id="path2301"
         d="m 237.74308,202.38822 0.39587,-1.81997 -15.5613,1.03903 -0.34651,1.72949 c 5.26404,-0.27608 10.40727,-0.79021 15.51194,-0.94855"
         inkscape:connector-curvature="0"
         style="fill:#333333;stroke-width:0.51411688" />
      <path
         id="path2303"
         d="m 237.52611,204.01848 c 0,0 -0.91511,5.03784 -1.44209,6.69742 -0.52594,1.65904 -0.62877,2.19732 -0.62877,2.19732 0,0 -0.78916,-0.14807 -0.82721,-0.31259 -0.0385,-0.16497 0.84829,-2.83946 0.85754,-5.28563 0.008,-1.95672 -0.84675,-3.03226 -0.84675,-3.03226 0,0 1.29095,-1.24056 2.09965,-1.30945 0.80924,-0.0684 0.78763,1.04519 0.78763,1.04519"
         inkscape:connector-curvature="0"
         style="fill:#5494b3;stroke-width:0.51411688" />
      <path
         id="path2305"
         d="m 224.37655,205.98138 c 0,0 -1.17784,1.1033 -2.08731,2.85232 -0.90897,1.74902 -1.63285,3.94791 -1.63285,3.94791 l -0.65961,0.1846 -0.18867,-0.28121 2.07241,-7.56833 c 0,0 0.24575,-1.0822 1.52127,-0.54959 1.27603,0.53212 0.97476,1.41433 0.97476,1.41433"
         inkscape:connector-curvature="0"
         style="fill:#5494b3;stroke-width:0.51411688" />
      <polygon
         transform="matrix(0.51411693,0,0,0.51411693,-52.191117,-34.372905)"
         id="polygon2307"
         points="559.592,481.792 559.745,481.838 560.778,479.073 557.971,478.617 557.477,481.447 "
         style="fill:#b9d7e6" />
      <polygon
         transform="matrix(0.51411693,0,0,0.51411693,-52.191117,-34.372905)"
         id="polygon2309"
         points="528.282,481.54 528.977,478.512 531.756,479.1 530.994,481.88 528.901,481.436 "
         style="fill:#b9d7e6" />
      <path
         id="path2311"
         d="m 236.42745,214.42988 c 0,0 -0.47659,-0.7167 -0.85756,-1.16398 -0.34342,-0.4046 -0.79637,-0.2843 -0.79637,-0.2843 l -0.51667,0.382 c 0,0 -0.44523,1.14032 -0.13932,1.29814 0.30691,0.15778 0.93157,0.35217 1.3583,0.29201 0.42773,-0.0606 0.95162,-0.52387 0.95162,-0.52387"
         inkscape:connector-curvature="0"
         style="fill:#ad5b27;stroke-width:0.51411688" />
      <path
         id="path2325"
         d="m 218.39326,214.22473 c 0,0 0.60152,-0.6627 1.06062,-1.06885 0.41489,-0.36655 0.8416,-0.20255 0.8416,-0.20255 l 0.44216,0.42979 c 0,0 0.23391,1.17373 -0.0987,1.3002 -0.33214,0.12592 -0.9866,0.25655 -1.39893,0.15429 -0.41181,-0.10124 -0.84674,-0.61284 -0.84674,-0.61284"
         inkscape:connector-curvature="0"
         style="fill:#ad5b27;stroke-width:0.51411688" />
      <path
         id="path2339"
         d="m 238.65255,188.7379 c 0,0 0.11815,5.18333 -0.0793,8.54617 -0.14962,2.55258 -0.43494,3.36335 -0.43494,3.36335 l -15.62814,0.94906 c 0,0 0.19276,-1.63798 0.24473,-3.2816 0.11115,-3.48367 -0.56193,-8.31123 -0.56193,-8.31123 z"
         inkscape:connector-curvature="0"
         style="fill:#dbdcd9;stroke-width:0.51411688" />
      <path
         id="path2341"
         d="m 229.98659,193.87495 c 0,0 -0.25705,2.31456 -0.9105,4.03582 -0.65293,1.72075 -2.41276,5.2224 -2.41276,5.2224 l 3.56079,3.83789 3.48108,-3.67954 c 0,0 -0.237,-3.67953 -0.39535,-5.14323 -0.18615,-1.72743 -0.83082,-4.33298 -0.83082,-4.33298 z"
         inkscape:connector-curvature="0"
         style="fill:#d94248;stroke-width:0.51411688" />
      <path
         id="path2343"
         d="m 233.59671,193.04415 c 0,0.96139 -1.12487,1.7408 -2.51249,1.7408 -1.38707,0 -2.51247,-0.77941 -2.51247,-1.7408 0,-0.9614 1.12487,-1.7408 2.51247,-1.7408 1.38813,0 2.51249,0.7794 2.51249,1.7408"
         inkscape:connector-curvature="0"
         style="fill:#d94248;stroke-width:0.51411688" />
      <path
         id="path2345"
         d="m 222.27227,189.28081 c 0,0 0.45395,2.38396 1.08479,3.84147 0.61538,1.42205 1.88784,3.42403 3.2055,4.35818 0,0 1.59942,-2.64975 2.67187,-3.66771 0.61591,-0.58508 1.80147,-1.14495 1.80147,-1.14495 0,0 1.91715,0.218 3.75461,1.6236 1.97112,1.5079 2.2621,2.65694 2.2621,2.65694 0,0 1.44929,-3.69237 1.56343,-5.41674 0.11251,-1.7156 0.0375,-3.27131 0.0375,-3.27131 0,0 0.55988,-3.73301 -8.65206,-3.68006 -7.63362,0.0437 -7.72925,4.70058 -7.72925,4.70058"
         inkscape:connector-curvature="0"
         style="fill:#f5f6f6;stroke-width:0.51411688" />
      <path
         id="path2347"
         d="m 238.79135,176.83251 c 0,0 0.7059,-1.68888 1.62204,-1.79428 1.08993,-0.12552 2.28783,0.17061 2.35724,0.40718 0.0694,0.2365 0.42773,2.83793 -0.7393,4.02605 -0.31772,0.32337 -1.54956,1.07964 -1.73515,1.52024 -0.1846,0.4406 -0.63802,0.87246 -1.36549,0.81282 -0.80152,-0.0653 -0.80255,-0.80408 -0.80255,-0.80408 z"
         inkscape:connector-curvature="0"
         style="fill:#d78263;stroke-width:0.51411688" />
      <path
         id="path2349"
         d="m 224.5241,181.65593 c 0,0 -0.37429,0.42673 -1.08582,0.59382 -0.71206,0.16769 -3.33354,-1.82923 -3.49033,-2.38139 -0.15778,-0.55217 -0.73623,-3.84817 -0.23752,-4.20238 0.49971,-0.35423 3.36025,-0.2216 4.07437,0.25346 0.71514,0.47556 0.76088,5.45373 0.76088,5.45373 z"
         inkscape:connector-curvature="0"
         style="fill:#d78263;stroke-width:0.51411688" />
      <path
         id="path2351"
         d="m 219.9464,165.22838 c -0.0719,0.12552 2.349,22.86482 2.349,22.86482 0,0 3.33147,4.50213 8.60941,4.57101 4.72884,0.0612 7.98372,-3.93608 7.98372,-3.93608 0,0 2.20555,-13.48323 2.30529,-15.01633 0.0993,-1.53308 0.44677,-9.02479 0.44677,-9.02479 0,0 -4.97767,-5.63318 -12.2478,-4.86149 -7.9791,0.84725 -9.44639,5.40286 -9.44639,5.40286"
         inkscape:connector-curvature="0"
         style="fill:#fbc59a;stroke-width:0.51411688" />
      <path
         id="path2387"
         d="m 221.62654,172.59362 0.2077,-0.8992 c 0,0 1.03492,-0.42518 3.07391,-0.66064 2.0395,-0.23598 3.74997,0.16555 3.74997,0.16555 l -0.44523,2.71042 c 0,0 -1.99991,-0.74033 -2.93869,-0.95625 -0.82002,-0.18868 -3.64766,-0.35988 -3.64766,-0.35988"
         inkscape:connector-curvature="0"
         style="fill:#b46929;stroke-width:0.51411688" />
      <path
         id="path2389"
         d="m 232.67902,171.3474 0.59226,-2.34078 c 2.21893,0.34086 4.07746,1.59118 6.28611,2.50478 l -0.26322,0.92335 z"
         inkscape:connector-curvature="0"
         style="fill:#b46929;stroke-width:0.51411688" />
      <path
         id="path2391"
         d="m 225.41505,185.1401 c 0,0 0.89817,0.6586 1.85444,0.73983 2.24823,0.19081 5.85887,0.0365 6.84032,-0.0643 1.39839,-0.14302 2.74178,-0.44985 2.74178,-0.44985 l -0.18867,-0.72389 0.64727,1.21229 -0.54034,-0.29922 -1.13259,0.24165 c 0,0 -0.92438,0.23391 -2.9644,0.48737 -2.00711,0.24883 -4.09392,0.0325 -4.88411,-0.0447 -1.22104,-0.11931 -2.04568,-0.68736 -2.04568,-0.68736 z"
         inkscape:connector-curvature="0"
         style="fill:#d78263;stroke-width:0.51411688" />
      <polygon
         transform="matrix(0.51411693,0,0,0.51411693,-52.191117,-34.372905)"
         id="polygon2393"
         points="539.206,426.524 539.446,427.858 540.584,425.628 "
         style="fill:#d78263" />
      <path
         id="path2395"
         d="m 219.55208,165.25665 c 0,0 11.61441,-3.93095 20.72714,0.53622 0.67039,-0.13427 1.69607,-1.31716 1.8174,-1.63797 2.15826,-5.73035 -4.88771,-8.9693 -15.03998,-6.93905 -9.11272,1.82255 -7.50456,8.0408 -7.50456,8.0408"
         inkscape:connector-curvature="0"
         style="fill:#b46929;stroke-width:0.51411688" />
      <path
         id="path2397"
         d="m 221.43939,160.12627 0.25243,-1.46987 c 0,0 13.91715,-8.35388 22.27155,0 0,0 0.62568,3.57365 -0.22416,7.37091 0,0 -0.14495,-4.64607 -1.18915,-5.80748 -1.04417,-1.1619 -3.99315,-2.68061 -7.74465,-2.45695 0,0 5.43421,1.68167 6.90048,5.2224 5.1e-4,0 -5.29231,-4.82088 -20.2665,-2.85901"
         inkscape:connector-curvature="0"
         style="fill:#c27b2d;stroke-width:0.51411688" />
      <path
         id="path2399"
         d="m 224.89785,175.12975 c 0,-0.91307 0.35629,-1.65289 0.79637,-1.65289 0.43958,5.1e-4 0.7974,0.74083 0.7974,1.6534 0,0.91307 -0.35627,1.6529 -0.79687,1.6529 -0.44061,0 -0.7969,-0.74086 -0.7969,-1.65341"
         inkscape:connector-curvature="0"
         style="fill:#224352;stroke-width:0.51411688" />
      <path
         id="path2413"
         d="m 235.08302,175.12975 c 0,-0.91307 0.35629,-1.65289 0.79637,-1.65289 0.4401,5.1e-4 0.7974,0.74083 0.79792,1.6534 0,0.91307 -0.35679,1.6529 -0.79689,1.6529 -0.4406,0 -0.7974,-0.74086 -0.7974,-1.65341"
         inkscape:connector-curvature="0"
         style="fill:#224352;stroke-width:0.51411688" />
      <polygon
         transform="matrix(0.51411693,0,0,0.51411693,-52.191117,-34.372905)"
         id="polygon2427"
         points="553.079,408.803 554.282,417.144 555.672,419.577 551.536,421.314 546.983,419.577 548.375,417.144 549.499,408.803 551.229,405.675 "
         style="fill:#fdcea9" />
      <line
         id="line2429"
         y2="174.26602"
         x2="229.61745"
         y1="174.24648"
         x1="232.70015"
         stroke-miterlimit="10"
         style="fill:none;stroke:#3c3c3b;stroke-width:1.25084662;stroke-miterlimit:10" />
      <polygon
         transform="matrix(0.51411693,0,0,0.51411693,-52.191117,-34.372905)"
         id="polygon2443"
         points="531.268,413.929 529.182,404.685 548.331,403.192 546.94,413.929 "
         stroke-miterlimit="10"
         style="fill:none;stroke:#3c3c3b;stroke-width:1.73800004;stroke-miterlimit:10" />
      <polygon
         transform="matrix(0.51411693,0,0,0.51411693,-52.191117,-34.372905)"
         id="polygon2457"
         points="571.964,404.235 570.227,413.929 555.25,413.929 553.858,403.192 "
         stroke-miterlimit="10"
         style="fill:none;stroke:#3c3c3b;stroke-width:1.73800004;stroke-miterlimit:10" />
    </g>
  </g>
</svg>
