<?xml version="1.0" encoding="UTF-8" standalone="no"?>
<!-- Created with Inkscape (http://www.inkscape.org/) -->

<svg
   xmlns:dc="http://purl.org/dc/elements/1.1/"
   xmlns:cc="http://creativecommons.org/ns#"
   xmlns:rdf="http://www.w3.org/1999/02/22-rdf-syntax-ns#"
   xmlns:svg="http://www.w3.org/2000/svg"
   xmlns="http://www.w3.org/2000/svg"
   xmlns:xlink="http://www.w3.org/1999/xlink"
   xmlns:sodipodi="http://sodipodi.sourceforge.net/DTD/sodipodi-0.dtd"
   xmlns:inkscape="http://www.inkscape.org/namespaces/inkscape"
   width="44.409897mm"
   height="44.409897mm"
   viewBox="0 0 44.409897 44.409897"
   version="1.1"
   id="svg3916"
   inkscape:version="0.92.4 (5da689c313, 2019-01-14)"
   sodipodi:docname="avatar2.svg">
  <defs
     id="defs3910">
    <clipPath
       clipPathUnits="userSpaceOnUse"
       id="clipPath3897">
      <circle
         style="opacity:0.5;vector-effect:none;fill:#4d4d4d;fill-opacity:1;fill-rule:evenodd;stroke:none;stroke-width:0.90107036;stroke-linecap:butt;stroke-linejoin:bevel;stroke-miterlimit:4;stroke-dasharray:none;stroke-dashoffset:0;stroke-opacity:1;paint-order:markers stroke fill"
         id="circle3899"
         cx="231.51881"
         cy="173.94919"
         r="22.204948" />
    </clipPath>
    <clipPath
       id="SVGID_18_">
      <use
         xlink:href="#SVGID_17_"
         overflow="visible"
         id="use159"
         style="overflow:visible"
         x="0"
         y="0"
         width="100%"
         height="100%" />
    </clipPath>
    <clipPath
       id="SVGID_16_">
      <use
         xlink:href="#SVGID_15_"
         overflow="visible"
         id="use145"
         style="overflow:visible"
         x="0"
         y="0"
         width="100%"
         height="100%" />
    </clipPath>
    <clipPath
       id="SVGID_14_">
      <use
         xlink:href="#SVGID_13_"
         overflow="visible"
         id="use127"
         style="overflow:visible"
         x="0"
         y="0"
         width="100%"
         height="100%" />
    </clipPath>
    <clipPath
       id="SVGID_12_">
      <use
         xlink:href="#SVGID_11_"
         overflow="visible"
         id="use113"
         style="overflow:visible"
         x="0"
         y="0"
         width="100%"
         height="100%" />
    </clipPath>
    <clipPath
       id="SVGID_8_">
      <use
         xlink:href="#SVGID_7_"
         overflow="visible"
         id="use81"
         style="overflow:visible"
         x="0"
         y="0"
         width="100%"
         height="100%" />
    </clipPath>
    <clipPath
       id="SVGID_10_">
      <use
         xlink:href="#SVGID_9_"
         overflow="visible"
         id="use87"
         style="overflow:visible"
         x="0"
         y="0"
         width="100%"
         height="100%" />
    </clipPath>
    <clipPath
       id="SVGID_6_">
      <use
         xlink:href="#SVGID_5_"
         overflow="visible"
         id="use65"
         style="overflow:visible"
         x="0"
         y="0"
         width="100%"
         height="100%" />
    </clipPath>
    <clipPath
       id="SVGID_4_">
      <use
         xlink:href="#SVGID_3_"
         overflow="visible"
         id="use41"
         style="overflow:visible"
         x="0"
         y="0"
         width="100%"
         height="100%" />
    </clipPath>
    <clipPath
       id="SVGID_2_">
      <use
         xlink:href="#SVGID_1_"
         overflow="visible"
         id="use27"
         style="overflow:visible"
         x="0"
         y="0"
         width="100%"
         height="100%" />
    </clipPath>
    <rect
       id="SVGID_1_"
       x="966.646"
       y="591.78998"
       width="4.6129999"
       height="3.1800001" />
    <rect
       id="SVGID_3_"
       x="936.18103"
       y="593.40002"
       width="4.507"
       height="1.38" />
    <rect
       id="SVGID_5_"
       x="939.19897"
       y="493.73999"
       width="27.424999"
       height="57.82" />
    <rect
       id="SVGID_7_"
       x="955.93402"
       y="527.09003"
       width="9.6120005"
       height="6.04" />
    <rect
       id="SVGID_9_"
       x="955.93402"
       y="527.09003"
       width="9.6120005"
       height="6.04" />
    <rect
       id="SVGID_11_"
       x="949.26898"
       y="515.28998"
       width="0.93199998"
       height="2.25" />
    <rect
       id="SVGID_13_"
       x="969.08002"
       y="515.28998"
       width="0.93199998"
       height="2.25" />
    <rect
       id="SVGID_15_"
       x="941.59802"
       y="510.79001"
       width="16.566"
       height="16.559999" />
    <rect
       id="SVGID_17_"
       x="964.06403"
       y="510.79001"
       width="16.566"
       height="16.559999" />
    <clipPath
       id="SVGID_16_-8">
      <use
         xlink:href="#SVGID_15_-5"
         overflow="visible"
         id="use141"
         style="overflow:visible"
         x="0"
         y="0"
         width="100%"
         height="100%" />
    </clipPath>
    <clipPath
       id="SVGID_14_-1">
      <use
         xlink:href="#SVGID_13_-5"
         overflow="visible"
         id="use127-4"
         style="overflow:visible"
         x="0"
         y="0"
         width="100%"
         height="100%" />
    </clipPath>
    <clipPath
       id="SVGID_10_-7">
      <use
         xlink:href="#SVGID_9_-8"
         overflow="visible"
         id="use95"
         style="overflow:visible"
         x="0"
         y="0"
         width="100%"
         height="100%" />
    </clipPath>
    <clipPath
       id="SVGID_12_-1">
      <use
         xlink:href="#SVGID_11_-2"
         overflow="visible"
         id="use101"
         style="overflow:visible"
         x="0"
         y="0"
         width="100%"
         height="100%" />
    </clipPath>
    <clipPath
       id="SVGID_8_-9">
      <use
         xlink:href="#SVGID_7_-1"
         overflow="visible"
         id="use83"
         style="overflow:visible"
         x="0"
         y="0"
         width="100%"
         height="100%" />
    </clipPath>
    <clipPath
       id="SVGID_6_-4">
      <use
         xlink:href="#SVGID_5_-0"
         overflow="visible"
         id="use69"
         style="overflow:visible"
         x="0"
         y="0"
         width="100%"
         height="100%" />
    </clipPath>
    <clipPath
       id="SVGID_4_-7">
      <use
         xlink:href="#SVGID_3_-7"
         overflow="visible"
         id="use43"
         style="overflow:visible"
         x="0"
         y="0"
         width="100%"
         height="100%" />
    </clipPath>
    <clipPath
       id="SVGID_2_-0">
      <use
         xlink:href="#SVGID_1_-1"
         overflow="visible"
         id="use29"
         style="overflow:visible"
         x="0"
         y="0"
         width="100%"
         height="100%" />
    </clipPath>
    <rect
       id="SVGID_1_-1"
       x="966.96399"
       y="593.78998"
       width="4.612"
       height="3.1800001" />
    <rect
       id="SVGID_3_-7"
       x="936.49799"
       y="595.40002"
       width="4.506"
       height="1.38" />
    <rect
       id="SVGID_5_-0"
       x="939.63202"
       y="495.73999"
       width="35.271999"
       height="57.82" />
    <rect
       id="SVGID_7_-1"
       x="941.79999"
       y="525.88"
       width="23.743999"
       height="25.261" />
    <rect
       id="SVGID_9_-8"
       x="956.25098"
       y="529.09003"
       width="9.6099997"
       height="6.04" />
    <rect
       id="SVGID_11_-2"
       x="956.25098"
       y="529.09003"
       width="9.6099997"
       height="6.04" />
    <rect
       id="SVGID_13_-5"
       x="949.586"
       y="517.28998"
       width="0.93099999"
       height="2.25" />
    <rect
       id="SVGID_15_-5"
       x="969.396"
       y="517.28998"
       width="0.93199998"
       height="2.25" />
    <clipPath
       clipPathUnits="userSpaceOnUse"
       id="clipPath1158">
      <circle
         style="opacity:1;vector-effect:none;fill:#ff0000;fill-opacity:0.42523367;fill-rule:evenodd;stroke:none;stroke-width:0.46629006;stroke-linecap:butt;stroke-linejoin:bevel;stroke-miterlimit:4;stroke-dasharray:none;stroke-dashoffset:0;stroke-opacity:1;paint-order:markers stroke fill"
         id="circle1160"
         cx="108.46759"
         cy="154.82173"
         r="11.49072" />
    </clipPath>
  </defs>
  <sodipodi:namedview
     id="base"
     pagecolor="#ffffff"
     bordercolor="#666666"
     borderopacity="1.0"
     inkscape:pageopacity="0.0"
     inkscape:pageshadow="2"
     inkscape:zoom="1.979899"
     inkscape:cx="68.614113"
     inkscape:cy="13.407761"
     inkscape:document-units="mm"
     inkscape:current-layer="layer1"
     showgrid="false"
     fit-margin-top="0"
     fit-margin-left="0"
     fit-margin-right="0"
     fit-margin-bottom="0"
     inkscape:window-width="1920"
     inkscape:window-height="1017"
     inkscape:window-x="-8"
     inkscape:window-y="-8"
     inkscape:window-maximized="1" />
  <metadata
     id="metadata3913">
    <rdf:RDF>
      <cc:Work
         rdf:about="">
        <dc:format>image/svg+xml</dc:format>
        <dc:type
           rdf:resource="http://purl.org/dc/dcmitype/StillImage" />
        <dc:title />
      </cc:Work>
    </rdf:RDF>
  </metadata>
  <g
     inkscape:label="Layer 1"
     inkscape:groupmode="layer"
     id="layer1"
     transform="translate(-51.122444,-137.96767)">
    <circle
       style="opacity:1;vector-effect:none;fill:#393939;fill-opacity:1;fill-rule:evenodd;stroke:none;stroke-width:0.90107036;stroke-linecap:butt;stroke-linejoin:bevel;stroke-miterlimit:4;stroke-dasharray:none;stroke-dashoffset:0;stroke-opacity:1;paint-order:markers stroke fill"
       id="path4672"
       cx="73.327393"
       cy="160.17262"
       r="22.204948" />
    <g
       id="g1156"
       transform="matrix(1.9324246,0,0,1.9324246,-136.27804,-139.00871)"
       clip-path="url(#clipPath1158)">
      <path
         id="path4"
         d="m 103.56313,154.86635 -1.3171,-7.67954 c 0,0 3.57929,-2.25874 5.03,-2.50507 3.46154,-0.58764 7.32393,0.27596 7.32393,1.87378 -0.12647,2.95407 -1.20121,8.91831 -1.20121,8.91831 0,0 -6.15765,-2.17091 -9.83562,-0.60748"
         style="fill:#80400f;stroke-width:0.26458332"
         inkscape:connector-curvature="0" />
      <path
         id="path6"
         d="m 112.29835,160.57843 c -0.003,-0.0212 -0.79322,1.93199 -0.23151,2.42094 0.88556,0.771 1.13638,4.43574 1.12712,4.69741 -0.0164,0.43921 0.6866,-0.0368 0.6866,0.14817 0,-0.25268 0.56488,-5.95524 -1.58221,-7.26652"
         style="fill:#4a4a4a;stroke-width:0.26458332"
         inkscape:connector-curvature="0" />
      <path
         id="path8"
         d="m 112.2121,169.37768 c 10e-4,5.3e-4 -0.0606,-0.0103 0.0693,-0.29765 0.13361,-0.28628 0.23495,-0.53764 0.33628,-0.87657 0.10478,-0.33787 0.14658,-0.42704 0.36063,-0.5416 0.32729,-0.17463 0.95356,-0.16325 1.14167,-0.0344 0.18124,0.13468 0.48737,0.79111 0.61595,1.09326 0.10081,0.31512 0.31936,1.08453 0.263,1.18613 -0.0685,0.10557 -0.31618,0.0577 -0.31671,0.0572 -0.004,0.001 -0.11218,-0.47069 -0.16139,-0.63712 -0.0212,0.005 0.15213,1.0115 0.15399,1.25836 -0.0132,0.13706 -0.31195,0.17039 -0.33867,0.0754 -0.0582,-0.16987 -0.13494,-0.83714 -0.16722,-1.04802 -0.0415,-0.21087 -0.0389,-0.2114 -0.0394,-0.21113 -0.0325,0.002 0.0688,1.26708 -0.007,1.51182 0,-0.002 -0.26114,0.19527 -0.40243,-0.0108 -0.005,-8e-4 -0.0492,-0.65008 -0.0847,-1.11549 -0.0392,-0.46672 -0.005,-0.51779 -0.0299,-0.46699 -0.0296,0.0537 0.0238,0.8562 -0.0955,1.44119 -2.6e-4,0 -0.0283,0.13652 -0.19235,0.1442 -0.16404,0.007 -0.18865,-0.10795 -0.20664,-0.24554 -0.0206,-0.1606 0.0392,-0.56779 0.0116,-1.1049 -0.0262,-0.53737 -0.10266,-0.89402 -0.10504,-0.89455 -0.007,-0.003 -0.263,0.63156 -0.4191,0.76993 -0.21193,0.17384 -0.38682,-0.0511 -0.38629,-0.0526"
         style="fill:#fac499;stroke-width:0.26458332"
         inkscape:connector-curvature="0" />
      <path
         id="path10"
         d="m 104.33783,160.57843 c 0.003,-0.0212 0.79322,1.93199 0.23151,2.42094 -0.88529,0.771 -1.13638,4.43574 -1.12686,4.69741 0.0161,0.43921 -0.68659,-0.0368 -0.68659,0.14817 0,-0.25268 -0.56515,-5.95524 1.58194,-7.26652"
         style="fill:#4a4a4a;stroke-width:0.26458332"
         inkscape:connector-curvature="0" />
      <path
         id="path12"
         d="m 104.42435,169.37768 c -0.001,5.3e-4 0.0606,-0.0103 -0.0696,-0.29765 -0.13335,-0.28628 -0.23469,-0.53764 -0.33602,-0.87657 -0.10478,-0.33787 -0.14658,-0.42704 -0.36063,-0.5416 -0.32729,-0.17463 -0.95382,-0.16325 -1.14194,-0.0344 -0.18097,0.13468 -0.4871,0.79111 -0.61542,1.09326 -0.10134,0.31512 -0.31962,1.08453 -0.26353,1.18613 0.0685,0.10557 0.31645,0.0577 0.31671,0.0572 0.004,0.001 0.11218,-0.47069 0.16193,-0.63712 0.0209,0.005 -0.15267,1.0115 -0.15426,1.25836 0.013,0.13706 0.31168,0.17039 0.33867,0.0754 0.0582,-0.16987 0.13494,-0.83714 0.16722,-1.04802 0.0415,-0.21087 0.0389,-0.2114 0.0397,-0.21113 0.0328,0.002 -0.0688,1.26708 0.007,1.51182 2.6e-4,-0.002 0.26141,0.19527 0.40269,-0.0108 0.005,-8e-4 0.0492,-0.65008 0.0847,-1.11549 0.0394,-0.46672 0.005,-0.51779 0.0302,-0.46699 0.0296,0.0537 -0.0238,0.8562 0.0955,1.44119 5.3e-4,0 0.0286,0.13652 0.19236,0.1442 0.16404,0.007 0.18891,-0.10795 0.20663,-0.24554 0.0206,-0.1606 -0.0392,-0.56779 -0.0116,-1.1049 0.0259,-0.53737 0.10266,-0.89402 0.10504,-0.89455 0.007,-0.003 0.263,0.63156 0.4191,0.76993 0.21141,0.17384 0.38603,-0.0511 0.38577,-0.0526"
         style="fill:#fac499;stroke-width:0.26458332"
         inkscape:connector-curvature="0" />
      <path
         id="path14"
         d="m 112.20839,166.60194 -0.35798,1.99363 c -0.0222,0.12595 -0.12488,0.21194 -0.24739,0.24448 -0.86095,0.22886 -2.61276,0.41434 -4.3807,0.54663 -1.4232,0.10663 -2.61805,0.0532 -3.15833,-0.0206 -0.16828,-0.023 -0.27332,-0.23098 -0.23072,-0.40058 l 0.36645,-1.82906 z"
         style="fill:#c23434;stroke-width:0.26458332"
         inkscape:connector-curvature="0" />
      <path
         id="path16"
         d="m 111.89354,168.37756 c 0,0 -0.47096,2.59265 -0.74189,3.44673 -0.27094,0.85381 -0.32412,1.13082 -0.32412,1.13082 0,0 -0.40561,-0.0762 -0.42571,-0.16086 -0.0196,-0.0849 0.43629,-1.4613 0.44132,-2.72018 0.004,-1.00727 -0.4355,-1.56052 -0.4355,-1.56052 0,0 0.66463,-0.63817 1.08056,-0.67389 0.41645,-0.0352 0.40534,0.5379 0.40534,0.5379"
         style="fill:#c23434;stroke-width:0.26458332"
         inkscape:connector-curvature="0" />
      <path
         id="path18"
         d="m 105.12629,169.38747 c 0,0 -0.60616,0.5678 -1.07394,1.46791 -0.46805,0.90011 -0.84085,2.032 -0.84085,2.032 l -0.3392,0.0947 -0.0968,-0.14473 1.06627,-3.89493 c 0,0 0.12647,-0.55694 0.78291,-0.28284 0.65669,0.27385 0.50165,0.72787 0.50165,0.72787"
         style="fill:#c23434;stroke-width:0.26458332"
         inkscape:connector-curvature="0" />
      <polygon
         id="polygon20"
         points="968.16,590.566 967.667,593.396 969.782,593.74 969.934,593.787 970.968,591.022 "
         style="fill:#b8d7e6"
         transform="matrix(0.26458333,0,0,0.26458333,-145.73496,16.072539)" />
      <polygon
         id="polygon22"
         points="941.946,591.049 941.184,593.829 939.091,593.385 938.472,593.489 939.167,590.461 "
         style="fill:#b8d7e6"
         transform="matrix(0.26458333,0,0,0.26458333,-145.73496,16.072539)" />
      <path
         id="path24"
         d="m 111.32786,173.73564 c 0,0 -0.24501,-0.36883 -0.4408,-0.59902 -0.17727,-0.20823 -0.41037,-0.14658 -0.41037,-0.14658 l -0.26564,0.19658 c 0,0 -0.22886,0.58685 -0.0714,0.66808 0.15769,0.0812 0.47916,0.18124 0.69877,0.15002 0.2196,-0.0312 0.48948,-0.26908 0.48948,-0.26908"
         style="fill:#ad5a22;stroke-width:0.26458332"
         inkscape:connector-curvature="0" />
      <g
         style="opacity:0.2"
         id="g36"
         transform="matrix(0.26458333,0,0,0.26458333,-145.73496,16.072539)">
        <g
           id="g34">
          <defs
             id="defs27">
            <rect
               height="3.1800001"
               width="4.612"
               y="593.78998"
               x="966.96399"
               id="rect985" />
          </defs>
          <clipPath
             id="clipPath1013">
            <use
               height="100%"
               width="100%"
               y="0"
               x="0"
               style="overflow:visible"
               id="use1011"
               overflow="visible"
               xlink:href="#SVGID_1_-1" />
          </clipPath>
          <path
             inkscape:connector-curvature="0"
             id="path32"
             d="m 969.934,593.787 c 0.084,0.097 1.315,1.982 1.315,1.982 0,0 -0.651,0.576 -1.728,0.682 -1.076,0.104 -2.558,-0.207 -2.558,-0.207 0,0 1.953,0.836 2.667,0.713 0.714,-0.122 1.946,-1.065 1.946,-1.065 z"
             clip-path="url(#SVGID_2_-0)" />
        </g>
      </g>
      <path
         id="path38"
         d="m 102.0468,173.6298 c 0,0 0.30983,-0.34105 0.5461,-0.5498 0.21352,-0.18865 0.43286,-0.10451 0.43286,-0.10451 l 0.22781,0.22119 c 0,0 0.12038,0.60404 -0.0508,0.66913 -0.17119,0.0648 -0.508,0.13203 -0.7202,0.0794 -0.21193,-0.0524 -0.43577,-0.31539 -0.43577,-0.31539"
         style="fill:#ad5a22;stroke-width:0.26458332"
         inkscape:connector-curvature="0" />
      <g
         style="opacity:0.2"
         id="g50"
         transform="matrix(0.26458333,0,0,0.26458333,-145.73496,16.072539)">
        <g
           id="g48">
          <defs
             id="defs41">
            <rect
               height="1.38"
               width="4.506"
               y="595.40002"
               x="936.49799"
               id="rect994" />
          </defs>
          <clipPath
             id="clipPath1023">
            <use
               height="100%"
               width="100%"
               y="0"
               x="0"
               style="overflow:visible"
               id="use1021"
               overflow="visible"
               xlink:href="#SVGID_3_-7" />
          </clipPath>
          <path
             inkscape:connector-curvature="0"
             id="path46"
             d="m 936.845,595.404 c 0,0 0.541,0.635 1.588,0.846 1.048,0.211 2.572,0.049 2.572,0.049 0,0 -2.088,0.637 -2.773,0.443 -0.685,-0.193 -1.734,-1.25 -1.734,-1.25 z"
             clip-path="url(#SVGID_4_-7)" />
        </g>
      </g>
      <path
         id="path52"
         d="m 112.47324,160.51335 c 0,0 0.0611,2.66753 -0.0408,4.39817 -0.0773,1.31365 -0.22384,1.73116 -0.22384,1.73116 l -8.04307,0.48843 c 0,0 0.0989,-0.84297 0.12594,-1.68884 0.0571,-1.79282 -0.28892,-4.27725 -0.28892,-4.27725 z"
         style="fill:#4a4a4a;stroke-width:0.26458332"
         inkscape:connector-curvature="0" />
      <polygon
         id="polygon54"
         points="949.302,545.816 951.688,548.17 951.851,574.334 950.055,573.967 "
         style="fill:#c23434"
         transform="matrix(0.26458333,0,0,0.26458333,-145.73496,16.072539)" />
      <polygon
         id="polygon56"
         points="974.029,546.205 971.597,548.512 968.832,574.641 970.636,574.309 "
         style="fill:#c23434"
         transform="matrix(0.26458333,0,0,0.26458333,-145.73496,16.072539)" />
      <path
         id="path58"
         d="m 104.04335,160.79301 c 0,0 0.0585,0.64056 0.55801,1.33324 0.46672,0.64637 1.37054,1.51474 2.29393,1.8751 0,0 0.17939,-0.35216 0.73105,-0.8763 0.31697,-0.3011 0.89984,-0.47969 0.89984,-0.47969 0,0 0.54346,0.2376 0.93928,0.5506 0.60589,0.47942 0.70352,0.83238 0.70352,0.83238 0,0 2.07063,-1.28429 2.28547,-2.90486 0.11642,-0.87736 0.0193,-0.85567 0.0193,-0.85567 0,0 0.28866,-1.9214 -4.45241,-1.89415 -3.92906,0.0228 -3.97801,2.41935 -3.97801,2.41935"
         style="fill:#707070;stroke-width:0.26458332"
         inkscape:connector-curvature="0" />
      <path
         id="path60"
         d="m 112.54441,154.38639 c 0,0 0.3638,-0.86916 0.83503,-0.92339 0.56091,-0.0646 1.17739,0.0878 1.21311,0.20955 0.0354,0.1217 0.22013,1.4605 -0.38047,2.07195 -0.16325,0.16642 -0.79692,0.55562 -0.89244,0.78237 -0.0953,0.22675 -0.32861,0.449 -0.703,0.41831 -0.41222,-0.0336 -0.41328,-0.41381 -0.41328,-0.41381 z"
         style="fill:#d68263;stroke-width:0.26458332"
         inkscape:connector-curvature="0" />
      <path
         id="path62"
         d="m 105.20222,156.86871 c 0,0 -0.19235,0.21961 -0.5588,0.3056 -0.36644,0.0863 -1.71608,-0.94139 -1.79652,-1.22555 -0.081,-0.28417 -0.37862,-1.98041 -0.12197,-2.16271 0.25691,-0.1823 1.72932,-0.11403 2.09682,0.13044 0.36751,0.24474 0.39159,2.8067 0.39159,2.8067 z"
         style="fill:#d68263;stroke-width:0.26458332"
         inkscape:connector-curvature="0" />
      <path
         id="path64"
         d="m 102.84637,148.41448 c -0.0373,0.0646 1.20889,11.76708 1.20889,11.76708 0,0 1.71476,2.31722 4.43124,2.35267 2.43337,0.0312 4.10845,-2.02565 4.10845,-2.02565 0,0 1.13506,-6.93896 1.18639,-7.72795 0.0513,-0.78898 0.22966,-4.64449 0.22966,-4.64449 0,0 -2.56117,-2.89904 -6.30317,-2.5019 -4.10633,0.43603 -4.86146,2.78024 -4.86146,2.78024"
         style="fill:#fac499;stroke-width:0.26458332"
         inkscape:connector-curvature="0" />
      <g
         style="opacity:0.4"
         id="g76"
         transform="matrix(0.26458333,0,0,0.26458333,-145.73496,16.072539)">
        <g
           id="g74">
          <defs
             id="defs67">
            <rect
               height="57.82"
               width="35.271999"
               y="495.73999"
               x="939.63202"
               id="rect1009" />
          </defs>
          <clipPath
             id="clipPath1039">
            <use
               height="100%"
               width="100%"
               y="0"
               x="0"
               style="overflow:visible"
               id="use1037"
               overflow="visible"
               xlink:href="#SVGID_5_-0" />
          </clipPath>
          <path
             style="fill:#fa935f"
             inkscape:connector-curvature="0"
             id="path72"
             d="m 947.224,543.268 c -1.311,-2.144 -3.327,-40.618 -3.379,-45.629 -4.139,-0.994 -2.195,-0.595 -3.155,-1.849 -0.457,-0.599 -1.054,4.401 -1.054,4.401 -0.141,0.244 4.569,44.474 4.569,44.474 0,0 6.481,8.758 16.747,8.891 2.219,0.029 7.112,-0.263 13.953,-5.693 -10.969,-1.699 -20.939,6.431 -27.681,-4.595"
             clip-path="url(#SVGID_6_-4)" />
        </g>
      </g>
      <path
         id="path78"
         d="m 112.61929,158.04637 -1.18057,-0.42121 -2.88528,0.40163 -3.12658,-1.12315 -1.19354,0.90963 -0.70353,-2.60217 c 0,0 -0.44767,4.33731 0.77126,5.97879 3.06388,1.90658 5.10884,-0.77153 8.17827,0.22913 0.70697,-2.0582 1.12395,-5.2885 1.12395,-6.75958 z"
         style="fill:#80400f;stroke-width:0.26458332"
         inkscape:connector-curvature="0" />
      <g
         style="opacity:0.1"
         id="g90"
         transform="matrix(0.26458333,0,0,0.26458333,-145.73496,16.072539)">
        <g
           id="g88">
          <defs
             id="defs81">
            <rect
               height="25.261"
               width="23.743999"
               y="525.88"
               x="941.79999"
               id="rect1018" />
          </defs>
          <clipPath
             id="clipPath1049">
            <use
               height="100%"
               width="100%"
               y="0"
               x="0"
               style="overflow:visible"
               id="use1047"
               overflow="visible"
               xlink:href="#SVGID_7_-1" />
          </clipPath>
          <path
             inkscape:connector-curvature="0"
             id="path86"
             d="m 946.362,545.918 c -2.792,-3.662 -4.259,-20.041 -4.259,-20.041 0,0 -1.693,16.394 2.915,22.598 7.803,4.854 13.857,1.843 20.526,0.519 -0.946,0.047 -14.154,3.518 -19.182,-3.076"
             clip-path="url(#SVGID_8_-9)" />
        </g>
      </g>
      <g
         style="opacity:0.5"
         id="g112"
         transform="matrix(0.26458333,0,0,0.26458333,-145.73496,16.072539)">
        <g
           id="g110">
          <defs
             id="defs93">
            <rect
               height="6.04"
               width="9.6099997"
               y="529.09003"
               x="956.25098"
               id="rect1026" />
          </defs>
          <clipPath
             id="clipPath1058">
            <use
               height="100%"
               width="100%"
               y="0"
               x="0"
               style="overflow:visible"
               id="use1056"
               overflow="visible"
               xlink:href="#SVGID_9_-8" />
          </clipPath>
          <g
             style="opacity:0.7"
             id="g108"
             clip-path="url(#SVGID_10_-7)">
            <g
               id="g106">
              <defs
                 id="defs99">
                <rect
                   height="6.04"
                   width="9.6099997"
                   y="529.09003"
                   x="956.25098"
                   id="rect1031" />
              </defs>
              <clipPath
                 id="clipPath1064">
                <use
                   height="100%"
                   width="100%"
                   y="0"
                   x="0"
                   style="overflow:visible"
                   id="use1062"
                   overflow="visible"
                   xlink:href="#SVGID_11_-2" />
              </clipPath>
              <polygon
                 style="fill:#fa935f"
                 id="polygon104"
                 points="957.173,531.526 958.563,529.093 956.673,531.179 956.25,533.347 958.092,534.54 961.627,535.13 965.862,531.526 "
                 clip-path="url(#SVGID_12_-1)" />
            </g>
          </g>
        </g>
      </g>
      <path
         id="path114"
         d="m 103.71103,152.20517 0.10716,-0.46276 c 0,0 0.53234,-0.21881 1.58168,-0.33999 1.0496,-0.12144 1.92987,0.0852 1.92987,0.0852 l -0.22913,1.39488 c 0,0 -1.02923,-0.381 -1.51236,-0.49213 -0.42201,-0.0971 -1.87722,-0.1852 -1.87722,-0.1852"
         style="fill:#633a17;stroke-width:0.26458332"
         inkscape:connector-curvature="0" />
      <path
         id="path116"
         d="m 109.39905,151.56355 0.30506,-1.20465 c 1.14141,0.17542 2.09815,0.81889 3.2348,1.28905 l -0.13547,0.4752 z"
         style="fill:#633a17;stroke-width:0.26458332"
         inkscape:connector-curvature="0" />
      <path
         id="path118"
         d="m 105.53877,157.82941 c 0,0 0.39397,0.65009 0.99378,0.83344 0.96996,0.2966 2.50402,0.29766 2.94031,0.29316 0.6223,-0.006 1.22238,-0.0987 1.22238,-0.0987 l -0.072,-0.37835 0.26749,0.64902 -0.23442,-0.17807 -0.50588,0.0693 c 0,0 -0.41355,0.0751 -1.32133,0.10715 -0.8935,0.0312 -1.81451,-0.17833 -2.16376,-0.25532 -0.53922,-0.11906 -0.89535,-0.44821 -0.89535,-0.44821 z"
         style="fill:#291809;stroke-width:0.26458332"
         inkscape:connector-curvature="0" />
      <polygon
         id="polygon120"
         points="949.262,537.123 951.333,535.75 949.646,535.847 "
         style="fill:#291809"
         transform="matrix(0.26458333,0,0,0.26458333,-145.73496,16.072539)" />
      <path
         id="path122"
         d="m 105.39458,153.51009 c 0,-0.4699 0.18335,-0.85063 0.40984,-0.85063 0.22648,2.6e-4 0.4101,0.38126 0.4101,0.8509 2.6e-4,0.4699 -0.18336,0.85063 -0.40984,0.85063 -0.22648,0 -0.4101,-0.381 -0.4101,-0.8509"
         style="fill:#214252;stroke-width:0.26458332"
         inkscape:connector-curvature="0" />
      <g
         style="opacity:0.5"
         id="g134"
         transform="matrix(0.26458333,0,0,0.26458333,-145.73496,16.072539)">
        <g
           id="g132">
          <defs
             id="defs125">
            <rect
               height="2.25"
               width="0.93099999"
               y="517.28998"
               x="949.586"
               id="rect1046" />
          </defs>
          <clipPath
             id="clipPath1080">
            <use
               height="100%"
               width="100%"
               y="0"
               x="0"
               style="overflow:visible"
               id="use1078"
               overflow="visible"
               xlink:href="#SVGID_13_-5" />
          </clipPath>
          <path
             style="fill:#ffffff"
             inkscape:connector-curvature="0"
             id="path130"
             d="m 949.586,518.413 c 0,-0.621 0.208,-1.125 0.466,-1.125 0.257,10e-4 0.466,0.504 0.466,1.125 0,0.621 -0.209,1.124 -0.466,1.124 -0.257,0 -0.466,-0.503 -0.466,-1.124"
             clip-path="url(#SVGID_14_-1)" />
        </g>
      </g>
      <path
         id="path136"
         d="m 110.6365,153.51009 c 0,-0.4699 0.18309,-0.85063 0.40984,-0.85063 0.22622,2.6e-4 0.41011,0.38126 0.41011,0.8509 2.6e-4,0.4699 -0.18336,0.85063 -0.41011,0.85063 -0.22648,0 -0.40984,-0.381 -0.40984,-0.8509"
         style="fill:#214252;stroke-width:0.26458332"
         inkscape:connector-curvature="0" />
      <g
         style="opacity:0.5"
         id="g148"
         transform="matrix(0.26458333,0,0,0.26458333,-145.73496,16.072539)">
        <g
           id="g146">
          <defs
             id="defs139">
            <rect
               height="2.25"
               width="0.93199998"
               y="517.28998"
               x="969.396"
               id="rect1055" />
          </defs>
          <clipPath
             id="clipPath1090">
            <use
               height="100%"
               width="100%"
               y="0"
               x="0"
               style="overflow:visible"
               id="use1088"
               overflow="visible"
               xlink:href="#SVGID_15_-5" />
          </clipPath>
          <path
             style="fill:#ffffff"
             inkscape:connector-curvature="0"
             id="path144"
             d="m 969.396,518.413 c 0,-0.621 0.209,-1.125 0.465,-1.125 0.259,10e-4 0.467,0.504 0.468,1.125 0,0.621 -0.209,1.124 -0.466,1.124 -0.258,0 -0.467,-0.503 -0.467,-1.124"
             clip-path="url(#SVGID_16_-8)" />
        </g>
      </g>
      <polygon
         id="polygon150"
         points="961.725,533.264 957.173,531.526 958.563,529.093 959.688,520.752 961.418,517.624 963.27,520.752 964.473,529.093 965.862,531.526 "
         style="fill:#ffcea8"
         transform="matrix(0.26458333,0,0,0.26458333,-145.73496,16.072539)" />
      <path
         id="path152"
         d="m 102.70059,148.13429 2.15159,-0.41778 c 0,0 8.08699,3.19299 9.15908,0.41963 v -1.14036 c 0,0 -6.4053,-2.15291 -6.21638,-2.15291 0.18917,0 -5.17208,2.41379 -5.17208,2.41379 z"
         style="fill:#80400f;stroke-width:0.26458332"
         inkscape:connector-curvature="0" />
      <path
         id="path154"
         d="m 102.62254,147.25666 c 0,0 2.56646,-1.70391 5.0075,-2.31193 2.44078,-0.60774 6.44102,0.55695 6.55611,1.3081 0.1151,0.75089 -0.49345,2.68209 -3.01731,2.26828 -2.52306,-0.41355 -5.19668,-1.84415 -5.19668,-1.84415 0,0 2.9255,-0.49186 5.31707,0.31882 0,0 -1.81531,-2.81966 -8.66669,0.26088"
         style="fill:#944911;stroke-width:0.26458332"
         inkscape:connector-curvature="0" />
      <path
         id="path156"
         d="m 107.81525,162.85121 c -0.0241,-0.33973 0.25717,-0.64188 0.62865,-0.67496 0.37147,-0.0333 0.69241,0.21537 0.71649,0.55483 0.0243,0.33973 -0.25717,0.64215 -0.62865,0.67522 -0.37147,0.0331 -0.69215,-0.21537 -0.71649,-0.55509"
         style="fill:#c93838;stroke-width:0.26458332"
         inkscape:connector-curvature="0" />
      <path
         id="path158"
         d="m 108.44734,162.47126 -1.17131,-0.5707 c 0,0 -0.27385,-0.14817 -0.51673,0.0884 -0.10213,0.0992 0.14208,0.59187 0.14208,0.59187 0,0 -0.21378,0.23707 0.0458,0.42492 0,0 -0.23072,0.46382 -0.0926,0.71173 0.13811,0.24792 1.23851,-0.28548 1.5232,-0.60722 0.2847,-0.32147 0.0696,-0.63897 0.0696,-0.63897"
         style="fill:#c93838;stroke-width:0.26458332"
         inkscape:connector-curvature="0" />
      <path
         id="path160"
         d="m 108.46983,162.47073 1.15199,-0.6088 c 0,0 0.26909,-0.15716 0.51938,0.0714 0.10478,0.0958 -0.12303,0.59637 -0.12303,0.59637 0,0 0.22172,0.23018 -0.0315,0.42624 0,0 0.2458,0.45641 0.11589,0.70855 -0.12965,0.25215 -1.24725,-0.245 -1.54226,-0.55694 -0.29474,-0.31221 -0.0905,-0.63686 -0.0905,-0.63686"
         style="fill:#c93838;stroke-width:0.26458332"
         inkscape:connector-curvature="0" />
    </g>
  </g>
</svg>
