<?xml version="1.0" encoding="UTF-8" standalone="no"?>
<!-- Created with Inkscape (http://www.inkscape.org/) -->

<svg
   xmlns:dc="http://purl.org/dc/elements/1.1/"
   xmlns:cc="http://creativecommons.org/ns#"
   xmlns:rdf="http://www.w3.org/1999/02/22-rdf-syntax-ns#"
   xmlns:svg="http://www.w3.org/2000/svg"
   xmlns="http://www.w3.org/2000/svg"
   xmlns:xlink="http://www.w3.org/1999/xlink"
   xmlns:sodipodi="http://sodipodi.sourceforge.net/DTD/sodipodi-0.dtd"
   xmlns:inkscape="http://www.inkscape.org/namespaces/inkscape"
   width="44.409897mm"
   height="44.409897mm"
   viewBox="0 0 44.409897 44.409897"
   version="1.1"
   id="svg3916"
   inkscape:version="0.92.4 (5da689c313, 2019-01-14)"
   sodipodi:docname="avatar6.svg">
  <defs
     id="defs3910">
    <clipPath
       clipPathUnits="userSpaceOnUse"
       id="clipPath3897">
      <circle
         style="opacity:0.5;vector-effect:none;fill:#4d4d4d;fill-opacity:1;fill-rule:evenodd;stroke:none;stroke-width:0.90107036;stroke-linecap:butt;stroke-linejoin:bevel;stroke-miterlimit:4;stroke-dasharray:none;stroke-dashoffset:0;stroke-opacity:1;paint-order:markers stroke fill"
         id="circle3899"
         cx="231.51881"
         cy="173.94919"
         r="22.204948" />
    </clipPath>
    <clipPath
       id="SVGID_18_">
      <use
         xlink:href="#SVGID_17_"
         overflow="visible"
         id="use159"
         style="overflow:visible"
         x="0"
         y="0"
         width="100%"
         height="100%" />
    </clipPath>
    <clipPath
       id="SVGID_16_">
      <use
         xlink:href="#SVGID_15_"
         overflow="visible"
         id="use145"
         style="overflow:visible"
         x="0"
         y="0"
         width="100%"
         height="100%" />
    </clipPath>
    <clipPath
       id="SVGID_14_">
      <use
         xlink:href="#SVGID_13_"
         overflow="visible"
         id="use127"
         style="overflow:visible"
         x="0"
         y="0"
         width="100%"
         height="100%" />
    </clipPath>
    <clipPath
       id="SVGID_12_">
      <use
         xlink:href="#SVGID_11_"
         overflow="visible"
         id="use113"
         style="overflow:visible"
         x="0"
         y="0"
         width="100%"
         height="100%" />
    </clipPath>
    <clipPath
       id="SVGID_8_">
      <use
         xlink:href="#SVGID_7_"
         overflow="visible"
         id="use81"
         style="overflow:visible"
         x="0"
         y="0"
         width="100%"
         height="100%" />
    </clipPath>
    <clipPath
       id="SVGID_10_">
      <use
         xlink:href="#SVGID_9_"
         overflow="visible"
         id="use87"
         style="overflow:visible"
         x="0"
         y="0"
         width="100%"
         height="100%" />
    </clipPath>
    <clipPath
       id="SVGID_6_">
      <use
         xlink:href="#SVGID_5_"
         overflow="visible"
         id="use65"
         style="overflow:visible"
         x="0"
         y="0"
         width="100%"
         height="100%" />
    </clipPath>
    <clipPath
       id="SVGID_4_">
      <use
         xlink:href="#SVGID_3_"
         overflow="visible"
         id="use41"
         style="overflow:visible"
         x="0"
         y="0"
         width="100%"
         height="100%" />
    </clipPath>
    <clipPath
       id="SVGID_2_">
      <use
         xlink:href="#SVGID_1_"
         overflow="visible"
         id="use27"
         style="overflow:visible"
         x="0"
         y="0"
         width="100%"
         height="100%" />
    </clipPath>
    <rect
       id="SVGID_1_"
       x="966.646"
       y="591.78998"
       width="4.6129999"
       height="3.1800001" />
    <rect
       id="SVGID_3_"
       x="936.18103"
       y="593.40002"
       width="4.507"
       height="1.38" />
    <rect
       id="SVGID_5_"
       x="939.19897"
       y="493.73999"
       width="27.424999"
       height="57.82" />
    <rect
       id="SVGID_7_"
       x="955.93402"
       y="527.09003"
       width="9.6120005"
       height="6.04" />
    <rect
       id="SVGID_9_"
       x="955.93402"
       y="527.09003"
       width="9.6120005"
       height="6.04" />
    <rect
       id="SVGID_11_"
       x="949.26898"
       y="515.28998"
       width="0.93199998"
       height="2.25" />
    <rect
       id="SVGID_13_"
       x="969.08002"
       y="515.28998"
       width="0.93199998"
       height="2.25" />
    <rect
       id="SVGID_15_"
       x="941.59802"
       y="510.79001"
       width="16.566"
       height="16.559999" />
    <rect
       id="SVGID_17_"
       x="964.06403"
       y="510.79001"
       width="16.566"
       height="16.559999" />
    <clipPath
       id="SVGID_18_-8">
      <use
         xlink:href="#SVGID_17_-1"
         overflow="visible"
         id="use175"
         style="overflow:visible"
         x="0"
         y="0"
         width="100%"
         height="100%" />
    </clipPath>
    <clipPath
       id="SVGID_16_-1">
      <use
         xlink:href="#SVGID_15_-5"
         overflow="visible"
         id="use161"
         style="overflow:visible"
         x="0"
         y="0"
         width="100%"
         height="100%" />
    </clipPath>
    <clipPath
       id="SVGID_14_-1">
      <use
         xlink:href="#SVGID_13_-6"
         overflow="visible"
         id="use147"
         style="overflow:visible"
         x="0"
         y="0"
         width="100%"
         height="100%" />
    </clipPath>
    <clipPath
       id="SVGID_12_-4">
      <use
         xlink:href="#SVGID_11_-3"
         overflow="visible"
         id="use131"
         style="overflow:visible"
         x="0"
         y="0"
         width="100%"
         height="100%" />
    </clipPath>
    <clipPath
       id="SVGID_10_-2">
      <use
         xlink:href="#SVGID_9_-9"
         overflow="visible"
         id="use117"
         style="overflow:visible"
         x="0"
         y="0"
         width="100%"
         height="100%" />
    </clipPath>
    <clipPath
       id="SVGID_6_-1">
      <use
         xlink:href="#SVGID_5_-4"
         overflow="visible"
         id="use79"
         style="overflow:visible"
         x="0"
         y="0"
         width="100%"
         height="100%" />
    </clipPath>
    <clipPath
       id="SVGID_8_-5">
      <use
         xlink:href="#SVGID_7_-5"
         overflow="visible"
         id="use85"
         style="overflow:visible"
         x="0"
         y="0"
         width="100%"
         height="100%" />
    </clipPath>
    <clipPath
       id="SVGID_4_-3">
      <use
         xlink:href="#SVGID_3_-4"
         overflow="visible"
         id="use43"
         style="overflow:visible"
         x="0"
         y="0"
         width="100%"
         height="100%" />
    </clipPath>
    <clipPath
       id="SVGID_2_-9">
      <use
         xlink:href="#SVGID_1_-1"
         overflow="visible"
         id="use29"
         style="overflow:visible"
         x="0"
         y="0"
         width="100%"
         height="100%" />
    </clipPath>
    <rect
       id="SVGID_1_-1"
       x="963.83398"
       y="599.78998"
       width="4.6110001"
       height="3.1800001" />
    <rect
       id="SVGID_3_-4"
       x="933.36798"
       y="601.40002"
       width="4.506"
       height="1.38" />
    <rect
       id="SVGID_5_-4"
       x="953.12"
       y="535.09003"
       width="9.6120005"
       height="6.04" />
    <rect
       id="SVGID_7_-5"
       x="953.12"
       y="535.09003"
       width="9.6120005"
       height="6.04" />
    <rect
       id="SVGID_9_-9"
       x="946.45599"
       y="523.28998"
       width="0.93099999"
       height="2.25" />
    <rect
       id="SVGID_11_-3"
       x="966.26801"
       y="523.28998"
       width="0.93099999"
       height="2.25" />
    <rect
       id="SVGID_13_-6"
       x="936.242"
       y="521.14001"
       width="19.148001"
       height="10.74" />
    <rect
       id="SVGID_15_-5"
       x="960.91803"
       y="521.14001"
       width="18.105"
       height="10.74" />
    <rect
       id="SVGID_17_-1"
       x="935.51001"
       y="492.51999"
       width="3.1470001"
       height="9.7299995" />
    <clipPath
       id="SVGID_18_-5">
      <use
         xlink:href="#SVGID_17_-3"
         overflow="visible"
         id="use151"
         style="overflow:visible"
         x="0"
         y="0"
         width="100%"
         height="100%" />
    </clipPath>
    <clipPath
       id="SVGID_16_-3">
      <use
         xlink:href="#SVGID_15_-9"
         overflow="visible"
         id="use135"
         style="overflow:visible"
         x="0"
         y="0"
         width="100%"
         height="100%" />
    </clipPath>
    <clipPath
       id="SVGID_14_-3">
      <use
         xlink:href="#SVGID_13_-9"
         overflow="visible"
         id="use121"
         style="overflow:visible"
         x="0"
         y="0"
         width="100%"
         height="100%" />
    </clipPath>
    <clipPath
       id="SVGID_12_-0">
      <use
         xlink:href="#SVGID_11_-2"
         overflow="visible"
         id="use105"
         style="overflow:visible"
         x="0"
         y="0"
         width="100%"
         height="100%" />
    </clipPath>
    <clipPath
       id="SVGID_8_-8">
      <use
         xlink:href="#SVGID_7_-52"
         overflow="visible"
         id="use75"
         style="overflow:visible"
         x="0"
         y="0"
         width="100%"
         height="100%" />
    </clipPath>
    <clipPath
       id="SVGID_10_-3">
      <use
         xlink:href="#SVGID_9_-1"
         overflow="visible"
         id="use81-7"
         style="overflow:visible"
         x="0"
         y="0"
         width="100%"
         height="100%" />
    </clipPath>
    <clipPath
       id="SVGID_6_-2">
      <use
         xlink:href="#SVGID_5_-42"
         overflow="visible"
         id="use63"
         style="overflow:visible"
         x="0"
         y="0"
         width="100%"
         height="100%" />
    </clipPath>
    <clipPath
       id="SVGID_4_-5">
      <use
         xlink:href="#SVGID_3_-8"
         overflow="visible"
         id="use41-3"
         style="overflow:visible"
         x="0"
         y="0"
         width="100%"
         height="100%" />
    </clipPath>
    <clipPath
       id="SVGID_2_-95">
      <use
         xlink:href="#SVGID_1_-8"
         overflow="visible"
         id="use27-8"
         style="overflow:visible"
         x="0"
         y="0"
         width="100%"
         height="100%" />
    </clipPath>
    <rect
       id="SVGID_1_-8"
       x="951.16498"
       y="549.12097"
       width="4.612"
       height="3.184" />
    <rect
       id="SVGID_3_-8"
       x="920.69897"
       y="550.737"
       width="4.507"
       height="1.375" />
    <rect
       id="SVGID_5_-42"
       x="923.71802"
       y="450.427"
       width="27.424"
       height="58.463001" />
    <rect
       id="SVGID_7_-52"
       x="940.45203"
       y="484.42599"
       width="9.6120005"
       height="6.0370002" />
    <rect
       id="SVGID_9_-1"
       x="940.45203"
       y="484.42599"
       width="9.6120005"
       height="6.0370002" />
    <path
       id="SVGID_11_-2"
       d="m 934.081,493.437 c 0,0 2.077,4.481 4.332,6.045 1.367,0.948 2.283,1.584 7.596,0.838 5.5,-0.773 11.725,-4.049 11.725,-4.049 l 0.957,0.468 -1.28,-2.321 0.311,1.189 c 0,0 -2.929,-0.055 -6.063,-0.193 -3.074,-0.137 -18.178,-2.842 -18.178,-2.842 z"
       inkscape:connector-curvature="0" />
    <rect
       id="SVGID_13_-9"
       x="933.78699"
       y="472.621"
       width="0.93199998"
       height="2.2490001" />
    <rect
       id="SVGID_15_-9"
       x="953.59802"
       y="472.621"
       width="0.93199998"
       height="2.2490001" />
    <rect
       id="SVGID_17_-3"
       x="938.81"
       y="433.53"
       width="13.245"
       height="6.0799999" />
    <clipPath
       id="SVGID_24_">
      <use
         xlink:href="#SVGID_23_"
         overflow="visible"
         id="use185"
         style="overflow:visible"
         x="0"
         y="0"
         width="100%"
         height="100%" />
    </clipPath>
    <clipPath
       id="SVGID_26_">
      <use
         xlink:href="#SVGID_25_"
         overflow="visible"
         id="use191"
         style="overflow:visible"
         x="0"
         y="0"
         width="100%"
         height="100%" />
    </clipPath>
    <clipPath
       id="SVGID_22_">
      <use
         xlink:href="#SVGID_21_"
         overflow="visible"
         id="use169"
         style="overflow:visible"
         x="0"
         y="0"
         width="100%"
         height="100%" />
    </clipPath>
    <clipPath
       id="SVGID_20_">
      <use
         xlink:href="#SVGID_19_"
         overflow="visible"
         id="use147-7"
         style="overflow:visible"
         x="0"
         y="0"
         width="100%"
         height="100%" />
    </clipPath>
    <clipPath
       id="SVGID_16_-36">
      <use
         xlink:href="#SVGID_15_-99"
         overflow="visible"
         id="use121-0"
         style="overflow:visible"
         x="0"
         y="0"
         width="100%"
         height="100%" />
    </clipPath>
    <clipPath
       id="SVGID_18_-6">
      <use
         xlink:href="#SVGID_17_-4"
         overflow="visible"
         id="use127-5"
         style="overflow:visible"
         x="0"
         y="0"
         width="100%"
         height="100%" />
    </clipPath>
    <clipPath
       id="SVGID_12_-6">
      <use
         xlink:href="#SVGID_11_-4"
         overflow="visible"
         id="use99"
         style="overflow:visible"
         x="0"
         y="0"
         width="100%"
         height="100%" />
    </clipPath>
    <clipPath
       id="SVGID_14_-0">
      <use
         xlink:href="#SVGID_13_-0"
         overflow="visible"
         id="use105-1"
         style="overflow:visible"
         x="0"
         y="0"
         width="100%"
         height="100%" />
    </clipPath>
    <clipPath
       id="SVGID_8_-3">
      <use
         xlink:href="#SVGID_7_-4"
         overflow="visible"
         id="use71"
         style="overflow:visible"
         x="0"
         y="0"
         width="100%"
         height="100%" />
    </clipPath>
    <clipPath
       id="SVGID_10_-24">
      <use
         xlink:href="#SVGID_9_-11"
         overflow="visible"
         id="use77"
         style="overflow:visible"
         x="0"
         y="0"
         width="100%"
         height="100%" />
    </clipPath>
    <clipPath
       id="SVGID_6_-5">
      <use
         xlink:href="#SVGID_5_-1"
         overflow="visible"
         id="use59"
         style="overflow:visible"
         x="0"
         y="0"
         width="100%"
         height="100%" />
    </clipPath>
    <clipPath
       id="SVGID_4_-1">
      <use
         xlink:href="#SVGID_3_-9"
         overflow="visible"
         id="use43-9"
         style="overflow:visible"
         x="0"
         y="0"
         width="100%"
         height="100%" />
    </clipPath>
    <clipPath
       id="SVGID_2_-7">
      <use
         xlink:href="#SVGID_1_-14"
         overflow="visible"
         id="use31"
         style="overflow:visible"
         x="0"
         y="0"
         width="100%"
         height="100%" />
    </clipPath>
    <rect
       id="SVGID_1_-14"
       x="961.55298"
       y="559.86499"
       width="10.498"
       height="7.4260001" />
    <rect
       id="SVGID_3_-9"
       x="949.33002"
       y="559.211"
       width="10.487"
       height="7.9099998" />
    <rect
       id="SVGID_5_-1"
       x="938.85797"
       y="499.87601"
       width="34.414001"
       height="65.761002" />
    <rect
       id="SVGID_7_-4"
       x="958.81"
       y="535.85797"
       width="3.559"
       height="2.0940001" />
    <rect
       id="SVGID_9_-11"
       x="958.81"
       y="535.85797"
       width="3.559"
       height="2.0940001" />
    <rect
       id="SVGID_11_-4"
       x="950.71899"
       y="539.41602"
       width="0.91500002"
       height="2.411" />
    <rect
       id="SVGID_13_-0"
       x="950.71899"
       y="539.41602"
       width="0.91500002"
       height="2.411" />
    <rect
       id="SVGID_15_-99"
       x="968.01703"
       y="541.44202"
       width="0.82099998"
       height="1.7410001" />
    <rect
       id="SVGID_17_-4"
       x="968.01703"
       y="541.44202"
       width="0.82099998"
       height="1.7410001" />
    <rect
       id="SVGID_19_"
       x="968.737"
       y="523.46399"
       width="0.93300003"
       height="2.2490001" />
    <rect
       id="SVGID_21_"
       x="950.31702"
       y="523.46399"
       width="0.93099999"
       height="2.2490001" />
    <rect
       id="SVGID_23_"
       x="958.94"
       y="559.396"
       width="3.0409999"
       height="6.2410002" />
    <rect
       id="SVGID_25_"
       x="958.94"
       y="559.396"
       width="3.0409999"
       height="6.2410002" />
    <clipPath
       clipPathUnits="userSpaceOnUse"
       id="clipPath2557">
      <circle
         style="opacity:1;vector-effect:none;fill:#ff0000;fill-opacity:0.42523367;fill-rule:evenodd;stroke:none;stroke-width:0.5485245;stroke-linecap:butt;stroke-linejoin:bevel;stroke-miterlimit:4;stroke-dasharray:none;stroke-dashoffset:0;stroke-opacity:1;paint-order:markers stroke fill"
         id="circle2559"
         cx="93.195625"
         cy="176.78638"
         r="13.517211" />
    </clipPath>
  </defs>
  <sodipodi:namedview
     id="base"
     pagecolor="#ffffff"
     bordercolor="#666666"
     borderopacity="1.0"
     inkscape:pageopacity="0.0"
     inkscape:pageshadow="2"
     inkscape:zoom="1.979899"
     inkscape:cx="161.04307"
     inkscape:cy="99.537766"
     inkscape:document-units="mm"
     inkscape:current-layer="layer1"
     showgrid="false"
     fit-margin-top="0"
     fit-margin-left="0"
     fit-margin-right="0"
     fit-margin-bottom="0"
     inkscape:window-width="1920"
     inkscape:window-height="1017"
     inkscape:window-x="-8"
     inkscape:window-y="-8"
     inkscape:window-maximized="1" />
  <metadata
     id="metadata3913">
    <rdf:RDF>
      <cc:Work
         rdf:about="">
        <dc:format>image/svg+xml</dc:format>
        <dc:type
           rdf:resource="http://purl.org/dc/dcmitype/StillImage" />
        <dc:title></dc:title>
      </cc:Work>
    </rdf:RDF>
  </metadata>
  <g
     inkscape:label="Layer 1"
     inkscape:groupmode="layer"
     id="layer1"
     transform="translate(-51.122444,-137.96767)">
    <circle
       style="opacity:1;vector-effect:none;fill:#393939;fill-opacity:1;fill-rule:evenodd;stroke:none;stroke-width:0.90107036;stroke-linecap:butt;stroke-linejoin:bevel;stroke-miterlimit:4;stroke-dasharray:none;stroke-dashoffset:0;stroke-opacity:1;paint-order:markers stroke fill"
       id="path4672"
       cx="73.327393"
       cy="160.17262"
       r="22.204948" />
    <g
       id="g2555"
       transform="matrix(1.6427168,0,0,1.6427168,-79.766621,-130.23732)"
       clip-path="url(#clipPath2557)">
      <path
         id="path4"
         d="m 99.815118,170.95856 c 0,0 1.375572,3.68591 -3.359943,12.67883 -3.230298,6.13436 -0.567532,-13.37231 -0.567532,-13.37231 z"
         style="fill:#b86328;stroke-width:0.26458332"
         inkscape:connector-curvature="0" />
      <path
         id="path6"
         d="m 86.599975,168.10397 c 0,0 -1.716617,1.19565 -0.551657,6.5405 0.264319,1.21232 1.219465,5.22737 0.03731,7.15248 0,0 0.981868,-0.97526 1.188773,-2.41247 0,0 0.10742,2.09947 -1.011503,3.67823 0,0 5.088732,3.58088 10.081684,-0.33231 l 1.262856,-14.22797 z"
         style="fill:#b86328;stroke-width:0.26458332"
         inkscape:connector-curvature="0" />
      <path
         id="path8"
         d="m 89.533939,182.33776 c 0.0029,-0.0212 0.763588,0.1651 0.323321,0.76623 -1.441714,1.96797 -1.412346,6.09071 -1.402556,6.35238 0.01614,0.43894 -0.502709,-0.037 -0.502709,0.14817 0,-0.25268 -0.56515,-5.95577 1.581944,-7.26678"
         style="fill:#db7da7;stroke-width:0.26458332"
         inkscape:connector-curvature="0" />
      <path
         id="path10"
         d="m 89.389212,190.51047 c -0.0011,7.9e-4 0.05345,-0.009 -0.06112,-0.26167 -0.11721,-0.25162 -0.206375,-0.47281 -0.295539,-0.771 -0.09208,-0.29713 -0.128852,-0.37571 -0.316971,-0.47651 -0.287867,-0.15373 -0.838994,-0.14341 -1.004623,-0.0299 -0.159015,0.11827 -0.428096,0.69559 -0.541337,0.96123 -0.0889,0.27728 -0.280723,0.95356 -0.231775,1.04325 0.06033,0.0931 0.278606,0.0505 0.278606,0.0503 0.004,8e-4 0.09895,-0.41407 0.14261,-0.56038 0.01826,0.004 -0.134408,0.88926 -0.135731,1.10648 0.01138,0.12092 0.274108,0.14976 0.297921,0.0667 0.05106,-0.14923 0.118798,-0.73634 0.146844,-0.92181 0.03678,-0.18494 0.03439,-0.18574 0.03493,-0.18547 0.02884,0.002 -0.06059,1.11442 0.0061,1.32953 2.65e-4,-0.002 0.229923,0.17171 0.354012,-0.01 0.0042,-5.3e-4 0.04339,-0.57176 0.07488,-0.98081 0.03466,-0.41037 0.0045,-0.45535 0.02646,-0.4109 0.02593,0.0476 -0.0209,0.75353 0.08387,1.26762 2.64e-4,0 0.02513,0.12039 0.169333,0.12674 0.144198,0.006 0.165894,-0.0947 0.181769,-0.21564 0.01799,-0.14102 -0.03466,-0.49953 -0.01032,-0.97155 0.02275,-0.47281 0.09022,-0.78634 0.09234,-0.78687 0.0066,-0.003 0.231246,0.55536 0.368564,0.67733 0.185473,0.15267 0.339461,-0.0452 0.339196,-0.0468"
         style="fill:#fece9c;stroke-width:0.26458332"
         inkscape:connector-curvature="0" />
      <path
         id="path12"
         d="m 96.433743,182.33776 c -0.0029,-0.0212 -0.671247,0.25717 -0.23151,0.85778 1.441979,1.9685 1.320535,5.99889 1.31101,6.26057 -0.0164,0.43894 0.502444,-0.037 0.502444,0.14816 2.65e-4,-0.25241 0.565415,-5.9555 -1.581944,-7.26651"
         style="fill:#db7da7;stroke-width:0.26458332"
         inkscape:connector-curvature="0" />
      <path
         id="path14"
         d="m 96.578735,190.51047 c 0.0011,7.9e-4 -0.05345,-0.009 0.06112,-0.26167 0.116946,-0.25162 0.20611,-0.47281 0.295539,-0.771 0.09208,-0.29713 0.128588,-0.37571 0.316707,-0.47651 0.288131,-0.15373 0.838993,-0.14341 1.004623,-0.0299 0.159279,0.11827 0.428095,0.69559 0.541337,0.96123 0.08917,0.27728 0.281252,0.95356 0.231775,1.04325 -0.06032,0.0931 -0.278606,0.0505 -0.278606,0.0503 -0.0037,8e-4 -0.09895,-0.41407 -0.142346,-0.56038 -0.01826,0.004 0.134144,0.88926 0.135731,1.10648 -0.01138,0.12092 -0.274373,0.14976 -0.297656,0.0667 -0.05159,-0.14923 -0.118798,-0.73634 -0.147373,-0.92181 -0.03678,-0.18494 -0.0344,-0.18574 -0.03493,-0.18547 -0.02884,0.002 0.06059,1.11442 -0.0058,1.32953 -5.29e-4,-0.002 -0.229923,0.17171 -0.354277,-0.01 -0.0042,-5.3e-4 -0.04313,-0.57176 -0.07461,-0.98081 -0.03466,-0.41037 -0.0048,-0.45535 -0.02672,-0.4109 -0.02619,0.0476 0.0209,0.75353 -0.08387,1.26762 0,0 -0.02514,0.12039 -0.169333,0.12674 -0.144198,0.006 -0.165894,-0.0947 -0.181769,-0.21564 -0.01799,-0.14102 0.03466,-0.49953 0.01032,-0.97155 -0.02276,-0.47281 -0.09049,-0.78634 -0.0926,-0.78687 -0.0066,-0.003 -0.231245,0.55536 -0.368564,0.67733 -0.185209,0.15267 -0.338931,-0.0452 -0.338667,-0.0468"
         style="fill:#fece9c;stroke-width:0.26458332"
         inkscape:connector-curvature="0" />
      <path
         id="path16"
         d="m 95.986068,190.22869 c 0,0 -0.471222,2.59265 -0.741891,3.44646 -0.270934,0.85408 -0.324115,1.1311 -0.324115,1.1311 0,0 -0.405606,-0.0759 -0.425714,-0.16113 -0.01958,-0.0847 0.436298,-1.46103 0.441325,-2.71992 0.0042,-1.00701 -0.435505,-1.56025 -0.435505,-1.56025 0,0 0.664634,-0.6387 1.080559,-0.67389 0.416454,-0.0355 0.405341,0.53763 0.405341,0.53763"
         style="fill:#fece9c;stroke-width:0.26458332"
         inkscape:connector-curvature="0" />
      <path
         id="path18"
         d="m 90.61926,191.17219 c 0,0 -0.574939,0.60008 -0.994039,1.52348 -0.4191,0.92366 -0.731044,2.0738 -0.731044,2.0738 l -0.333375,0.11271 -0.104511,-0.13917 0.856457,-3.94626 c 0,0 0.09657,-0.56277 0.766762,-0.32464 0.670454,0.23865 0.53975,0.70008 0.53975,0.70008"
         style="fill:#fece9c;stroke-width:0.26458332"
         inkscape:connector-curvature="0" />
      <path
         id="path20"
         d="m 96.106718,188.9698 c 0,0 0.290513,0.39264 0.16219,1.03055 -0.1397,0.69268 -0.530225,1.97406 -0.530225,1.97406 -0.02064,0.10187 -1.475846,0.4527 -3.161771,0.35454 -1.267619,-0.0738 -2.219589,-0.28786 -2.811198,-0.48736 -0.119856,-0.2458 -0.251883,-0.82047 -0.251883,-0.82047 0,0 -0.161131,0.31988 -0.265377,0.60695 -0.129381,-0.0696 -0.192881,-0.1262 -0.187061,-0.15875 0,0 0.131498,-1.52876 0.195528,-2.04391 0.03836,-0.30903 0.435768,-0.83449 0.435768,-0.83449 0,0 5.39115,-0.8599 6.414029,0.37888"
         style="fill:#4b4b4b;stroke-width:0.26458332"
         inkscape:connector-curvature="0" />
      <path
         id="path22"
         d="m 95.420389,195.219 c 0,0 -0.245004,-0.3691 -0.440796,-0.59902 -0.17727,-0.20823 -0.410368,-0.14631 -0.410368,-0.14631 l -0.265642,0.19658 c 0,0 -0.229394,0.58685 -0.07144,0.66781 0.157691,0.0815 0.47916,0.1815 0.698764,0.15028 0.219869,-0.0312 0.489479,-0.26934 0.489479,-0.26934"
         style="fill:#4b4b4b;stroke-width:0.26458332"
         inkscape:connector-curvature="0" />
      <path
         id="path24"
         d="m 87.886643,195.11343 c 0,0 0.309563,-0.34105 0.545836,-0.54981 0.213519,-0.18891 0.433123,-0.10451 0.433123,-0.10451 l 0.227541,0.22119 c 0,0 0.120386,0.60405 -0.0508,0.66914 -0.171185,0.0645 -0.507735,0.13176 -0.719931,0.0791 -0.211931,-0.0521 -0.435769,-0.31512 -0.435769,-0.31512"
         style="fill:#4b4b4b;stroke-width:0.26458332"
         inkscape:connector-curvature="0" />
      <path
         id="path26"
         d="m 96.165721,183.35984 c 0.102393,-0.15293 1.201472,1.8714 -0.326496,2.93344 -0.214048,0.53393 -0.254,1.06309 -0.210344,1.42769 0.06138,0.51461 0.478102,1.24857 0.478102,1.24857 -1.627187,0.37412 -5.602287,0.21987 -6.413765,-0.37889 0,0 0.461698,-0.58287 0.549805,-1.10595 0.152135,-0.9017 -0.07435,-2.82496 -0.380736,-4.71858 -0.40296,-2.48947 6.303434,0.59372 6.303434,0.59372"
         style="fill:#db7da7;stroke-width:0.26458332"
         inkscape:connector-curvature="0" />
      <g
         style="opacity:0.1"
         id="g38"
         transform="matrix(0.26458333,0,0,0.26458333,-160.54837,36.289608)">
        <g
           id="g36">
          <defs
             id="defs29">
            <rect
               height="7.4260001"
               width="10.498"
               y="559.86499"
               x="961.55298"
               id="rect2326" />
          </defs>
          <clipPath
             id="clipPath1068">
            <use
               height="100%"
               width="100%"
               y="0"
               x="0"
               style="overflow:visible"
               id="use1066"
               overflow="visible"
               xlink:href="#SVGID_1_-14" />
          </clipPath>
          <path
             style="fill:#010101"
             inkscape:connector-curvature="0"
             id="path34"
             d="m 961.554,564.438 c 0,0 2.903,4.979 8.313,1.781 1.508,-0.89 2.541,-3.593 2.066,-6.354 -0.495,6.583 -6.591,8.467 -10.379,4.573"
             clip-path="url(#SVGID_2_-7)" />
        </g>
      </g>
      <g
         style="opacity:0.1"
         id="g50"
         transform="matrix(0.26458333,0,0,0.26458333,-160.54837,36.289608)">
        <g
           id="g48">
          <defs
             id="defs41">
            <rect
               height="7.9099998"
               width="10.487"
               y="559.211"
               x="949.33002"
               id="rect2334" />
          </defs>
          <clipPath
             id="clipPath1077">
            <use
               height="100%"
               width="100%"
               y="0"
               x="0"
               style="overflow:visible"
               id="use1075"
               overflow="visible"
               xlink:href="#SVGID_3_-9" />
          </clipPath>
          <path
             style="fill:#010101"
             inkscape:connector-curvature="0"
             id="path46"
             d="m 959.816,564.438 c 0,0 -2.251,2.334 -5.959,1.522 -4.966,-1.086 -4.127,-5.898 -4.113,-6.75 -2.143,4.964 4.432,11.743 10.072,5.228"
             clip-path="url(#SVGID_4_-1)" />
        </g>
      </g>
      <path
         id="path52"
         d="m 89.423343,182.46026 c 0,0 0,0.50244 0.432594,1.24089 0.399521,0.6821 1.086909,1.63698 1.824567,1.92855 0,0 -0.05398,-0.53578 0.464608,-1.05992 0.298186,-0.30109 0.739246,-0.39132 0.739246,-0.39132 l 1.414727,0.008 c 0,0 0.372798,0.16377 0.621771,0.46037 0.261937,0.31168 0.319352,0.82841 0.319352,0.82841 0,0 1.674283,-1.05463 1.812925,-2.96016 0.01852,-0.25267 0.01852,-0.39634 0.01852,-0.39634 0,0 0.270669,-1.92114 -4.185179,-1.89389 -3.693054,0.0233 -3.463132,2.23573 -3.463132,2.23573"
         style="fill:#f390bc;stroke-width:0.26458332"
         inkscape:connector-curvature="0" />
      <path
         id="path54"
         d="m 87.858333,170.26588 c -0.03731,0.0646 1.908704,11.92371 1.908704,11.92371 0,0 1.112044,1.67587 3.151717,1.973 0.762,0.83873 0.686329,1.78541 0.686329,1.78541 0,0 0.144727,-1.10385 0.687388,-1.76583 1.594908,-0.25744 2.670968,-1.82272 2.670968,-1.82272 0,0 1.778794,-6.93896 1.830123,-7.72795 0.05107,-0.78872 0.229923,-4.64449 0.229923,-4.64449 0,0 -2.561696,-2.89904 -6.303433,-2.5019 -4.106598,0.43629 -4.861719,2.78077 -4.861719,2.78077"
         style="fill:#fdcb9f;stroke-width:0.26458332"
         inkscape:connector-curvature="0" />
      <g
         style="opacity:0.4"
         id="g66"
         transform="matrix(0.26458333,0,0,0.26458333,-160.54837,36.289608)">
        <g
           id="g64">
          <defs
             id="defs57">
            <rect
               height="65.761002"
               width="34.414001"
               y="499.87601"
               x="938.85797"
               id="rect2344" />
          </defs>
          <clipPath
             id="clipPath1088">
            <use
               height="100%"
               width="100%"
               y="0"
               x="0"
               style="overflow:visible"
               id="use1086"
               overflow="visible"
               xlink:href="#SVGID_5_-1" />
          </clipPath>
          <path
             style="fill:#f79361"
             inkscape:connector-curvature="0"
             id="path62"
             d="m 949.073,550.84 c -3.583,-10.209 -5.078,-33.013 -4.797,-48.26 0.016,-0.906 0.472,-1.802 0.375,-2.704 -4.666,3.006 -5.791,6.491 -5.791,6.491 -0.141,0.244 7.214,45.067 7.214,45.067 0,0 4.204,6.336 11.913,7.458 2.879,3.169 2.593,6.746 2.593,6.746 0,0 0.547,-4.171 2.598,-6.674 4.185,-0.675 7.992,-3.905 10.094,-6.888 -1.042,0.785 -13.314,10.026 -24.199,-1.236"
             clip-path="url(#SVGID_6_-5)" />
        </g>
      </g>
      <g
         style="opacity:0.5"
         id="g88"
         transform="matrix(0.26458333,0,0,0.26458333,-160.54837,36.289608)">
        <g
           id="g86">
          <defs
             id="defs69">
            <rect
               height="2.0940001"
               width="3.559"
               y="535.85797"
               x="958.81"
               id="rect2352" />
          </defs>
          <clipPath
             id="clipPath1097">
            <use
               height="100%"
               width="100%"
               y="0"
               x="0"
               style="overflow:visible"
               id="use1095"
               overflow="visible"
               xlink:href="#SVGID_7_-4" />
          </clipPath>
          <g
             style="opacity:0.7"
             id="g84"
             clip-path="url(#SVGID_8_-3)">
            <g
               id="g82">
              <defs
                 id="defs75">
                <rect
                   height="2.0940001"
                   width="3.559"
                   y="535.85797"
                   x="958.81"
                   id="rect2357" />
              </defs>
              <clipPath
                 id="clipPath1103">
                <use
                   height="100%"
                   width="100%"
                   y="0"
                   x="0"
                   style="overflow:visible"
                   id="use1101"
                   overflow="visible"
                   xlink:href="#SVGID_9_-11" />
              </clipPath>
              <polygon
                 style="fill:#f79361"
                 id="polygon80"
                 points="958.959,535.858 958.81,536.627 960.726,537.952 962.369,535.858 960.783,536.875 "
                 clip-path="url(#SVGID_10_-24)" />
            </g>
          </g>
        </g>
      </g>
      <path
         id="path90"
         d="m 89.542406,173.78563 0.04551,-0.19129 c 0,0 0.382323,-0.0902 1.159669,-0.1405 0.777081,-0.05 1.451769,0.0352 1.451769,0.0352 l -0.06667,0.39264 c 0,0 -0.799836,-0.15742 -1.169988,-0.20346 -0.323585,-0.0402 -1.420283,0.10742 -1.420283,0.10742"
         style="fill:#b86328;stroke-width:0.26458332"
         inkscape:connector-curvature="0" />
      <path
         id="path92"
         d="m 95.041241,173.61206 0.0463,-0.31406 c 0.868363,0.0728 1.290903,0.27279 2.519892,0.44106 l -0.06588,0.19659 z"
         style="fill:#b86328;stroke-width:0.26458332"
         inkscape:connector-curvature="0" />
      <path
         id="path94"
         d="m 95.655075,179.78109 c -0.170921,0.041 -0.646377,0.14843 -1.046427,0.17938 -0.379942,0.0296 -1.724819,-10e-4 -2.629165,-0.17356 -0.38444,-0.0733 -0.862277,-0.45773 -0.862277,-0.45773 0,0 0.442912,0.5162 0.935037,0.61859 0.318823,0.0664 1.434571,0.2847 2.207155,0.1995 0.785548,-0.0868 1.031875,-0.1868 1.031875,-0.1868 0,0 0.373327,-0.1479 0.363802,-0.17938"
         style="fill:#f48060;stroke-width:0.26458332"
         inkscape:connector-curvature="0" />
      <g
         style="opacity:0.5"
         id="g116"
         transform="matrix(0.26458333,0,0,0.26458333,-160.54837,36.289608)">
        <g
           id="g114">
          <defs
             id="defs97">
            <rect
               height="2.411"
               width="0.91500002"
               y="539.41602"
               x="950.71899"
               id="rect2370" />
          </defs>
          <clipPath
             id="clipPath1117">
            <use
               height="100%"
               width="100%"
               y="0"
               x="0"
               style="overflow:visible"
               id="use1115"
               overflow="visible"
               xlink:href="#SVGID_11_-4" />
          </clipPath>
          <g
             style="opacity:0.7"
             id="g112"
             clip-path="url(#SVGID_12_-6)">
            <g
               id="g110">
              <defs
                 id="defs103">
                <rect
                   height="2.411"
                   width="0.91500002"
                   y="539.41602"
                   x="950.71899"
                   id="rect2375" />
              </defs>
              <clipPath
                 id="clipPath1123">
                <use
                   height="100%"
                   width="100%"
                   y="0"
                   x="0"
                   style="overflow:visible"
                   id="use1121"
                   overflow="visible"
                   xlink:href="#SVGID_13_-0" />
              </clipPath>
              <polygon
                 style="fill:#f79361"
                 id="polygon108"
                 points="950.72,540.334 951.117,541.827 951.635,539.416 "
                 clip-path="url(#SVGID_14_-0)" />
            </g>
          </g>
        </g>
      </g>
      <g
         style="opacity:0.5"
         id="g138"
         transform="matrix(0.26458333,0,0,0.26458333,-160.54837,36.289608)">
        <g
           id="g136">
          <defs
             id="defs119">
            <rect
               height="1.7410001"
               width="0.82099998"
               y="541.44202"
               x="968.01703"
               id="rect2385" />
          </defs>
          <clipPath
             id="clipPath1134">
            <use
               height="100%"
               width="100%"
               y="0"
               x="0"
               style="overflow:visible"
               id="use1132"
               overflow="visible"
               xlink:href="#SVGID_15_-99" />
          </clipPath>
          <g
             style="opacity:0.7"
             id="g134"
             clip-path="url(#SVGID_16_-36)">
            <g
               id="g132">
              <defs
                 id="defs125">
                <rect
                   height="1.7410001"
                   width="0.82099998"
                   y="541.44202"
                   x="968.01703"
                   id="rect2390" />
              </defs>
              <clipPath
                 id="clipPath1140">
                <use
                   height="100%"
                   width="100%"
                   y="0"
                   x="0"
                   style="overflow:visible"
                   id="use1138"
                   overflow="visible"
                   xlink:href="#SVGID_17_-4" />
              </clipPath>
              <polygon
                 style="fill:#f79361"
                 id="polygon130"
                 points="968.839,542.091 968.613,543.184 968.017,541.443 "
                 clip-path="url(#SVGID_18_-6)" />
            </g>
          </g>
        </g>
      </g>
      <path
         id="path140"
         d="m 90.774571,175.36122 c 0,-0.46963 0.183356,-0.85063 0.409839,-0.85063 0.226483,2.6e-4 0.410104,0.38126 0.410369,0.85116 0,0.46964 -0.183621,0.85064 -0.410104,0.85064 -0.226484,-2.7e-4 -0.410104,-0.38127 -0.410104,-0.85117"
         style="fill:#224352;stroke-width:0.26458332"
         inkscape:connector-curvature="0" />
      <path
         id="path142"
         d="m 95.64846,175.36122 c 0,-0.46963 0.183356,-0.85063 0.40984,-0.85063 0.226483,2.6e-4 0.410368,0.38126 0.410368,0.85116 2.65e-4,0.46964 -0.183356,0.85064 -0.409839,0.85064 -0.226748,-2.7e-4 -0.410369,-0.38127 -0.410369,-0.85117"
         style="fill:#224352;stroke-width:0.26458332"
         inkscape:connector-curvature="0" />
      <g
         style="opacity:0.5"
         id="g154"
         transform="matrix(0.26458333,0,0,0.26458333,-160.54837,36.289608)">
        <g
           id="g152">
          <defs
             id="defs145">
            <rect
               height="2.2490001"
               width="0.93300003"
               y="523.46399"
               x="968.737"
               id="rect2402" />
          </defs>
          <clipPath
             id="clipPath1153">
            <use
               height="100%"
               width="100%"
               y="0"
               x="0"
               style="overflow:visible"
               id="use1151"
               overflow="visible"
               xlink:href="#SVGID_19_" />
          </clipPath>
          <path
             style="fill:#ffffff"
             inkscape:connector-curvature="0"
             id="path150"
             d="m 968.738,524.589 c 0,-0.621 0.207,-1.124 0.465,-1.124 0.258,0 0.466,0.504 0.467,1.125 0,0.62 -0.209,1.124 -0.467,1.124 -0.256,0 -0.465,-0.504 -0.465,-1.125"
             clip-path="url(#SVGID_20_)" />
        </g>
      </g>
      <polygon
         id="polygon156"
         points="960.783,536.875 958.959,535.858 959.608,533.825 960.606,529.24 961.674,533.825 962.368,535.858 "
         style="fill:#fdd4b6"
         transform="matrix(0.26458333,0,0,0.26458333,-160.54837,36.289608)" />
      <path
         id="path158"
         d="m 91.084398,174.94741 c 0,0 -0.638705,-0.0931 -0.542396,-0.60589"
         stroke-miterlimit="10"
         style="fill:none;stroke:#224352;stroke-width:0.092075;stroke-miterlimit:10"
         inkscape:connector-curvature="0" />
      <path
         id="path160"
         d="m 90.808437,175.03922 c 0,0 -0.304006,0.0709 -0.358246,-0.23786"
         stroke-miterlimit="10"
         style="fill:none;stroke:#224352;stroke-width:0.092075;stroke-miterlimit:10"
         inkscape:connector-curvature="0" />
      <path
         id="path162"
         d="m 96.151433,174.94741 c 0,0 0.638969,-0.0931 0.542396,-0.60589"
         stroke-miterlimit="10"
         style="fill:none;stroke:#224352;stroke-width:0.092075;stroke-miterlimit:10"
         inkscape:connector-curvature="0" />
      <path
         id="path164"
         d="m 96.427393,175.03922 c 0,0 0.304007,0.0709 0.358246,-0.23786"
         stroke-miterlimit="10"
         style="fill:none;stroke:#224352;stroke-width:0.092075;stroke-miterlimit:10"
         inkscape:connector-curvature="0" />
      <g
         style="opacity:0.5"
         id="g176"
         transform="matrix(0.26458333,0,0,0.26458333,-160.54837,36.289608)">
        <g
           id="g174">
          <defs
             id="defs167">
            <rect
               height="2.2490001"
               width="0.93099999"
               y="523.46399"
               x="950.31702"
               id="rect2415" />
          </defs>
          <clipPath
             id="clipPath1167">
            <use
               height="100%"
               width="100%"
               y="0"
               x="0"
               style="overflow:visible"
               id="use1165"
               overflow="visible"
               xlink:href="#SVGID_21_" />
          </clipPath>
          <path
             style="fill:#ffffff"
             inkscape:connector-curvature="0"
             id="path172"
             d="m 950.317,524.589 c 0,-0.621 0.208,-1.124 0.466,-1.124 0.257,0 0.466,0.504 0.466,1.125 0,0.62 -0.208,1.124 -0.466,1.124 -0.257,0 -0.466,-0.504 -0.466,-1.125"
             clip-path="url(#SVGID_22_)" />
        </g>
      </g>
      <path
         id="path178"
         d="m 86.5079,168.19604 c -0.47678,-3.41762 9.238191,-5.63562 12.490979,-1.50204 0.976842,1.24169 1.427961,2.83395 1.620571,3.57108 0.26855,0.31433 0.59796,0.5596 1.24143,0.75089 0,0 -0.52864,3.52795 -5.420522,3.52504 -4.32726,-0.002 -7.164652,-4.85404 -8.564827,-5.63165 -0.767292,-0.42598 -0.773642,-0.0849 -1.367631,-0.71332"
         style="fill:#b86328;stroke-width:0.26458332"
         inkscape:connector-curvature="0" />
      <path
         id="path180"
         d="m 87.193964,172.26904 c 0,0 2.427023,-1.01997 2.74029,-4.23016 0.313267,-3.21019 -3.291946,1.50574 -3.291946,1.50574 z"
         style="fill:#b86328;stroke-width:0.26458332"
         inkscape:connector-curvature="0" />
      <g
         style="opacity:0.3"
         id="g202"
         transform="matrix(0.26458333,0,0,0.26458333,-160.54837,36.289608)">
        <g
           id="g200">
          <defs
             id="defs183">
            <rect
               height="6.2410002"
               width="3.0409999"
               y="559.396"
               x="958.94"
               id="rect2425" />
          </defs>
          <clipPath
             id="clipPath1178">
            <use
               height="100%"
               width="100%"
               y="0"
               x="0"
               style="overflow:visible"
               id="use1176"
               overflow="visible"
               xlink:href="#SVGID_23_" />
          </clipPath>
          <g
             style="opacity:0.7"
             id="g198"
             clip-path="url(#SVGID_24_)">
            <g
               id="g196">
              <defs
                 id="defs189">
                <rect
                   height="6.2410002"
                   width="3.0409999"
                   y="559.396"
                   x="958.94"
                   id="rect2430" />
              </defs>
              <clipPath
                 id="clipPath1184">
                <use
                   height="100%"
                   width="100%"
                   y="0"
                   x="0"
                   style="overflow:visible"
                   id="use1182"
                   overflow="visible"
                   xlink:href="#SVGID_25_" />
              </clipPath>
              <path
                 style="fill:#f79361"
                 inkscape:connector-curvature="0"
                 id="path194"
                 d="m 958.94,559.396 c 0,0 1.419,1.391 1.149,3.007 l 0.491,3.234 0.712,-2.988 c 0,0 -0.614,-1.522 0.688,-3.253 0,0 -1.043,0.376 -1.401,1.213 0.002,0 -0.488,-0.793 -1.639,-1.213"
                 clip-path="url(#SVGID_26_)" />
            </g>
          </g>
        </g>
      </g>
      <path
         id="path204"
         d="m 101.62011,171.13874 c 0,0 -2.408771,2.66038 -6.047321,1.64438 -3.639079,-1.016 -5.401468,-5.8285 -7.485856,-6.28835 0,0 2.023004,-1.82377 6.176433,-1.67058 4.15343,0.15319 5.425546,3.44064 5.808664,4.77017 0,0 -2.777862,-5.19932 -7.894903,-3.80444 0,0 3.741208,6.86594 9.442983,5.34882"
         style="fill:#c26728;stroke-width:0.26458332"
         inkscape:connector-curvature="0" />
    </g>
  </g>
</svg>
