<?xml version="1.0" encoding="UTF-8" standalone="no"?>
<!-- Created with Inkscape (http://www.inkscape.org/) -->

<svg
   xmlns:dc="http://purl.org/dc/elements/1.1/"
   xmlns:cc="http://creativecommons.org/ns#"
   xmlns:rdf="http://www.w3.org/1999/02/22-rdf-syntax-ns#"
   xmlns:svg="http://www.w3.org/2000/svg"
   xmlns="http://www.w3.org/2000/svg"
   xmlns:xlink="http://www.w3.org/1999/xlink"
   xmlns:sodipodi="http://sodipodi.sourceforge.net/DTD/sodipodi-0.dtd"
   xmlns:inkscape="http://www.inkscape.org/namespaces/inkscape"
   width="44.409897mm"
   height="44.409897mm"
   viewBox="0 0 44.409897 44.409897"
   version="1.1"
   id="svg3916"
   inkscape:version="0.92.4 (5da689c313, 2019-01-14)"
   sodipodi:docname="avatar3.svg">
  <defs
     id="defs3910">
    <clipPath
       clipPathUnits="userSpaceOnUse"
       id="clipPath3897">
      <circle
         style="opacity:0.5;vector-effect:none;fill:#4d4d4d;fill-opacity:1;fill-rule:evenodd;stroke:none;stroke-width:0.90107036;stroke-linecap:butt;stroke-linejoin:bevel;stroke-miterlimit:4;stroke-dasharray:none;stroke-dashoffset:0;stroke-opacity:1;paint-order:markers stroke fill"
         id="circle3899"
         cx="231.51881"
         cy="173.94919"
         r="22.204948" />
    </clipPath>
    <clipPath
       id="SVGID_18_">
      <use
         xlink:href="#SVGID_17_"
         overflow="visible"
         id="use159"
         style="overflow:visible"
         x="0"
         y="0"
         width="100%"
         height="100%" />
    </clipPath>
    <clipPath
       id="SVGID_16_">
      <use
         xlink:href="#SVGID_15_"
         overflow="visible"
         id="use145"
         style="overflow:visible"
         x="0"
         y="0"
         width="100%"
         height="100%" />
    </clipPath>
    <clipPath
       id="SVGID_14_">
      <use
         xlink:href="#SVGID_13_"
         overflow="visible"
         id="use127"
         style="overflow:visible"
         x="0"
         y="0"
         width="100%"
         height="100%" />
    </clipPath>
    <clipPath
       id="SVGID_12_">
      <use
         xlink:href="#SVGID_11_"
         overflow="visible"
         id="use113"
         style="overflow:visible"
         x="0"
         y="0"
         width="100%"
         height="100%" />
    </clipPath>
    <clipPath
       id="SVGID_8_">
      <use
         xlink:href="#SVGID_7_"
         overflow="visible"
         id="use81"
         style="overflow:visible"
         x="0"
         y="0"
         width="100%"
         height="100%" />
    </clipPath>
    <clipPath
       id="SVGID_10_">
      <use
         xlink:href="#SVGID_9_"
         overflow="visible"
         id="use87"
         style="overflow:visible"
         x="0"
         y="0"
         width="100%"
         height="100%" />
    </clipPath>
    <clipPath
       id="SVGID_6_">
      <use
         xlink:href="#SVGID_5_"
         overflow="visible"
         id="use65"
         style="overflow:visible"
         x="0"
         y="0"
         width="100%"
         height="100%" />
    </clipPath>
    <clipPath
       id="SVGID_4_">
      <use
         xlink:href="#SVGID_3_"
         overflow="visible"
         id="use41"
         style="overflow:visible"
         x="0"
         y="0"
         width="100%"
         height="100%" />
    </clipPath>
    <clipPath
       id="SVGID_2_">
      <use
         xlink:href="#SVGID_1_"
         overflow="visible"
         id="use27"
         style="overflow:visible"
         x="0"
         y="0"
         width="100%"
         height="100%" />
    </clipPath>
    <rect
       id="SVGID_1_"
       x="966.646"
       y="591.78998"
       width="4.6129999"
       height="3.1800001" />
    <rect
       id="SVGID_3_"
       x="936.18103"
       y="593.40002"
       width="4.507"
       height="1.38" />
    <rect
       id="SVGID_5_"
       x="939.19897"
       y="493.73999"
       width="27.424999"
       height="57.82" />
    <rect
       id="SVGID_7_"
       x="955.93402"
       y="527.09003"
       width="9.6120005"
       height="6.04" />
    <rect
       id="SVGID_9_"
       x="955.93402"
       y="527.09003"
       width="9.6120005"
       height="6.04" />
    <rect
       id="SVGID_11_"
       x="949.26898"
       y="515.28998"
       width="0.93199998"
       height="2.25" />
    <rect
       id="SVGID_13_"
       x="969.08002"
       y="515.28998"
       width="0.93199998"
       height="2.25" />
    <rect
       id="SVGID_15_"
       x="941.59802"
       y="510.79001"
       width="16.566"
       height="16.559999" />
    <rect
       id="SVGID_17_"
       x="964.06403"
       y="510.79001"
       width="16.566"
       height="16.559999" />
    <clipPath
       clipPathUnits="userSpaceOnUse"
       id="clipPath1231">
      <circle
         style="opacity:1;vector-effect:none;fill:#393939;fill-opacity:1;fill-rule:evenodd;stroke:none;stroke-width:0.90107036;stroke-linecap:butt;stroke-linejoin:bevel;stroke-miterlimit:4;stroke-dasharray:none;stroke-dashoffset:0;stroke-opacity:1;paint-order:markers stroke fill"
         id="circle1233"
         cx="73.327393"
         cy="160.17262"
         r="22.204948" />
    </clipPath>
  </defs>
  <sodipodi:namedview
     id="base"
     pagecolor="#ffffff"
     bordercolor="#666666"
     borderopacity="1.0"
     inkscape:pageopacity="0.0"
     inkscape:pageshadow="2"
     inkscape:zoom="1.979899"
     inkscape:cx="161.04307"
     inkscape:cy="13.407761"
     inkscape:document-units="mm"
     inkscape:current-layer="layer1"
     showgrid="false"
     fit-margin-top="0"
     fit-margin-left="0"
     fit-margin-right="0"
     fit-margin-bottom="0"
     inkscape:window-width="1920"
     inkscape:window-height="1017"
     inkscape:window-x="-8"
     inkscape:window-y="-8"
     inkscape:window-maximized="1" />
  <metadata
     id="metadata3913">
    <rdf:RDF>
      <cc:Work
         rdf:about="">
        <dc:format>image/svg+xml</dc:format>
        <dc:type
           rdf:resource="http://purl.org/dc/dcmitype/StillImage" />
        <dc:title></dc:title>
      </cc:Work>
    </rdf:RDF>
  </metadata>
  <g
     inkscape:label="Layer 1"
     inkscape:groupmode="layer"
     id="layer1"
     transform="translate(-51.122444,-137.96767)">
    <circle
       style="opacity:1;vector-effect:none;fill:#393939;fill-opacity:1;fill-rule:evenodd;stroke:none;stroke-width:0.90107036;stroke-linecap:butt;stroke-linejoin:bevel;stroke-miterlimit:4;stroke-dasharray:none;stroke-dashoffset:0;stroke-opacity:1;paint-order:markers stroke fill"
       id="path4672"
       cx="73.327393"
       cy="160.17262"
       r="22.204948" />
    <g
       id="g1214"
       clip-path="url(#clipPath1231)">
      <path
         id="path2"
         d="m 80.940888,171.62684 c -0.006,-0.0431 -1.61114,3.92414 -0.470229,4.91727 1.798168,1.56598 2.308167,9.0096 2.28881,9.54109 -0.03331,0.8921 1.394581,-0.0747 1.394581,0.30093 -5.49e-4,-0.51321 1.147898,-12.09592 -3.213162,-14.75929"
         style="fill:#a2423b;stroke-width:0.53740567"
         inkscape:connector-curvature="0" />
      <path
         id="path4"
         d="m 80.765703,189.49934 c 0.0021,0.001 -0.123087,-0.0209 0.140757,-0.60459 0.271381,-0.58147 0.477217,-1.092 0.683032,-1.78041 0.212823,-0.68628 0.297725,-0.86738 0.731962,-1.10008 0.6653,-0.35468 1.937342,-0.33157 2.319439,-0.0699 0.368124,0.27352 0.988821,1.60683 1.250004,2.22056 0.205816,0.64003 0.648645,2.2028 0.535247,2.40917 -0.139743,0.21443 -0.643263,0.11718 -0.643263,0.11621 -0.01014,0.002 -0.227873,-0.95603 -0.328353,-1.29405 -0.04245,0.008 0.309546,2.0545 0.313302,2.55588 -0.02681,0.27839 -0.633613,0.34611 -0.688414,0.15315 -0.117599,-0.34501 -0.273554,-1.70035 -0.339098,-2.12866 -0.0849,-0.42832 -0.07901,-0.4294 -0.08003,-0.42884 -0.06723,0.004 0.138727,2.57362 -0.01422,3.07073 0,-0.004 -0.530432,0.3966 -0.817411,-0.0221 -0.01014,-0.001 -0.09993,-1.3204 -0.172038,-2.2657 -0.08003,-0.94799 -0.01219,-1.0517 -0.06175,-0.94852 -0.05911,0.10909 0.04936,1.73904 -0.192958,2.92724 -0.0011,0 -0.05849,0.27732 -0.391766,0.2929 -0.33264,0.0142 -0.383175,-0.21927 -0.419167,-0.49871 -0.04184,-0.32623 0.08003,-1.15328 0.02417,-2.24421 -0.05322,-1.09148 -0.208518,-1.8159 -0.213351,-1.81697 -0.01421,-0.006 -0.53419,1.28277 -0.851251,1.56384 -0.431007,0.35308 -0.785686,-0.10378 -0.784609,-0.1068"
         style="fill:#fbc59a;stroke-width:0.53740567"
         inkscape:connector-curvature="0" />
      <path
         id="path6"
         d="m 64.77143,171.62684 c 0.0065,-0.0431 1.611143,3.92414 0.470231,4.91727 -1.798159,1.56598 -2.308158,9.0096 -2.288811,9.54109 0.03279,0.8921 -1.394569,-0.0747 -1.394569,0.30093 5.39e-4,-2.00719 -1.147898,-12.09592 3.213149,-14.75929"
         style="fill:#a2423b;stroke-width:0.53740567"
         inkscape:connector-curvature="0" />
      <path
         id="path8"
         d="m 64.947163,189.49934 c -0.0027,0.001 0.123067,-0.0209 -0.141347,-0.60459 -0.270852,-0.58147 -0.476678,-1.092 -0.682503,-1.78041 -0.212813,-0.68628 -0.297725,-0.86738 -0.732484,-1.10008 -0.664772,-0.35468 -1.937348,-0.33157 -2.319444,-0.0699 -0.367586,0.27352 -0.989364,1.60683 -1.250007,2.22056 -0.205825,0.64003 -0.649186,2.2028 -0.535256,2.40917 0.139194,0.21443 0.643275,0.11718 0.643275,0.11621 0.0086,0.002 0.227861,-0.95603 0.328893,-1.29405 0.04245,0.008 -0.309546,2.0545 -0.313309,2.55588 0.02634,0.27839 0.633065,0.34611 0.687881,0.15315 0.118238,-0.34501 0.274076,-1.70035 0.339641,-2.12866 0.08438,-0.42832 0.07899,-0.4294 0.08061,-0.42884 0.06664,0.004 -0.139722,2.57362 0.01401,3.07073 5.38e-4,-0.004 0.530958,0.3966 0.817932,-0.0221 0.0098,-0.001 0.09996,-1.3204 0.171976,-2.2657 0.08007,-0.94799 0.01074,-1.0517 0.06125,-0.94852 0.06018,0.10909 -0.04837,1.73904 0.193994,2.92724 0.0011,0 0.05804,0.27732 0.390694,0.2929 0.333192,0.0142 0.383706,-0.21927 0.419712,-0.49871 0.04192,-0.32623 -0.07954,-1.15328 -0.02364,-2.24421 0.05319,-1.09148 0.208513,-1.8159 0.21335,-1.81697 0.01504,-0.006 0.534181,1.28277 0.851249,1.56384 0.429387,0.35308 0.784076,-0.10378 0.78354,-0.1068"
         style="fill:#fbc59a;stroke-width:0.53740567"
         inkscape:connector-curvature="0" />
      <path
         id="path10"
         d="m 80.758167,183.8614 -0.727635,4.04937 c -0.0451,0.2558 -0.253669,0.43045 -0.501935,0.49655 -1.748731,0.46487 -5.307425,0.84158 -8.897832,1.11028 -2.890707,0.21658 -5.317091,0.10813 -6.415012,-0.0419 -0.341789,-0.0467 -0.55514,-0.46916 -0.468618,-0.81362 l 0.744845,-3.71509 z"
         style="fill:#464646;stroke-width:0.53740567"
         inkscape:connector-curvature="0" />
      <path
         id="path12"
         d="m 80.344363,185.76329 0.413804,-1.90189 -16.266187,1.08612 -0.362211,1.80781 c 5.503034,-0.2891 10.879778,-0.82652 16.214594,-0.99204"
         style="fill:#7e421c;stroke-width:0.53740567"
         inkscape:connector-curvature="0" />
      <path
         id="path14"
         d="m 80.117587,187.46794 c 0,0 -0.956038,5.26604 -1.506883,7.00079 -0.550297,1.73421 -0.657257,2.29687 -0.657257,2.29687 0,0 -0.824911,-0.15476 -0.865214,-0.32674 -0.03978,-0.17245 0.886725,-2.9681 0.896392,-5.52507 0.0081,-2.04591 -0.884571,-3.16961 -0.884571,-3.16961 0,0 1.349418,-1.29624 2.194758,-1.36879 0.845889,-0.0714 0.822775,1.09255 0.822775,1.09255"
         style="fill:#464646;stroke-width:0.53740567"
         inkscape:connector-curvature="0" />
      <path
         id="path16"
         d="m 66.372899,189.51923 c 0,0 -1.231195,1.15326 -2.181328,2.98151 -0.950135,1.82826 -1.707876,4.12728 -1.707876,4.12728 l -0.688954,0.19235 -0.196696,-0.29397 2.165744,-7.91114 c 0,0 0.25688,-1.13125 1.590182,-0.5745 1.333842,0.55621 1.018922,1.47841 1.018922,1.47841"
         style="fill:#464646;stroke-width:0.53740567"
         inkscape:connector-curvature="0" />
      <polygon
         id="polygon18"
         points="970.65,589.022 967.844,588.566 967.35,591.396 969.467,591.74 969.617,591.787 "
         style="fill:#b9d7e6"
         transform="matrix(0.53740568,0,0,0.53740568,-442.99096,-120.81)" />
      <polygon
         id="polygon20"
         points="938.851,588.461 941.629,589.049 940.867,591.829 938.773,591.385 938.155,591.489 "
         style="fill:#b9d7e6"
         transform="matrix(0.53740568,0,0,0.53740568,-442.99096,-120.81)" />
      <path
         id="path22"
         d="m 78.969688,198.35095 c 0,0 -0.497629,-0.74914 -0.895855,-1.21669 -0.359531,-0.42293 -0.832978,-0.29772 -0.832978,-0.29772 l -0.539554,0.39929 c 0,0 -0.465395,1.19196 -0.145633,1.35695 0.320832,0.16492 0.973779,0.36812 1.419817,0.3047 0.446059,-0.0634 0.994203,-0.54653 0.994203,-0.54653"
         style="fill:#ad5b27;stroke-width:0.53740567"
         inkscape:connector-curvature="0" />
      <g
         style="opacity:0.2"
         id="g34"
         transform="matrix(0.53740568,0,0,0.53740568,-442.99096,-120.81)">
        <g
           id="g32">
          <defs
             id="defs25">
            <rect
               height="3.1800001"
               width="4.6129999"
               y="591.78998"
               x="966.646"
               id="rect1013" />
          </defs>
          <clipPath
             id="clipPath1025">
            <use
               height="100%"
               width="100%"
               y="0"
               x="0"
               style="overflow:visible"
               id="use1023"
               overflow="visible"
               xlink:href="#SVGID_1_" />
          </clipPath>
          <path
             style="fill:#010101"
             inkscape:connector-curvature="0"
             id="path30"
             d="m 969.617,591.787 c 0.083,0.097 1.314,1.982 1.314,1.982 0,0 -0.65,0.576 -1.728,0.682 -1.076,0.104 -2.558,-0.207 -2.558,-0.207 0,0 1.953,0.836 2.668,0.713 0.714,-0.122 1.945,-1.065 1.945,-1.065 z"
             clip-path="url(#SVGID_2_)" />
        </g>
      </g>
      <path
         id="path36"
         d="m 60.118573,198.13599 c 0,0 0.628763,-0.69272 1.108667,-1.11674 0.433687,-0.38317 0.879734,-0.21227 0.879734,-0.21227 l 0.462168,0.44927 c 0,0 0.24452,1.2269 -0.103178,1.35909 -0.347702,0.13162 -1.031282,0.26817 -1.462282,0.16127 -0.430997,-0.10643 -0.885106,-0.64057 -0.885106,-0.64057"
         style="fill:#ad5b27;stroke-width:0.53740567"
         inkscape:connector-curvature="0" />
      <g
         style="opacity:0.2"
         id="g48"
         transform="matrix(0.53740568,0,0,0.53740568,-442.99096,-120.81)">
        <g
           id="g46">
          <defs
             id="defs39">
            <rect
               height="1.38"
               width="4.507"
               y="593.40002"
               x="936.18103"
               id="rect1022" />
          </defs>
          <clipPath
             id="clipPath1035">
            <use
               height="100%"
               width="100%"
               y="0"
               x="0"
               style="overflow:visible"
               id="use1033"
               overflow="visible"
               xlink:href="#SVGID_3_" />
          </clipPath>
          <path
             style="fill:#010101"
             inkscape:connector-curvature="0"
             id="path44"
             d="m 936.528,593.404 c 0,0 0.541,0.635 1.588,0.846 1.048,0.211 2.572,0.049 2.572,0.049 0,0 -2.088,0.637 -2.773,0.443 -0.685,-0.193 -1.733,-1.25 -1.733,-1.25 z"
             clip-path="url(#SVGID_4_)" />
        </g>
      </g>
      <path
         id="path50"
         d="m 81.295586,171.49463 c 0,0 0.124103,5.41812 -0.08287,8.9333 -0.156398,2.66823 -0.45465,3.51625 -0.45465,3.51625 l -16.33606,0.99205 c 0,0 0.201529,-1.71218 0.255806,-3.43027 0.116079,-3.64145 -0.586848,-8.6877 -0.586848,-8.6877 z"
         style="fill:#a2423b;stroke-width:0.53740567"
         inkscape:connector-curvature="0" />
      <path
         id="path52"
         d="m 70.070251,175.09526 c 0,-0.98615 1.46443,-1.78581 3.270113,-1.78581 1.806222,0 3.270115,0.79966 3.270115,1.78581 0,0.98666 -1.463893,1.78632 -3.270115,1.78632 -1.805683,0 -3.270113,-0.79966 -3.270113,-1.78632"
         style="fill:#c4908b;stroke-width:0.53740567"
         inkscape:connector-curvature="0" />
      <path
         id="path54"
         d="m 64.173835,171.68865 c 0,0 1.210776,3.42166 7.28722,5.76904 l 1.873398,-1.85512 1.806222,1.85996 c 0,0 5.982935,-2.15393 6.117295,-5.4751 0.07251,-1.79654 0.03859,-0.9915 0.03859,-0.9915 0,0 0.58631,-3.9021 -9.042932,-3.84676 -7.980475,0.0457 -8.079895,4.53948 -8.079895,4.53948"
         style="fill:#ebaca7;stroke-width:0.53740567"
         inkscape:connector-curvature="0" />
      <path
         id="path56"
         d="m 81.440143,159.04991 c 0,0 0.7384,-1.76536 1.696042,-1.87552 1.138779,-0.13121 2.390936,0.17833 2.464016,0.42562 0.0719,0.24721 0.446586,2.96648 -0.772788,4.20842 -0.331584,0.33803 -1.619204,1.12857 -1.81267,1.5891 -0.193974,0.46056 -0.667453,0.91199 -1.428419,0.84965 -0.837277,-0.0683 -0.838902,-0.8405 -0.838902,-0.8405 z"
         style="fill:#d78263;stroke-width:0.53740567"
         inkscape:connector-curvature="0" />
      <path
         id="path58"
         d="m 66.527136,164.09188 c 0,0 -0.390695,0.44603 -1.135001,0.6207 -0.744308,0.17508 -3.485076,-1.91211 -3.648986,-2.48926 -0.164441,-0.57717 -0.769028,-4.0225 -0.247744,-4.39278 0.521823,-0.37025 3.512484,-0.2316 4.258941,0.26495 0.746456,0.4971 0.79536,5.70079 0.79536,5.70079 z"
         style="fill:#d78263;stroke-width:0.53740567"
         inkscape:connector-curvature="0" />
      <path
         id="path60"
         d="m 61.742075,146.92013 c 0.01074,0.15113 2.455406,23.90059 2.455406,23.90059 0,0 3.482927,4.7066 8.999933,4.77863 4.943061,0.0634 8.345382,-4.11439 8.345382,-4.11439 0,0 2.305466,-14.094 2.409175,-15.69654 0.104192,-1.60255 0.712077,-7.08516 0.46702,-9.43363 -0.454122,-4.35673 -6.626227,-7.36729 -12.803162,-6.94917 -8.445867,0.57125 -9.952753,6.39296 -9.873754,7.51451"
         style="fill:#fbc59a;stroke-width:0.53740567"
         inkscape:connector-curvature="0" />
      <g
         style="opacity:0.4"
         id="g72"
         transform="matrix(0.53740568,0,0,0.53740568,-442.99096,-120.81)">
        <g
           id="g70">
          <defs
             id="defs63">
            <rect
               height="57.82"
               width="27.424999"
               y="493.73999"
               x="939.19897"
               id="rect1036" />
          </defs>
          <clipPath
             id="clipPath1050">
            <use
               height="100%"
               width="100%"
               y="0"
               x="0"
               style="overflow:visible"
               id="use1048"
               overflow="visible"
               xlink:href="#SVGID_5_" />
          </clipPath>
          <path
             style="fill:#f79361"
             inkscape:connector-curvature="0"
             id="path68"
             d="m 946.791,541.268 c -1.311,-2.144 -1.589,-36.447 -1.642,-41.458 -3.79,-3.253 -3.932,-4.766 -4.892,-6.02 -0.457,-0.599 -1.054,4.401 -1.054,4.401 -0.141,0.244 4.569,44.474 4.569,44.474 0,0 6.481,8.758 16.747,8.891 2.219,0.029 4.269,-0.403 6.105,-1.074 -1.326,-0.003 -13.091,1.812 -19.833,-9.214"
             clip-path="url(#SVGID_6_)" />
        </g>
      </g>
      <path
         id="path74"
         d="m 85.354596,145.70076 c -0.326202,-1.15541 -1.412292,-1.59125 -1.735812,-1.66219 -0.229478,0.1097 -0.500859,1.36179 -0.133244,1.94218 1.531074,2.41671 0.07049,12.02125 -0.03392,13.62377 -0.03758,0.58579 -0.05646,0.22088 -0.05646,0.22088 0,0 2.820846,-11.07486 1.959379,-14.12464"
         style="fill:#bbbbbb;stroke-width:0.53740567"
         inkscape:connector-curvature="0" />
      <path
         id="path76"
         d="m 63.049047,145.61318 c 0.152091,-0.40844 0.339103,-1.27795 -0.372424,-1.53268 -0.378333,0.1144 -0.810407,0.35146 -1.220447,0.90605 -1.469267,1.9868 1.554713,15.03824 1.554713,15.03824 0.25688,-0.1097 -0.225709,-0.20852 0.0446,-0.3004 -0.638438,-6.20813 -1.316645,-10.59551 -0.0065,-14.11121"
         style="fill:#bbbbbb;stroke-width:0.53740567"
         inkscape:connector-curvature="0" />
      <g
         style="opacity:0.5"
         id="g98"
         transform="matrix(0.53740568,0,0,0.53740568,-442.99096,-120.81)">
        <g
           id="g96">
          <defs
             id="defs79">
            <rect
               height="6.04"
               width="9.6120005"
               y="527.09003"
               x="955.93402"
               id="rect1046" />
          </defs>
          <clipPath
             id="clipPath1061">
            <use
               height="100%"
               width="100%"
               y="0"
               x="0"
               style="overflow:visible"
               id="use1059"
               overflow="visible"
               xlink:href="#SVGID_7_" />
          </clipPath>
          <g
             style="opacity:0.7"
             id="g94"
             clip-path="url(#SVGID_8_)">
            <g
               id="g92">
              <defs
                 id="defs85">
                <rect
                   height="6.04"
                   width="9.6120005"
                   y="527.09003"
                   x="955.93402"
                   id="rect1051" />
              </defs>
              <clipPath
                 id="clipPath1067">
                <use
                   height="100%"
                   width="100%"
                   y="0"
                   x="0"
                   style="overflow:visible"
                   id="use1065"
                   overflow="visible"
                   xlink:href="#SVGID_9_" />
              </clipPath>
              <polygon
                 style="fill:#f79361"
                 id="polygon90"
                 points="955.934,531.347 957.775,532.54 961.31,533.13 965.545,529.526 956.856,529.526 958.247,527.093 956.356,529.179 "
                 clip-path="url(#SVGID_10_)" />
            </g>
          </g>
        </g>
      </g>
      <path
         id="path100"
         d="m 63.871815,153.87202 0.217648,-0.93991 c 0,0 1.081261,-0.44444 3.212611,-0.69112 2.131888,-0.24613 3.919837,0.17305 3.919837,0.17305 l -0.464856,2.83375 c 0,0 -2.091045,-0.77442 -3.07181,-0.99959 -0.8577,-0.19722 -3.81343,-0.37618 -3.81343,-0.37618"
         style="fill:#bbbbbb;stroke-width:0.53740567"
         inkscape:connector-curvature="0" />
      <path
         id="path102"
         d="m 75.424961,152.75582 0.619629,-2.44678 c 2.318905,0.35629 4.262156,1.66326 6.570324,2.61823 l -0.275159,0.96518 z"
         style="fill:#bbbbbb;stroke-width:0.53740567"
         inkscape:connector-curvature="0" />
      <path
         id="path104"
         d="m 67.45846,167.73388 c 0,0 0.938848,0.68841 1.938422,0.77331 2.350075,0.19946 6.124276,0.0383 7.150183,-0.0672 1.46228,-0.14949 2.866529,-0.47023 2.866529,-0.47023 l -0.197224,-0.75666 0.676592,1.2672 -0.565367,-0.31276 -1.183891,0.25256 c 0,0 -0.965722,0.24452 -3.098684,0.50946 -2.098033,0.26011 -4.278825,0.0339 -5.105354,-0.0467 -1.276338,-0.12471 -2.138338,-0.71851 -2.138338,-0.71851 z"
         style="fill:#d78263;stroke-width:0.53740567"
         inkscape:connector-curvature="0" />
      <polygon
         id="polygon106"
         points="950.458,535.578 949.079,536.474 949.319,537.808 "
         style="fill:#d78263"
         transform="matrix(0.53740568,0,0,0.53740568,-442.99096,-120.81)" />
      <path
         id="path108"
         d="m 66.917829,157.27004 c 0,-0.95443 0.372422,-1.72775 0.832442,-1.72775 0.46002,5.2e-4 0.83298,0.77439 0.833515,1.72829 0,0.95444 -0.37296,1.72775 -0.832978,1.72775 -0.460019,0 -0.832979,-0.77387 -0.832979,-1.72829"
         style="fill:#224352;stroke-width:0.53740567"
         inkscape:connector-curvature="0" />
      <g
         style="opacity:0.5"
         id="g120"
         transform="matrix(0.53740568,0,0,0.53740568,-442.99096,-120.81)">
        <g
           id="g118">
          <defs
             id="defs111">
            <rect
               height="2.25"
               width="0.93199998"
               y="515.28998"
               x="949.26898"
               id="rect1066" />
          </defs>
          <clipPath
             id="clipPath1083">
            <use
               height="100%"
               width="100%"
               y="0"
               x="0"
               style="overflow:visible"
               id="use1081"
               overflow="visible"
               xlink:href="#SVGID_11_" />
          </clipPath>
          <path
             style="fill:#ffffff"
             inkscape:connector-curvature="0"
             id="path116"
             d="m 949.269,516.413 c 0,-0.621 0.208,-1.125 0.466,-1.125 0.257,10e-4 0.466,0.504 0.466,1.125 0,0.621 -0.209,1.124 -0.466,1.124 -0.257,0 -0.466,-0.503 -0.466,-1.124"
             clip-path="url(#SVGID_12_)" />
        </g>
      </g>
      <path
         id="path122"
         d="m 77.56491,157.27004 c 0,-0.95443 0.371883,-1.72775 0.832443,-1.72775 0.460013,5.2e-4 0.832971,0.77439 0.832971,1.72829 0.0011,0.95444 -0.37241,1.72775 -0.832443,1.72775 -0.460012,0 -0.832971,-0.77387 -0.832971,-1.72829"
         style="fill:#224352;stroke-width:0.53740567"
         inkscape:connector-curvature="0" />
      <g
         style="opacity:0.5"
         id="g134"
         transform="matrix(0.53740568,0,0,0.53740568,-442.99096,-120.81)">
        <g
           id="g132">
          <defs
             id="defs125">
            <rect
               height="2.25"
               width="0.93199998"
               y="515.28998"
               x="969.08002"
               id="rect1075" />
          </defs>
          <clipPath
             id="clipPath1093">
            <use
               height="100%"
               width="100%"
               y="0"
               x="0"
               style="overflow:visible"
               id="use1091"
               overflow="visible"
               xlink:href="#SVGID_13_" />
          </clipPath>
          <path
             style="fill:#ffffff"
             inkscape:connector-curvature="0"
             id="path130"
             d="m 969.08,516.413 c 0,-0.621 0.208,-1.125 0.465,-1.125 0.258,10e-4 0.467,0.504 0.467,1.125 0,0.621 -0.209,1.124 -0.466,1.124 -0.257,0 -0.466,-0.503 -0.466,-1.124"
             clip-path="url(#SVGID_14_)" />
        </g>
      </g>
      <polygon
         id="polygon136"
         points="961.102,515.624 962.952,518.752 964.155,527.093 965.545,529.526 961.408,531.264 956.856,529.526 958.246,527.093 959.371,518.752 "
         style="fill:#fdcea9"
         transform="matrix(0.53740568,0,0,0.53740568,-442.99096,-120.81)" />
      <rect
         id="rect138"
         height="2.0862088"
         width="0.66960752"
         y="184.66431"
         x="67.933014"
         style="fill:#464646;stroke-width:0.53740567" />
      <rect
         id="rect140"
         height="2.0862088"
         width="0.66960752"
         y="184.10378"
         x="76.267624"
         style="fill:#464646;stroke-width:0.53740567" />
      <g
         style="opacity:0.5"
         id="g152"
         transform="matrix(0.53740568,0,0,0.53740568,-442.99096,-120.81)">
        <g
           id="g150">
          <defs
             id="defs143">
            <rect
               height="16.559999"
               width="16.566"
               y="510.79001"
               x="941.59802"
               id="rect1086" />
          </defs>
          <clipPath
             id="clipPath1105">
            <use
               height="100%"
               width="100%"
               y="0"
               x="0"
               style="overflow:visible"
               id="use1103"
               overflow="visible"
               xlink:href="#SVGID_15_" />
          </clipPath>
          <path
             style="fill:#71cbf3"
             inkscape:connector-curvature="0"
             id="path148"
             d="m 941.599,519.07 c 0,-4.575 3.708,-8.283 8.283,-8.283 4.574,0 8.283,3.708 8.283,8.283 0,4.574 -3.709,8.283 -8.283,8.283 -4.575,0 -8.283,-3.709 -8.283,-8.283"
             clip-path="url(#SVGID_16_)" />
        </g>
      </g>
      <circle
         id="circle154"
         r="4.4513316"
         cy="158.14119"
         cx="67.481049"
         stroke-miterlimit="10"
         style="fill:none;stroke:#793f1a;stroke-width:0.7469939;stroke-miterlimit:10" />
      <g
         style="opacity:0.5"
         id="g166"
         transform="matrix(0.53740568,0,0,0.53740568,-442.99096,-120.81)">
        <g
           id="g164">
          <defs
             id="defs157">
            <rect
               height="16.559999"
               width="16.566"
               y="510.79001"
               x="964.06403"
               id="rect1095" />
          </defs>
          <clipPath
             id="clipPath1115">
            <use
               height="100%"
               width="100%"
               y="0"
               x="0"
               style="overflow:visible"
               id="use1113"
               overflow="visible"
               xlink:href="#SVGID_17_" />
          </clipPath>
          <path
             style="fill:#71cbf3"
             inkscape:connector-curvature="0"
             id="path162"
             d="m 964.065,519.07 c 0,-4.575 3.708,-8.283 8.283,-8.283 4.573,0 8.282,3.708 8.282,8.283 0,4.574 -3.709,8.283 -8.282,8.283 -4.575,0 -8.283,-3.709 -8.283,-8.283"
             clip-path="url(#SVGID_18_)" />
        </g>
      </g>
      <circle
         id="circle168"
         r="4.4513316"
         cy="158.14119"
         cx="79.554398"
         stroke-miterlimit="10"
         style="fill:none;stroke:#793f1a;stroke-width:0.7469939;stroke-miterlimit:10" />
      <line
         id="line170"
         y2="156.18071"
         x2="71.477715"
         y1="156.16029"
         x1="75.447006"
         stroke-miterlimit="10"
         style="fill:none;stroke:#793f1a;stroke-width:0.7469939;stroke-miterlimit:10" />
    </g>
  </g>
</svg>
