<?xml version="1.0" encoding="UTF-8" standalone="no"?>
<!-- http://code.google.com/p/vector-playing-cards/ -->

<svg
   width="167.0869141pt"
   height="242.6669922pt"
   viewBox="0 0 167.0869141 242.6669922"
   xml:space="preserve"
   id="svg2"
   version="1.1"
   inkscape:version="1.2.1 (9c6d41e410, 2022-07-14)"
   sodipodi:docname="back.svg"
   inkscape:export-filename="/home/byron/art/cards/final/PNGs/king_of_spades2.png"
   inkscape:export-xdpi="215.44792"
   inkscape:export-ydpi="215.44792"
   xmlns:inkscape="http://www.inkscape.org/namespaces/inkscape"
   xmlns:sodipodi="http://sodipodi.sourceforge.net/DTD/sodipodi-0.dtd"
   xmlns:xlink="http://www.w3.org/1999/xlink"
   xmlns="http://www.w3.org/2000/svg"
   xmlns:svg="http://www.w3.org/2000/svg"
   xmlns:rdf="http://www.w3.org/1999/02/22-rdf-syntax-ns#"
   xmlns:cc="http://creativecommons.org/ns#"
   xmlns:dc="http://purl.org/dc/elements/1.1/"><metadata
     id="metadata43"><rdf:RDF><cc:Work
         rdf:about=""><dc:format>image/svg+xml</dc:format><dc:type
           rdf:resource="http://purl.org/dc/dcmitype/StillImage" /></cc:Work></rdf:RDF></metadata><defs
     id="defs41"><linearGradient
       inkscape:collect="always"
       id="linearGradient9469"><stop
         style="stop-color:#414141;stop-opacity:1;"
         offset="0"
         id="stop9465" /><stop
         style="stop-color:#4d4d4d;stop-opacity:0;"
         offset="1"
         id="stop9467" /></linearGradient><linearGradient
       inkscape:collect="always"
       id="linearGradient3556"><stop
         style="stop-color:#535353;stop-opacity:1;"
         offset="0"
         id="stop3552" /><stop
         style="stop-color:#3e3d3e;stop-opacity:1;"
         offset="1"
         id="stop3554" /></linearGradient><radialGradient
       inkscape:collect="always"
       xlink:href="#linearGradient3556"
       id="radialGradient3558"
       cx="83.543455"
       cy="121.33349"
       fx="83.543455"
       fy="121.33349"
       r="84.31432"
       gradientTransform="matrix(1,0,0,1.4482043,0,-54.382193)"
       gradientUnits="userSpaceOnUse" /><radialGradient
       inkscape:collect="always"
       xlink:href="#linearGradient9469"
       id="radialGradient9471"
       cx="83.128417"
       cy="120.41601"
       fx="83.128417"
       fy="120.41601"
       r="79.3937"
       gradientTransform="matrix(1,0,0,0.85134664,0,17.900245)"
       gradientUnits="userSpaceOnUse" /></defs><sodipodi:namedview
     pagecolor="#ffffff"
     bordercolor="#666666"
     borderopacity="1"
     objecttolerance="10"
     gridtolerance="10"
     guidetolerance="10"
     inkscape:pageopacity="0"
     inkscape:pageshadow="2"
     inkscape:window-width="3840"
     inkscape:window-height="2053"
     id="namedview39"
     showgrid="false"
     inkscape:zoom="2.4336873"
     inkscape:cx="-71.701898"
     inkscape:cy="213.0512"
     inkscape:window-x="3061"
     inkscape:window-y="-11"
     inkscape:window-maximized="1"
     inkscape:current-layer="svg2"
     inkscape:showpageshadow="2"
     inkscape:pagecheckerboard="0"
     inkscape:deskcolor="#d1d1d1"
     inkscape:document-units="pt" /><g
     id="Layer_x0020_1"
     style="clip-rule:nonzero;fill:url(#radialGradient3558);fill-rule:nonzero;stroke:#161616;stroke-width:2.04173;stroke-miterlimit:4;stroke-dasharray:none;fill-opacity:1;stroke-opacity:1"
     transform="matrix(0.99026901,0,0,0.99026901,0.81296008,1.1806944)"><path
       style="fill:url(#radialGradient3558);stroke:#161616;stroke-width:2.04173;stroke-dasharray:none;fill-opacity:1;stroke-opacity:1"
       d="m 166.83691,235.54785 c 0,3.77735 -3.08691,6.86914 -6.87109,6.86914 H 7.1108398 C 3.3359375,242.41699 0.25,239.3252 0.25,235.54785 V 7.1201172 C 0.25,3.3427734 3.3359375,0.25 7.1108398,0.25 H 159.96582 c 3.78418,0 6.87109,3.0927734 6.87109,6.8701172 z"
       id="path5" /><g
       style="fill:url(#radialGradient3558);stroke:#161616;stroke-width:2.04173;stroke-dasharray:none;fill-opacity:1;stroke-opacity:1"
       id="g7"><g
         id="g9"
         style="fill:url(#radialGradient3558);stroke:#161616;stroke-width:2.04173;stroke-dasharray:none;fill-opacity:1;stroke-opacity:1" /></g><g
       id="g15"
       style="fill:url(#radialGradient3558);stroke:#161616;stroke-width:2.04173;stroke-dasharray:none;fill-opacity:1;stroke-opacity:1" /><g
       id="g19"
       style="fill:url(#radialGradient3558);stroke:#161616;stroke-width:2.04173;stroke-dasharray:none;fill-opacity:1;stroke-opacity:1" /><g
       style="fill:url(#radialGradient3558);stroke:#161616;stroke-width:2.04173;stroke-dasharray:none;fill-opacity:1;stroke-opacity:1"
       id="g23"><g
         id="g25"
         style="fill:url(#radialGradient3558);stroke:#161616;stroke-width:2.04173;stroke-dasharray:none;fill-opacity:1;stroke-opacity:1" /></g><g
       style="fill:url(#radialGradient3558);stroke:#161616;stroke-width:2.04173;stroke-dasharray:none;fill-opacity:1;stroke-opacity:1"
       id="g31"><g
         id="g33"
         style="fill:url(#radialGradient3558);stroke:#161616;stroke-width:2.04173;stroke-dasharray:none;fill-opacity:1;stroke-opacity:1" /></g></g><path
     id="path8525-3"
     style="opacity:0.708633;fill:#404040;fill-opacity:1;stroke:#000000;stroke-width:1;stroke-linecap:square;stroke-dasharray:none;stroke-opacity:0.80263156;paint-order:stroke fill markers;stop-color:#000000"
     d="m 37.40332,237.58328 9.402832,-23.17675 6.689942,-0.019 c -3.876813,-11.26001 -7.859672,-23.28486 -7.716797,-23.74956 0.268334,-0.87274 35.59096,-27.40299 36.503906,-27.41748 0.912946,-0.0145 37.059087,25.38036 37.354977,26.24414 0.16115,0.47041 -3.60531,13.15619 -7.19677,24.74854 l 7.8413,-0.0234 9.40284,23.17529 z" /><path
     id="path8525"
     style="opacity:0.708633;fill:#404040;fill-opacity:1;stroke:#000000;stroke-width:1;stroke-linecap:square;stroke-dasharray:none;stroke-opacity:0.80263156;paint-order:stroke fill markers;stop-color:#000000"
     d="M 37.40332 4.2216797 L 46.806152 27.398438 L 53.496094 27.41748 C 49.619281 38.677447 45.636422 50.702299 45.779297 51.166992 C 46.047631 52.039734 81.370257 78.569981 82.283203 78.584473 C 83.196149 78.598964 119.34229 53.204118 119.63818 52.340332 C 119.79933 51.869922 116.03287 39.18415 112.44141 27.591797 L 120.28271 27.615234 L 129.68555 4.4399414 L 37.40332 4.2216797 z " /><path
     id="path8670"
     style="fill:url(#radialGradient9471);stroke:#000000;stroke-width:1;stroke-linecap:square;stroke-dasharray:none;stroke-opacity:0.50187969;paint-order:stroke fill markers;stop-color:#000000;opacity:0.70863309;fill-opacity:1"
     d="M 4.7431641 54.219727 L 5.1430664 120.41602 L 4.7431641 186.6123 L 62.271973 167.21777 L 71.424316 137.36426 L 94.83252 137.36426 L 103.98486 167.21777 L 161.51367 186.6123 L 161.11377 120.41602 L 161.51367 54.219727 L 103.98486 73.614258 L 94.83252 103.46777 L 71.424316 103.46777 L 62.271973 73.614258 L 4.7431641 54.219727 z " /><g
     aria-label="♠"
     id="text10261"
     style="font-weight:bold;font-size:80.6145px;line-height:1.25;font-family:Poppins;-inkscape-font-specification:'Poppins, Bold';text-align:center;opacity:0.60071942;fill:#000000;stroke:none;stroke-width:2;stroke-linecap:square;stroke-opacity:0.705882;paint-order:stroke fill markers;stop-color:#000000"
     transform="matrix(0.23873195,0,0,0.23873195,7.1898087,116.33977)"><path
       d="m 393.53718,-0.16840684 q 1.02343,4.25115534 3.14901,7.59697214 2.12558,3.3458167 7.55761,8.3054977 5.47139,4.920319 6.92781,7.55761 1.45641,2.637291 1.45641,5.353307 0,3.778804 -2.5192,6.298008 -2.51921,2.519203 -6.14056,2.519203 -3.07028,0 -5.58948,-1.889403 -2.47984,-1.928765 -4.40861,-5.589482 0.0394,5.786295 1.49578,9.210837 1.49578,3.385179 4.72351,5.353307 3.26709,1.928765 8.65976,2.283028 l 0.27553,1.456414 h -31.2145 l 0.3149,-1.456414 q 7.24271,0 11.21833,-4.211793 4.01498,-4.251156 3.85753,-12.635379 -1.77132,3.739443 -4.40861,5.628845 -2.59792,1.85004 -5.90438,1.85004 -3.54263,0 -6.10119,-2.558566 -2.51921,-2.558566 -2.51921,-6.140558 0,-2.873466 1.29897,-5.195856 1.77131,-3.227729 5.74693,-6.494821 3.97562,-3.267092 5.86502,-5.392669 2.87347,-3.267092 4.17243,-5.8256577 1.33833,-2.5585658 2.08621,-6.02247014 z"
       id="path10348"
       style="fill:#000000;stroke:none" /></g><g
     aria-label="♥
"
     id="text10328"
     style="font-weight:bold;font-size:80.6145px;line-height:1.25;font-family:Poppins;-inkscape-font-specification:'Poppins, Bold';text-align:center;opacity:0.60071942;fill:#e62e2d;fill-opacity:1;stroke:none;stroke-width:2;stroke-linecap:square;stroke-opacity:0.705882;paint-order:stroke fill markers;stop-color:#000000"
     transform="matrix(0.23873195,0,0,0.23873195,-63.560924,91.892903)"><path
       d="m 535.58061,150.10109 q -1.22024,-4.64478 -3.50326,-8.69912 -2.24367,-4.09371 -8.73849,-12.67475 -4.76287,-6.298 -5.86502,-7.99059 -1.81068,-2.75538 -2.63729,-5.03841 -0.78725,-2.32239 -0.78725,-4.68414 0,-4.36925 2.91283,-7.32144 2.91283,-2.95219 7.20334,-2.95219 4.32988,0 7.51825,3.07028 2.40112,2.28303 3.89689,6.80972 1.29897,-4.44797 3.66072,-6.77036 3.26709,-3.149 7.55761,-3.149 4.25116,0 7.20335,2.95219 2.95219,2.91283 2.95219,6.96717 0,3.54263 -1.73195,7.40016 -1.73196,3.81817 -6.69164,10.03745 -6.45546,8.14805 -9.40765,13.38327 -2.32239,4.13307 -3.54263,8.65976 z"
       id="path10351"
       style="fill:#e62e2d;fill-opacity:1;stroke:none" /></g><g
     aria-label="♣"
     id="text10338"
     style="font-weight:bold;font-size:80.6145px;line-height:1.25;font-family:Poppins;-inkscape-font-specification:'Poppins, Bold';text-align:center;opacity:0.60071942;fill:#000000;stroke:none;stroke-width:2;stroke-linecap:square;stroke-opacity:0.705882;paint-order:stroke fill markers;stop-color:#000000"
     transform="matrix(0.23873195,0,0,0.23873195,-95.711197,101.17896)"><path
       d="m 742.15953,112.17546 h -33.37944 l 0.3149,-1.33833 q 6.49482,-1.37769 8.6204,-2.71601 3.18837,-2.00749 5.19586,-5.94375 2.04685,-3.936252 2.04685,-8.305495 0,-0.629801 -0.0394,-1.810677 -2.40112,4.880956 -5.86502,7.124621 -3.42455,2.243661 -7.00654,2.243661 -4.56605,0 -7.75442,-3.188362 -3.18837,-3.188366 -3.18837,-7.833147 0,-4.566056 2.91283,-7.675697 2.91283,-3.149004 6.61291,-3.149004 2.36175,0 6.4161,2.00749 -1.65323,-2.755379 -2.16494,-4.133068 -0.47235,-1.417052 -0.47235,-3.030916 0,-4.487331 3.10964,-7.596973 3.10964,-3.109641 7.75442,-3.109641 4.64478,0 7.79378,3.109641 3.18837,3.109642 3.18837,7.40016 0,3.503267 -2.71602,7.360797 3.30646,-1.574502 3.97562,-1.771315 1.06279,-0.314901 2.40112,-0.314901 3.93625,0 6.80972,3.109642 2.91283,3.070279 2.91283,7.636335 0,4.723506 -3.18837,7.951235 -3.149,3.188364 -7.59697,3.188364 -2.47984,0 -5.11713,-1.18087 -2.59793,-1.220243 -4.5267,-3.227733 -1.37769,-1.456415 -3.42454,-4.920319 0.15745,6.258645 1.8894,9.919362 1.77132,3.62136 5.39267,6.02247 2.44048,1.61387 8.77785,2.8341 z"
       id="path10354"
       style="fill:#000000;stroke:none" /></g><g
     aria-label="♦"
     id="text10346"
     style="font-weight:bold;font-size:80.6145px;line-height:1.25;font-family:Poppins;-inkscape-font-specification:'Poppins, Bold';text-align:center;opacity:0.60071942;fill:#4d4d4d;stroke:none;stroke-width:2;stroke-linecap:square;stroke-opacity:0.705882;paint-order:stroke fill markers;stop-color:#000000"
     transform="matrix(0.23873195,0,0,0.23873195,-81.283866,62.210476)"><path
       d="m 716.98195,226.43624 q 3.50327,5.94375 8.6204,12.75347 5.90438,7.87251 9.52573,11.92685 -2.91282,3.07028 -9.52573,11.88749 -5.35331,7.16398 -8.58104,12.83219 -1.06279,-2.04685 -2.91283,-4.76287 -3.18836,-4.7235 -7.91187,-10.98215 -1.02343,-1.37769 -7.20335,-8.97466 3.97562,-4.52669 10.23427,-12.91092 4.64478,-6.21928 7.75442,-11.7694 z"
       id="path10357"
       style="opacity:1;fill:#e62e2d;fill-opacity:1;stroke:none" /></g><text
     xml:space="preserve"
     style="font-weight:bold;font-size:10.8904px;line-height:1.25;font-family:Poppins;-inkscape-font-specification:'Poppins, Bold';text-align:center;text-decoration-color:#000000;opacity:0.57733813;fill:none;fill-opacity:1;stroke:none;stroke-width:0.270184;stroke-linecap:square;stroke-dasharray:none;stroke-opacity:0.705882;paint-order:stroke fill markers;stop-color:#000000"
     x="50.13763"
     y="17.876354"
     id="text13072"><tspan
       sodipodi:role="line"
       id="tspan13070"
       style="font-style:normal;font-variant:normal;font-weight:bold;font-stretch:normal;font-family:'Playfair Display';-inkscape-font-specification:'Playfair Display Bold';fill:#000000;stroke-width:0.270184"
       x="50.13763"
       y="17.876354">Decent<tspan
   style="fill:#1a1a1a"
   id="tspan13124">Poker</tspan></tspan></text><text
     xml:space="preserve"
     style="font-weight:bold;font-size:10.8904px;line-height:1.25;font-family:Poppins;-inkscape-font-specification:'Poppins, Bold';text-align:center;text-decoration-color:#000000;opacity:0.57733813;fill:none;fill-opacity:1;stroke:none;stroke-width:0.270184;stroke-linecap:square;stroke-dasharray:none;stroke-opacity:0.705882;paint-order:stroke fill markers;stop-color:#000000"
     x="-117.03503"
     y="-223.68282"
     id="text13072-9"
     transform="scale(-1)"><tspan
       sodipodi:role="line"
       id="tspan13070-6"
       style="font-style:normal;font-variant:normal;font-weight:bold;font-stretch:normal;font-family:'Playfair Display';-inkscape-font-specification:'Playfair Display Bold';fill:#000000;stroke-width:0.270184"
       x="-117.03503"
       y="-223.68282">Decent<tspan
   style="fill:#1a1a1a"
   id="tspan13124-9">Poker</tspan></tspan></text><path
     id="path19509"
     style="opacity:0.577338;fill:#484848;fill-opacity:1;stroke:#000000;stroke-width:0.999997;stroke-linecap:square;stroke-dasharray:none;stroke-opacity:0.802632;paint-order:stroke fill markers;stop-color:#000000"
     inkscape:transform-center-x="-1.9963098"
     inkscape:transform-center-y="-0.098453619"
     d="M 18.490436 86.904672 C 17.787612 86.687303 -15.903096 98.167351 -16.32701 98.768605 C -16.750924 99.36986 -16.24617 134.95947 -15.80534 135.54843 C -15.364509 136.13739 18.639751 146.65315 19.336113 146.41589 C 20.032476 146.17864 40.54148 117.08817 40.531025 116.35258 C 40.52057 115.61698 19.19326 87.12204 18.490436 86.904672 z M 156.50088 86.904672 C 155.79805 87.12204 134.47074 115.61698 134.46029 116.35258 C 134.44983 117.08817 154.95884 146.17864 155.6552 146.41589 C 156.35156 146.65315 190.35582 136.13739 190.79665 135.54843 C 191.23748 134.95947 191.74428 99.36986 191.32036 98.768605 C 190.89645 98.167351 157.2037 86.687303 156.50088 86.904672 z "
     transform="matrix(0.71884422,0,0,0.71884422,20.165288,38.077419)" /></svg>
