<?xml version="1.0" encoding="UTF-8" standalone="no"?>
<svg
   width="800px"
   height="800px"
   fill="#000000"
   version="1.1"
   viewBox="0 0 529.66 529.66"
   xml:space="preserve"
   id="svg6"
   sodipodi:docname="coins.svg"
   inkscape:version="1.2.1 (9c6d41e410, 2022-07-14)"
   xmlns:inkscape="http://www.inkscape.org/namespaces/inkscape"
   xmlns:sodipodi="http://sodipodi.sourceforge.net/DTD/sodipodi-0.dtd"
   xmlns="http://www.w3.org/2000/svg"
   xmlns:svg="http://www.w3.org/2000/svg"><defs
   id="defs10" /><sodipodi:namedview
   id="namedview8"
   pagecolor="#ffffff"
   bordercolor="#000000"
   borderopacity="0.25"
   inkscape:showpageshadow="2"
   inkscape:pageopacity="0.0"
   inkscape:pagecheckerboard="0"
   inkscape:deskcolor="#d1d1d1"
   showgrid="false"
   inkscape:zoom="0.266875"
   inkscape:cx="-41.217799"
   inkscape:cy="1022.9508"
   inkscape:window-width="1920"
   inkscape:window-height="1009"
   inkscape:window-x="2552"
   inkscape:window-y="156"
   inkscape:window-maximized="1"
   inkscape:current-layer="svg6" />

	
		<path
   d="m 268.94765,44.268304 c -77.04772,0 -137.40534,34.487518 -137.40534,78.515276 V 417.2172 c 0,44.02776 60.35318,78.51527 137.40534,78.51527 77.05217,0 137.40533,-34.4864 137.40533,-78.51527 V 122.78358 c 0,-44.027758 -60.35316,-78.515276 -137.40533,-78.515276 z M 386.71889,417.21609 c 0,31.92042 -53.93374,58.88673 -117.77124,58.88673 -63.83749,0 -117.77125,-26.96631 -117.77125,-58.88673 v -17.87191 c 24.53596,22.65037 67.21512,37.50156 117.77125,37.50156 50.55614,0 95.69009,-14.85119 117.77124,-37.50156 z m 0,-58.88671 c 0,31.9204 -53.93374,58.88671 -117.77124,58.88671 -63.83749,0 -117.77125,-26.96631 -117.77125,-58.88671 v -17.87193 c 24.53596,22.65036 67.21512,37.50157 117.77125,37.50157 50.55614,0 95.69009,-14.85121 117.77124,-37.50157 z m 0,-58.88563 c 0,31.92042 -53.93374,58.88673 -117.77124,58.88673 -63.83749,0 -117.77125,-26.96631 -117.77125,-58.88673 v -17.87191 c 24.53596,22.65036 67.21512,37.50156 117.77125,37.50156 50.55614,0 95.69009,-14.8512 117.77124,-37.50156 z m 0,-58.88673 c 0,31.92042 -53.93374,58.88673 -117.77124,58.88673 -63.83749,0 -117.77125,-26.96631 -117.77125,-58.88673 v -17.87191 c 24.53596,22.65036 67.21512,37.50156 117.77125,37.50156 50.55614,0 95.69009,-14.8512 117.77124,-37.50156 z m 0,-58.88562 c 0,31.92043 -53.93374,58.88673 -117.77124,58.88673 -63.83749,0 -117.77125,-26.9663 -117.77125,-58.88673 v -17.87302 c 24.53596,22.65037 67.21512,37.50156 117.77125,37.50156 50.55614,0 95.69009,-14.85119 117.77124,-37.50156 z m -116.54828,0 c -63.83861,0 -117.77124,-26.96519 -117.77124,-58.88673 0,-31.921515 53.93374,-58.886723 117.77124,-58.886723 63.8375,0 117.77123,26.965208 117.77123,58.886723 0,31.92154 -53.93373,58.88673 -117.77123,58.88673 z"
   fill="#22b879"
   id="path2"
   style="stroke-width:1.11178" />
	


	
		
	

</svg>
