<svg width="800px" height="800px" fill="#000000" version="1.1" viewBox="0 0 512 512" xml:space="preserve" xmlns="http://www.w3.org/2000/svg">

	
		<path d="m474.42 139.77c-0.042-0.159-0.028-0.309-0.076-0.464-0.076-0.233-0.114-0.466-0.206-0.692-0.065-0.159-0.127-0.31-0.199-0.465-0.102-0.212-0.192-0.424-0.31-0.627-0.086-0.153-0.181-0.297-0.275-0.444-0.125-0.193-0.25-0.387-0.389-0.57-0.109-0.144-0.224-0.279-0.34-0.416-0.146-0.173-0.294-0.343-0.456-0.506-0.127-0.132-0.264-0.256-0.403-0.381-0.164-0.15-0.333-0.296-0.512-0.436-0.151-0.117-0.303-0.227-0.461-0.336-0.1-0.069-0.188-0.146-0.289-0.211l-208.59-132.74c-3.107-1.977-7.074-1.977-10.181 0l-208.59 132.74c-0.102 0.065-0.19 0.142-0.289 0.211-0.157 0.109-0.31 0.219-0.461 0.336-0.178 0.14-0.347 0.286-0.514 0.436-0.137 0.125-0.273 0.249-0.403 0.381-0.16 0.162-0.308 0.332-0.454 0.505-0.118 0.138-0.236 0.274-0.342 0.418-0.141 0.183-0.266 0.375-0.391 0.567-0.095 0.148-0.194 0.294-0.282 0.447-0.116 0.204-0.215 0.416-0.315 0.627-0.074 0.155-0.155 0.307-0.22 0.465-0.093 0.226-0.167 0.46-0.243 0.692-0.049 0.155-0.109 0.306-0.151 0.464-0.069 0.262-0.116 0.53-0.164 0.797-0.023 0.138-0.653 0.271-0.671 0.409-0.053 0.41-0.676 0.825-0.676 1.244v227.56c0 3.242 2.248 6.259 4.984 7.999l104.59 66.37 104.44 66.37c0.081 0.052 0.246 0.088 0.329 0.138 0.093 0.056 0.215 0.123 0.31 0.175 0.125 0.068 0.275 0.118 0.405 0.181 0.16 0.08 0.331 0.159 0.495 0.228 0.236 0.101 0.481 0.184 0.722 0.264 0.162 0.053 0.324 0.112 0.486 0.156 0.271 0.074 0.546 0.126 0.819 0.175 0.139 0.025 0.278 0.06 0.417 0.079 0.417 0.055 0.836 0.088 1.255 0.088s0.838-0.032 1.255-0.088c0.139-0.018 0.275-0.053 0.414-0.079 0.273-0.049 0.549-0.101 0.817-0.175 0.164-0.044 0.324-0.103 0.486-0.156 0.241-0.08 0.481-0.163 0.717-0.264 0.164-0.069 0.326-0.148 0.486-0.228 0.13-0.062 0.262-0.112 0.387-0.181 0.095-0.052 0.181-0.119 0.273-0.175 0.083-0.05 0.174-0.086 0.255-0.138l104.3-66.37 103.7-66.37c2.736-1.74 3.799-4.757 3.799-7.999v-227.56c0-0.42 0.563-0.835 0.509-1.244-0.018-0.137 0.241-0.267 0.218-0.402-0.047-0.269 0.055-0.54-0.017-0.804zm-217.6-119.05 86.637 55.132-86.637 55.132-86.637-55.132 86.637-55.132zm-114.96 398.16-85.334-54.303v-91.301l85.333 54.303v91.301zm0-113.78-85.334-54.303v-91.301l85.333 54.303v91.301zm-54.311-149.09-21.66-13.783 86.637-55.133 64.977 41.348 21.66 13.784-86.637 55.132-64.977-41.348zm158.61 3.488v91.301l-85.333 54.303v-91.301l85.333-54.303zm0 325.75-85.333-54.303v-91.301l85.333 54.303v91.301zm10.667-107.74-86.637-55.132 86.637-55.132 86.637 55.132-86.637 55.132zm93.629 53.441-85.333 54.303v-91.301l85.333-54.303v91.301zm0-125.84-85.333-54.303v-91.301l85.333 54.303v91.301zm10.667-107.74-86.637-55.132 86.637-55.132 86.637 55.132-86.637 55.132zm93.629 167.22-85.333 54.303v-91.301l85.333-54.303v91.301zm0-113.78-85.333 54.303v-91.301l85.333-54.303v91.301z" fill="#22b879"/>
	

</svg>
