<?xml version="1.0" encoding="UTF-8" standalone="no"?>
<!-- Created with Inkscape (http://www.inkscape.org/) -->

<svg
   xmlns:dc="http://purl.org/dc/elements/1.1/"
   xmlns:cc="http://creativecommons.org/ns#"
   xmlns:rdf="http://www.w3.org/1999/02/22-rdf-syntax-ns#"
   xmlns:svg="http://www.w3.org/2000/svg"
   xmlns="http://www.w3.org/2000/svg"
   xmlns:sodipodi="http://sodipodi.sourceforge.net/DTD/sodipodi-0.dtd"
   xmlns:inkscape="http://www.inkscape.org/namespaces/inkscape"
   sodipodi:docname="dealer.svg"
   inkscape:version="0.92.4 (5da689c313, 2019-01-14)"
   id="svg8"
   version="1.1"
   viewBox="0 0 269.76085 208.0094"
   height="786.17725"
   width="1019.5686">
  <defs
     id="defs2" />
  <sodipodi:namedview
     id="base"
     pagecolor="#ffffff"
     bordercolor="#666666"
     borderopacity="1.0"
     inkscape:pageopacity="0.0"
     inkscape:pageshadow="2"
     inkscape:zoom="0.49497475"
     inkscape:cx="438.03315"
     inkscape:cy="105.90404"
     inkscape:document-units="mm"
     inkscape:current-layer="layer1"
     showgrid="false"
     units="px"
     inkscape:window-width="1920"
     inkscape:window-height="1080"
     inkscape:window-x="-17"
     inkscape:window-y="87"
     inkscape:window-maximized="0"
     fit-margin-top="0"
     fit-margin-left="0"
     fit-margin-right="0"
     fit-margin-bottom="0" />
  <metadata
     id="metadata5">
    <rdf:RDF>
      <cc:Work
         rdf:about="">
        <dc:format>image/svg+xml</dc:format>
        <dc:type
           rdf:resource="http://purl.org/dc/dcmitype/StillImage" />
        <dc:title />
      </cc:Work>
    </rdf:RDF>
  </metadata>
  <g
     inkscape:label="Layer 1"
     inkscape:groupmode="layer"
     id="layer1"
     transform="translate(-46.170181,-33.921631)">
    <ellipse
       style="opacity:1;vector-effect:none;fill:#4d4d4d;fill-opacity:1;fill-rule:evenodd;stroke:none;stroke-width:0.92236942;stroke-linecap:butt;stroke-linejoin:bevel;stroke-miterlimit:4;stroke-dasharray:none;stroke-dashoffset:0;stroke-opacity:1;paint-order:markers stroke fill"
       id="path4531-1"
       cx="181.05061"
       cy="126.66541"
       rx="134.88043"
       ry="91.631699" />
    <ellipse
       style="opacity:1;vector-effect:none;fill:#333333;fill-opacity:1;fill-rule:evenodd;stroke:none;stroke-width:0.92236942;stroke-linecap:butt;stroke-linejoin:bevel;stroke-miterlimit:4;stroke-dasharray:none;stroke-dashoffset:0;stroke-opacity:1;paint-order:markers stroke fill"
       id="path4531-1-0"
       cx="181.05061"
       cy="132.689"
       rx="134.88043"
       ry="91.631699" />
    <ellipse
       style="opacity:1;vector-effect:none;fill:#000000;fill-opacity:1;fill-rule:evenodd;stroke:none;stroke-width:0.87747669;stroke-linecap:butt;stroke-linejoin:bevel;stroke-miterlimit:4;stroke-dasharray:none;stroke-dashoffset:0;stroke-opacity:1;paint-order:markers stroke fill"
       id="path4531-8"
       cx="181.05061"
       cy="126.16343"
       rx="128.31563"
       ry="87.171867" />
    <ellipse
       style="opacity:1;vector-effect:none;fill:#ffffff;fill-opacity:1;fill-rule:evenodd;stroke:none;stroke-width:0.87025821;stroke-linecap:butt;stroke-linejoin:bevel;stroke-miterlimit:4;stroke-dasharray:none;stroke-dashoffset:0;stroke-opacity:1;paint-order:markers stroke fill"
       id="path4531"
       cx="181.0506"
       cy="129.17526"
       rx="127.26006"
       ry="86.454758" />
    <path
       style="opacity:1;vector-effect:none;fill:#1a1a1a;fill-opacity:1;fill-rule:evenodd;stroke:none;stroke-width:3.4861207;stroke-linecap:butt;stroke-linejoin:bevel;stroke-miterlimit:4;stroke-dasharray:none;stroke-dashoffset:0;stroke-opacity:1;paint-order:markers stroke fill"
       d="M 1018.873,371.34375 A 509.78434,346.32452 0 0 1 509.78516,708.23633 509.78434,346.32452 0 0 1 0.6953125,375.24414 509.78434,346.32452 0 0 0 0,384.67773 509.78434,346.32452 0 0 0 509.78516,731.00195 509.78434,346.32452 0 0 0 1019.5684,384.67773 509.78434,346.32452 0 0 0 1018.873,371.34375 Z m 0,40.97266 A 509.78434,346.32453 0 0 1 509.78516,749.20703 509.78434,346.32453 0 0 1 0.6953125,416.2168 509.78434,346.32453 0 0 0 0,425.65039 509.78434,346.32453 0 0 0 0.515625,432.65234 509.78434,346.32454 0 0 0 0,439.65039 509.78434,346.32454 0 0 0 509.78516,785.97461 509.78434,346.32454 0 0 0 1019.5684,439.65039 a 509.78434,346.32454 0 0 0 -0.3653,-7 509.78434,346.32453 0 0 0 0.3653,-7 509.78434,346.32453 0 0 0 -0.6954,-13.33398 z"
       transform="matrix(0.26458333,0,0,0.26458333,46.170181,33.921631)"
       id="path4531-1-07"
       inkscape:connector-curvature="0" />
    <path
       style="opacity:1;vector-effect:none;fill:#1a1a1a;fill-opacity:1;fill-rule:evenodd;stroke:none;stroke-width:0.92236942;stroke-linecap:butt;stroke-linejoin:bevel;stroke-miterlimit:4;stroke-dasharray:none;stroke-dashoffset:0;stroke-opacity:1;paint-order:markers stroke fill"
       d="M 315.74713,137.19273 A 134.88044,91.631698 0 0 1 181.0506,226.32864 134.88044,91.631698 0 0 1 46.354064,138.22461 a 134.88044,91.631698 0 0 0 -0.183807,2.49612 134.88044,91.631698 0 0 0 134.880343,91.63155 134.88044,91.631698 0 0 0 134.88033,-91.63155 134.88044,91.631698 0 0 0 -0.1838,-3.528 z"
       id="path4531-1-07-5"
       inkscape:connector-curvature="0" />
    <text
       transform="scale(0.91977517,1.0872222)"
       id="text859"
       y="135.44017"
       x="195.34465"
       style="font-style:normal;font-variant:normal;font-weight:900;font-stretch:normal;font-size:62.05289841px;line-height:1.25;font-family:Roboto;-inkscape-font-specification:'Roboto Heavy';text-align:center;writing-mode:lr-tb;direction:ltr;text-anchor:middle;opacity:1;vector-effect:none;fill:#000000;fill-opacity:1;fill-rule:evenodd;stroke:none;stroke-width:1.329705;stroke-linecap:butt;stroke-linejoin:bevel;stroke-miterlimit:4;stroke-dasharray:none;stroke-dashoffset:0;stroke-opacity:1;paint-order:markers stroke fill"
       xml:space="preserve"><tspan
         style="font-style:normal;font-variant:normal;font-weight:bold;font-stretch:normal;font-family:Nunito;-inkscape-font-specification:'Nunito Bold';fill:#000000;stroke-width:1.329705"
         y="189.73645"
         x="195.34465"
         id="tspan857"
         sodipodi:role="line" /></text>
    <text
       xml:space="preserve"
       style="font-style:normal;font-variant:normal;font-weight:bold;font-stretch:normal;font-size:42.33333206px;line-height:1.25;font-family:sans-serif;-inkscape-font-specification:'sans-serif Bold';text-align:center;writing-mode:lr-tb;direction:ltr;text-anchor:middle;opacity:1;vector-effect:none;fill:#000000;fill-opacity:1;fill-rule:evenodd;stroke:none;stroke-width:1.58749998;stroke-linecap:butt;stroke-linejoin:bevel;stroke-miterlimit:4;stroke-dasharray:none;stroke-dashoffset:0;stroke-opacity:0.675;paint-order:markers stroke fill;"
       x="179.2704"
       y="140.36861"
       id="text827"><tspan
         sodipodi:role="line"
         id="tspan825"
         x="179.2704"
         y="140.36861"
         style="font-size:49.38888889px;stroke-width:1.58749998;fill:#000000;fill-opacity:1;-inkscape-font-specification:'Roboto Bold';font-family:Roboto;font-weight:bold;font-style:normal;font-stretch:normal;font-variant:normal">DEALER</tspan></text>
  </g>
</svg>
