<svg width="800px" height="800px" fill="#000000" version="1.1" viewBox="0 0 529.66 529.66" xml:space="preserve" xmlns="http://www.w3.org/2000/svg">

	
		<path d="m268.95 44.268c-77.048 0-137.41 34.488-137.41 78.515v294.43c0 44.028 60.353 78.515 137.41 78.515 77.052 0 137.41-34.486 137.41-78.515v-294.43c0-44.028-60.353-78.515-137.41-78.515zm117.77 372.95c0 31.92-53.934 58.887-117.77 58.887-63.837 0-117.77-26.966-117.77-58.887v-17.872c24.536 22.65 67.215 37.502 117.77 37.502 50.556 0 95.69-14.851 117.77-37.502zm0-58.887c0 31.92-53.934 58.887-117.77 58.887-63.837 0-117.77-26.966-117.77-58.887v-17.872c24.536 22.65 67.215 37.502 117.77 37.502 50.556 0 95.69-14.851 117.77-37.502zm0-58.886c0 31.92-53.934 58.887-117.77 58.887-63.837 0-117.77-26.966-117.77-58.887v-17.872c24.536 22.65 67.215 37.502 117.77 37.502 50.556 0 95.69-14.851 117.77-37.502zm0-58.887c0 31.92-53.934 58.887-117.77 58.887-63.837 0-117.77-26.966-117.77-58.887v-17.872c24.536 22.65 67.215 37.502 117.77 37.502 50.556 0 95.69-14.851 117.77-37.502zm0-58.886c0 31.92-53.934 58.887-117.77 58.887-63.837 0-117.77-26.966-117.77-58.887v-17.873c24.536 22.65 67.215 37.502 117.77 37.502 50.556 0 95.69-14.851 117.77-37.502zm-116.55 0c-63.839 0-117.77-26.965-117.77-58.887 0-31.922 53.934-58.887 117.77-58.887s117.77 26.965 117.77 58.887c0 31.922-53.934 58.887-117.77 58.887z" fill="#22b879" stroke-width="1.1118"/>
	


	
		
	

</svg>
